<?xml version="1.0" encoding="UTF-8"?>
<svg width="24px" height="24px" viewBox="0 0 24 24" version="1.1" xmlns="http://www.w3.org/2000/svg" xmlns:xlink="http://www.w3.org/1999/xlink">
    <title>Icon/Move</title>
    <g id="Icon/Move" stroke="none" stroke-width="1" fill="none" fill-rule="evenodd">
        <polygon id="24pt-Bounding-Box" opacity="0" fill-rule="nonzero" points="0 0 24 0 24 24 0 24"></polygon>
        <path d="M21.71,11.31 L18.71,8.31 L18.7100001,8.31000007 C18.3178781,7.91787807 17.6821201,7.91787807 17.2900001,8.30999993 C16.8978781,8.70212193 16.8978781,9.33787993 17.2899999,9.72999993 C17.2899999,9.72999993 17.2899999,9.72999993 17.2899999,9.72999993 L18.5799999,10.9999999 L12.9999999,10.9999999 L12.9999999,5.40999993 L14.2899999,6.70999993 L14.2899999,6.70999988 C14.4787189,6.89718688 14.7341969,7.00153688 14.9999999,6.99999988 L14.9999999,6.99999988 C15.2658029,7.00153663 15.5212809,6.89718688 15.7099999,6.70999988 L15.71,6.70999984 C16.102122,6.32107984 16.104718,5.68791984 15.7157982,5.29579984 C15.7138734,5.29385915 15.7119406,5.29192636 15.7099999,5.29000152 L12.7099999,2.29000152 L12.7099999,2.29000154 C12.5212809,2.10281554 12.2658029,1.99846454 11.9999999,1.9999848 L11.9999999,1.9999848 C11.7376599,2.00110616 11.4862609,2.10525754 11.2999999,2.29000154 L8.29999991,5.29000154 L8.29999994,5.29000151 C7.90787794,5.67936251 7.90563894,6.31288151 8.29499988,6.70500151 C8.68436088,7.09712351 9.31787988,7.09936251 9.70999988,6.71000157 C9.70999988,6.71000157 9.70999989,6.71000156 9.70999989,6.71000156 L10.9999999,5.42000156 L10.9999999,11.0000016 L5.40999989,11.0000016 L6.70999989,9.71000156 L6.70999996,9.71000149 C7.10212196,9.31787949 7.10212196,8.68212149 6.70999982,8.29000149 C6.31787782,7.89787949 5.68211982,7.89787949 5.28999982,8.29000163 L2.28999982,11.2900016 L2.28999977,11.2900017 C2.10281377,11.4787207 1.99846277,11.7341987 1.99998303,12.0000017 L1.99998303,12.0000057 C1.99846405,12.2658087 2.10281575,12.5212867 2.29000275,12.7100047 L5.29000275,15.7100047 L5.29000268,15.7100046 C5.47872168,15.8971896 5.73419868,16.0015386 5.99999968,16.0000016 L5.99999973,16.0000016 C6.26580273,16.0015384 6.52128073,15.8971886 6.70999973,15.7100016 L6.70999977,15.7100016 C7.10212177,15.3210816 7.10471777,14.6879216 6.71579801,14.2958016 C6.71387317,14.2938609 6.71194038,14.2919281 6.70999969,14.2900032 L5.41999969,13.0000032 L10.9999997,13.0000032 L10.9999997,18.5900032 L9.70999969,17.2900032 L9.70999976,17.2900033 C9.31787776,16.8978813 8.68211976,16.8978813 8.28999976,17.2900032 C7.89787776,17.6821252 7.89787776,18.3178832 8.28999962,18.7100032 C8.28999962,18.7100032 8.28999962,18.7100032 8.28999962,18.7100032 L11.2899996,21.7100032 L11.2899996,21.7100032 C11.4787186,21.8971902 11.7341966,22.0015402 11.9999996,22.0000199 L11.9999997,22.0000199 C12.2623397,21.9988986 12.5137387,21.8947472 12.6999997,21.7100032 L15.6999997,18.7100032 L15.6999997,18.7100031 C16.0921217,18.3178811 16.0921217,17.6821231 15.6999996,17.2900031 C15.3078776,16.8978811 14.6721196,16.8978811 14.2799996,17.2900033 L12.9999996,18.5800033 L12.9999996,13.0000033 L18.5899996,13.0000033 L17.2899996,14.2900033 L17.2899996,14.2900032 C16.8978776,14.6789232 16.8952816,15.3120832 17.2842013,15.7042032 C17.2861261,15.7061439 17.2880589,15.7080767 17.2899996,15.7100016 L17.2899995,15.7100015 C17.4787185,15.8971885 17.7341965,16.0015385 17.9999995,16.0000015 L17.9999996,16.0000015 C18.2658026,16.0015383 18.5212806,15.8971885 18.7099996,15.7100015 L21.7099996,12.7100015 L21.7099996,12.7100015 C21.8971866,12.5212825 22.0015366,12.2658045 22.0000163,12.0000015 L22.0000163,12.0000042 C21.9962969,11.7411362 21.8923416,11.4937922 21.7100016,11.3100032 L21.71,11.31 Z" id="Fill" fill="#2876D3"></path>
    </g>
</svg>