<?xml version="1.0" encoding="UTF-8"?>
<svg width="24px" height="24px" viewBox="0 0 24 24" version="1.1" xmlns="http://www.w3.org/2000/svg" xmlns:xlink="http://www.w3.org/1999/xlink">
    <g id="Icon/Person/Line" stroke="none" stroke-width="1" fill="none" fill-rule="evenodd">
        <polygon id="24pt-Bounding-Box" opacity="0" fill-rule="nonzero" points="0 0 24 0 24 24 0 24"></polygon>
        <path d="M11.9999997,13 L12.2406493,13.004059 C15.9952132,13.1309015 18.9999997,16.2145525 18.9999997,20 L18.9999997,20 L18.993272,20.1166214 C18.9355069,20.6139609 18.5128358,21 17.9999997,21 C17.4477147,21 16.9999997,20.5522861 16.9999997,20 L16.9999997,20 L16.9953802,19.7831107 C16.8818176,17.1223111 14.6887507,15 11.9999997,15 C9.23857969,15 6.99999969,17.2385809 6.99999969,20 L6.99999969,20 L6.99327197,20.1166212 C6.93550689,20.6139602 6.51283577,21 5.99999969,21 C5.44771469,21 4.99999969,20.5522852 4.99999969,20 L4.99999969,20 L5.00405872,19.7593504 C5.13090114,16.0047865 8.21455115,13 11.9999997,13 L11.9999997,13 Z M11.9999998,3 C14.2091398,3 15.9999998,4.79086 15.9999998,7 C15.9999998,9.20914 14.2091398,11 11.9999998,11 L11.9999998,11 L11.8003594,10.9951047 C9.68396735,10.8910789 7.99999983,9.14219578 7.99999983,7 L7.99999983,7 L8.00489513,6.80035957 C8.10892089,4.68396753 9.85780346,3 11.9999998,3 Z M11.9999999,5 L11.8507375,5.00548574 C10.8158772,5.08183486 9.99999991,5.94563802 9.99999991,7 L9.99999991,7 L10.0054856,7.14926241 C10.0818347,8.18412267 10.9456376,9 11.9999999,9 C13.1045699,9 13.9999999,8.10457 13.9999999,7 C13.9999999,5.89543 13.1045699,5 11.9999999,5 L11.9999999,5 Z" id="Fill" fill="#2876D3"></path>
    </g>
</svg>
