<?xml version="1.0" encoding="UTF-8"?>
<svg width="24px" height="24px" viewBox="0 0 24 24" version="1.1" xmlns="http://www.w3.org/2000/svg" xmlns:xlink="http://www.w3.org/1999/xlink">
    <g id="Icon/Arrow-Circle-Down/Line" stroke="none" stroke-width="1" fill="none" fill-rule="evenodd">
        <polygon id="24pt-Bounding-Box" opacity="0" fill-rule="nonzero" points="0 0 24 0 24 24 0 24"></polygon>
        <path d="M11.9999996,2 L12.2799045,2.0038418 C17.6733312,2.15206821 21.9999996,6.57075806 21.9999996,12 L21.9999996,12 L21.9961578,12.279905 C21.8479314,17.6733316 17.4292419,22 11.9999996,22 C6.47714956,22 1.99999956,17.52285 1.99999956,12 C1.99999956,6.47715 6.47714956,2 11.9999996,2 L11.9999996,2 Z M11.9999997,4 C7.58171965,4 3.99999965,7.58172 3.99999965,12 C3.99999965,16.41828 7.58171965,20 11.9999997,20 L11.9999997,20 L12.2491791,19.9961932 C16.5521638,19.8645429 19.9999997,16.3349162 19.9999997,12 L19.9999997,12 L19.9961928,11.7508206 C19.8645426,7.44783584 16.3349159,4 11.9999997,4 Z M12,7 C12.552285,7 13,7.447715 13,8 L13,8 L13,13.66 L14.31,12.41 C14.7104098,12.0289239 15.3439228,12.0445939 15.7249998,12.4449999 C16.1060759,12.8454099 16.0904059,13.4789229 15.6899999,13.8599999 L15.6899999,13.8599999 L12.6899998,16.72 C12.6466148,16.7623235 12.5957542,16.7962305 12.5399998,16.82 L12.5399998,16.82 L12.4906709,16.8595357 C12.4563277,16.883902 12.4191922,16.9042098 12.3799998,16.92 L12.3799998,16.92 L12.2564703,16.9645737 C12.0469277,17.0240053 11.8216999,17.0091474 11.6199999,16.9199999 L11.6199999,16.9199999 L11.5010225,16.8646338 C11.4243789,16.8226429 11.3534024,16.7706937 11.2899999,16.7099999 L11.2899999,16.7099999 L8.28999993,13.7099999 L8.28999993,13.7099999 L8.20647101,13.6154076 C7.90019832,13.2215126 7.9280413,12.6519587 8.29000007,12.2899999 C8.68212007,11.8978781 9.31787807,11.8978781 9.71000007,12.2900001 L9.71000007,12.2900001 L9.71,12.29 L11,13.59 L11,8 C11,7.447715 11.447715,7 12,7 Z" id="Fill" fill="#2876D3"></path>
    </g>
</svg>
