<?xml version="1.0" encoding="UTF-8"?>
<svg width="24px" height="24px" viewBox="0 0 24 24" version="1.1" xmlns="http://www.w3.org/2000/svg" xmlns:xlink="http://www.w3.org/1999/xlink">
    <title>Icon/Arrow Forward</title>
    <g id="Icon/Arrow-Forward" stroke="none" stroke-width="1" fill="none" fill-rule="evenodd">
        <polygon id="24pt-Bounding-Box" opacity="0" fill-rule="nonzero" transform="translate(12.000000, 12.000000) rotate(-90.000000) translate(-12.000000, -12.000000) " points="0 0 24 0 24 24 0 24"></polygon>
        <path d="M5.00000008,12.9999984 L16.86,12.9999984 L13.23,17.36 L13.23,17.3600001 C12.876538,17.7852591 12.934741,18.4165401 13.36,18.7700001 C13.785259,19.1234621 14.41654,19.0652591 14.77,18.6400001 L19.77,12.6400001 L19.7699999,12.6400001 C19.8036392,12.5922758 19.8337205,12.5421404 19.8599999,12.4900001 C19.8599999,12.4400001 19.9099999,12.4100001 19.9299999,12.3600001 L19.93,12.36 C19.9753265,12.245341 19.9990588,12.123289 20.0000001,11.9999984 L20.0000001,11.9999984 C19.9990585,11.8767093 19.9753259,11.7546573 19.9299992,11.6399983 C19.9299992,11.5899983 19.8799992,11.5599983 19.8599992,11.5099983 L19.8599992,11.5099983 C19.8337198,11.457858 19.8036385,11.4077223 19.7699992,11.3599983 L14.7699992,5.35999827 L14.7699992,5.35999828 C14.5796422,5.13145928 14.2974312,4.99951628 14.0000001,4.99999836 L14.0000001,4.99999836 C13.7663482,4.99954377 13.5399122,5.08091918 13.3600002,5.23000028 L13.3600001,5.23000037 C12.9348301,5.58249037 12.8759121,6.21290837 13.2284021,6.63808037 C13.228934,6.6387219 13.2294667,6.63936277 13.2300001,6.64000297 L16.8600001,10.9999984 L5.00000008,10.9999984 L5.00000008,10.9999984 C4.44771508,10.9999984 4.00000008,11.447718 4.00000008,11.9999984 C4.00000008,12.552288 4.44771508,12.9999984 5.00000008,12.9999984 L5.00000008,12.9999984 Z" id="Fill" fill="#2876D3"></path>
    </g>
</svg>