<?xml version="1.0" encoding="UTF-8"?>
<svg width="24px" height="24px" viewBox="0 0 24 24" version="1.1" xmlns="http://www.w3.org/2000/svg" xmlns:xlink="http://www.w3.org/1999/xlink">
    <g id="Icon/List" stroke="none" stroke-width="1" fill="none" fill-rule="evenodd">
        <polygon id="24pt-Bounding-Box" opacity="0" fill-rule="nonzero" points="0 0 24 0 24 24 0 24"></polygon>
        <path d="M20.06,16 C20.579143,16 21,16.420857 21,16.94 L21,17.06 C21,17.579143 20.579143,18 20.06,18 L7.94,18 C7.420857,18 7,17.579143 7,17.06 L7,16.94 C7,16.420857 7.420857,16 7.94,16 L20.06,16 Z M4.70711,16.2929 C5.097634,16.683424 5.097634,17.31659 4.70711,17.70711 C4.316586,18.097634 3.68342,18.097634 3.2929,17.70711 C2.902376,17.316586 2.902376,16.68342 3.2929,16.2929 C3.683424,15.902376 4.31659,15.902376 4.70711,16.2929 Z M20.06,11 C20.579143,11 21,11.420857 21,11.94 L21,12.06 C21,12.579143 20.579143,13 20.06,13 L7.94,13 C7.420857,13 7,12.579143 7,12.06 L7,11.94 C7,11.420857 7.420857,11 7.94,11 L20.06,11 Z M4.70711,11.2929 C5.097634,11.683424 5.097634,12.31659 4.70711,12.70711 C4.316586,13.097634 3.68342,13.097634 3.2929,12.70711 C2.902376,12.316586 2.902376,11.68342 3.2929,11.2929 C3.683424,10.902376 4.31659,10.902376 4.70711,11.2929 Z M20.06,6 C20.579143,6 21,6.420857 21,6.94 L21,7.06 C21,7.579143 20.579143,8 20.06,8 L7.94,8 C7.420857,8 7,7.579143 7,7.06 L7,6.94 C7,6.420857 7.420857,6 7.94,6 L20.06,6 Z M4.70711,6.29289 C5.097634,6.683414 5.097634,7.31658 4.70711,7.7071 C4.316586,8.097624 3.68342,8.097624 3.2929,7.7071 C2.902376,7.316576 2.902376,6.68341 3.2929,6.29289 C3.683424,5.902366 4.31659,5.902366 4.70711,6.29289 Z" id="Fill" fill="#2876D3"></path>
    </g>
</svg>
