<?xml version="1.0" encoding="UTF-8"?>
<svg width="24px" height="24px" viewBox="0 0 24 24" version="1.1" xmlns="http://www.w3.org/2000/svg" xmlns:xlink="http://www.w3.org/1999/xlink">
    <g id="Icon/File-Type-PNG/Line" stroke="none" stroke-width="1" fill="none" fill-rule="evenodd">
        <polygon id="24pt-Bounding-Box" opacity="0" fill-rule="nonzero" points="0 0 24 0 24 24 0 24"></polygon>
        <path d="M21.74,8.33 L16.3,2.33 L16.3,2.33000001 C16.110941,2.12052101 15.842178,2.00066701 15.56,1.99981627 L8.56000001,1.99981627 L8.55999996,1.99981627 C7.16281996,1.98333441 6.01666996,3.10246001 5.99999568,4.49964001 C5.99999568,4.49975859 5.99999568,4.49987716 5.99999568,4.49999574 L5.99999568,19.4999957 L5.99999568,19.4999903 C6.01646188,20.8971703 7.16245568,22.0164703 8.55963568,22.0001799 C8.55975423,22.0001799 8.55987279,22.0001799 8.55999134,22.0001799 L19.4399913,22.0001799 L19.4399912,22.0001799 C20.8371712,22.0166647 21.9833212,20.897536 21.9999957,19.500356 C21.9999957,19.5002356 21.9999957,19.5001152 21.9999957,19.4999947 L21.9999957,8.99999473 L21.9999957,8.99999864 C21.9993495,8.75216264 21.906695,8.51339664 21.7399985,8.32999764 L21.74,8.33 Z M19.65,9 L15.71,9 L15.71,9 C15.281099,8.9577648 14.965193,8.579568 15,8.15 L15,4 L15.11,4 L19.65,9 Z M19.44,20 L8.56,20 L8.56000002,20 C8.26778402,20.0170102 8.01710602,19.793912 8.00000005,19.501695 C8.00000005,19.5011299 8.00000005,19.5005648 8.00000005,19.4999996 L8.00000005,4.4999996 L8.00000005,4.49999966 C8.01607385,4.20773066 8.26603505,3.98382966 8.55830505,3.99990366 C8.55887024,3.99993474 8.55943537,3.99996673 8.56000045,3.99999962 L13.0000001,3.99999962 L13.0000001,8.14999962 L13.0000001,8.15000203 C12.9663973,9.68340203 14.1768504,10.956392 15.7100004,11.000002 L20.0000001,11.000002 L20.0000001,19.500002 L20.0000001,19.5000019 C19.9839266,19.7922709 19.7339654,20.0161719 19.4416954,20.0000979 C19.4411302,20.0000669 19.4405651,20.0000349 19.44,20.000002 L19.44,20 Z" id="Fill" fill="#808285"></path>
        <rect id="Rectangle" fill="#A838E4" x="1" y="5" width="12" height="7" rx="2"></rect>
        <path d="M3.834,9.908 L3.834,8.84 L4.174,8.84 C4.32066667,8.84 4.462,8.824 4.598,8.792 C4.734,8.76 4.854,8.70933333 4.958,8.64 C5.062,8.57066667 5.14466667,8.47933333 5.206,8.366 C5.26733333,8.25266667 5.298,8.11333333 5.298,7.948 C5.298,7.78533333 5.26933333,7.64866667 5.212,7.538 C5.15466667,7.42733333 5.076,7.338 4.976,7.27 C4.876,7.202 4.75866667,7.15266667 4.624,7.122 C4.48933333,7.09133333 4.34466667,7.076 4.19,7.076 L4.19,7.076 L3.15,7.076 L3.15,9.908 L3.834,9.908 Z M4.122,8.296 L3.834,8.296 L3.834,7.628 L4.134,7.628 C4.19533333,7.628 4.25466667,7.632 4.312,7.64 C4.36933333,7.648 4.42066667,7.664 4.466,7.688 C4.51133333,7.712 4.54733333,7.74533333 4.574,7.788 C4.60066667,7.83066667 4.614,7.88533333 4.614,7.952 C4.614,8.01866667 4.60066667,8.074 4.574,8.118 C4.54733333,8.162 4.51066667,8.19733333 4.464,8.224 C4.41733333,8.25066667 4.36466667,8.26933333 4.306,8.28 C4.24733333,8.29066667 4.186,8.296 4.122,8.296 L4.122,8.296 Z M6.1073336,9.908 L6.0913336,8.056 L6.1033336,8.056 L7.2433336,9.908 L8.0193336,9.908 L8.0193336,7.076 L7.3553336,7.076 L7.3713336,8.924 L7.3593336,8.924 L6.2233336,7.076 L5.4433336,7.076 L5.4433336,9.908 L6.1073336,9.908 Z M9.7606672,9.98 C9.97933387,9.98 10.1813339,9.95733333 10.3666672,9.912 C10.5520005,9.86666667 10.7140005,9.808 10.8526672,9.736 L10.8526672,9.736 L10.8526672,8.236 L9.6846672,8.236 L9.6846672,8.788 L10.2246672,8.788 L10.2246672,9.304 C10.1633339,9.33066667 10.0966672,9.35 10.0246672,9.362 C9.9526672,9.374 9.8766672,9.38 9.7966672,9.38 C9.65800053,9.38 9.5346672,9.358 9.4266672,9.314 C9.3186672,9.27 9.22800053,9.20866667 9.1546672,9.13 C9.08133387,9.05133333 9.02600053,8.95733333 8.9886672,8.848 C8.95133387,8.73866667 8.9326672,8.61866667 8.9326672,8.488 C8.9326672,8.36 8.95333387,8.242 8.9946672,8.134 C9.03600053,8.026 9.09400053,7.93266667 9.1686672,7.854 C9.24333387,7.77533333 9.33133387,7.714 9.4326672,7.67 C9.53400053,7.626 9.6446672,7.604 9.7646672,7.604 C9.90333387,7.604 10.0273339,7.62866667 10.1366672,7.678 C10.2460005,7.72733333 10.3340005,7.79066667 10.4006672,7.868 L10.4006672,7.868 L10.8326672,7.376 C10.7126672,7.26133333 10.5566672,7.17 10.3646672,7.102 C10.1726672,7.034 9.9646672,7 9.7406672,7 C9.5246672,7 9.32333387,7.03466667 9.1366672,7.104 C8.95000053,7.17333333 8.78733387,7.27266667 8.6486672,7.402 C8.51000053,7.53133333 8.40133387,7.688 8.3226672,7.872 C8.24400053,8.056 8.2046672,8.26133333 8.2046672,8.488 C8.2046672,8.712 8.24333387,8.91533333 8.3206672,9.098 C8.39800053,9.28066667 8.50533387,9.43733333 8.6426672,9.568 C8.78000053,9.69866667 8.94400053,9.8 9.1346672,9.872 C9.32533387,9.944 9.53400053,9.98 9.7606672,9.98 Z" id="PNG" fill="#FFFFFF" fill-rule="nonzero"></path>
    </g>
</svg>
