<?xml version="1.0" encoding="UTF-8"?>
<svg width="24px" height="24px" viewBox="0 0 24 24" version="1.1" xmlns="http://www.w3.org/2000/svg" xmlns:xlink="http://www.w3.org/1999/xlink">
    <g id="Icon/Attach" stroke="none" stroke-width="1" fill="none" fill-rule="evenodd">
        <polygon id="24pt-Bounding-Box" opacity="0" fill-rule="nonzero" points="0 0 24 0 24 24 0 24"></polygon>
        <path d="M9.29,21.0000047 L9.28999976,21.0000047 C7.62112976,20.9919808 6.02525976,20.314724 4.85999976,19.12 L4.8599999,19.1200001 C2.4549099,16.8404801 2.3531099,13.0428601 4.6326259,10.6377701 C4.63508134,10.6351794 4.63753909,10.6325909 4.63999915,10.6300046 L11.9999992,3.20000459 L11.9999994,3.20000432 C12.7942394,2.40721732 13.8781094,1.97366432 14.9999994,2.00000432 L14.9999996,2.00000432 C16.2013296,2.00409521 17.3506796,2.49049832 18.1899996,3.35000432 L18.1899996,3.35000433 C19.9111096,5.00710433 19.9779996,7.74070433 18.3399996,9.48000433 L10.9399996,16.9100043 L10.9399998,16.9100042 C10.4612428,17.3919992 9.80934978,17.6621192 9.12999978,17.6600042 L9.12999994,17.6600042 C8.39598394,17.6609801 7.69272994,17.3652532 7.17999994,16.8400042 L7.17999985,16.8400041 C6.12423985,15.8178041 6.08854985,14.1360641 7.10000005,13.0700041 L13.93,6.21000409 L13.9300001,6.21000407 C14.3900651,5.90445807 15.0107201,6.02972007 15.3162601,6.48978507 C15.5447011,6.83375107 15.5382401,7.28275307 15.2999979,7.62000507 L8.46999787,14.4800051 L8.46999788,14.4800051 C8.23304788,14.7654741 8.26864488,15.1881821 8.54999788,15.4300051 L8.54999784,15.430005 C8.69071084,15.571687 8.88040384,15.654006 9.07999784,15.660005 L9.07999787,15.660005 C9.22933287,15.6621447 9.37333487,15.6045437 9.47999787,15.500005 L16.8699979,8.07000503 L16.8699979,8.070005 C17.7331289,7.111139 17.6663199,5.636875 16.7199979,4.760005 L16.7199979,4.76000496 C15.8428789,3.84935496 14.4068079,3.78347996 13.4499979,4.61000496 L6.05999786,12.000005 L6.05999786,12.000005 C4.55464786,13.616855 4.64503786,16.147905 6.26189586,17.653255 C6.26791268,17.6588568 6.27394676,17.6644402 6.27999796,17.6700049 L6.27999801,17.6700049 C7.06636001,18.4851779 8.14739801,18.9500249 9.27999801,18.9600049 L9.27999809,18.9600049 C10.2563651,18.9679332 11.1956381,18.5864639 11.8899981,17.9000049 L19.2799981,10.4700049 L19.2799981,10.470005 C19.6693591,10.077883 20.3028781,10.075644 20.6949981,10.4650049 C21.0871201,10.8543659 21.0893591,11.4878849 20.6999981,11.8800049 C20.6999981,11.8800049 20.6999981,11.8800049 20.6999981,11.8800049 L13.3099981,19.3100049 L13.3099983,19.3100047 C12.2501483,20.3885947 10.8021583,20.9973247 9.28999831,21.0000047 L9.29,21.0000047 Z" id="Fill" fill="#2876D3"></path>
    </g>
</svg>
