<?xml version="1.0" encoding="UTF-8"?>
<svg width="24px" height="24px" viewBox="0 0 24 24" version="1.1" xmlns="http://www.w3.org/2000/svg" xmlns:xlink="http://www.w3.org/1999/xlink">
    <g id="Icon/Arrow-iOS-Upward" stroke="none" stroke-width="1" fill="none" fill-rule="evenodd">
        <polygon id="24pt-Bounding-Box" opacity="0" fill-rule="nonzero" transform="translate(12.000000, 12.000000) rotate(180.000000) translate(-12.000000, -12.000000) " points="-1.77635684e-15 1.77635684e-15 24 1.77635684e-15 24 24 -1.77635684e-15 24"></polygon>
        <path d="M18,15.0000023 L18,15.0000023 C17.766348,15.0004565 17.539912,14.9190811 17.36,14.77 L12,10.29 L6.62999998,14.61 L6.62999995,14.61 C6.20127595,14.958158 5.57148995,14.892847 5.22332995,14.464123 C5.22221624,14.4627516 5.22110617,14.4613772 5.21999975,14.4599999 L5.2199997,14.4599999 C4.8718417,14.0312759 4.9371527,13.4014899 5.3658767,13.0533299 C5.36724812,13.0522161 5.3686225,13.0511061 5.3699998,13.0499997 L11.3699998,8.21999966 L11.3699998,8.21999963 C11.7390018,7.91668263 12.2709978,7.91668263 12.6399998,8.21999969 L18.6399998,13.2199997 L18.6399999,13.2199997 C19.0651699,13.5724897 19.1240879,14.2029077 18.7715979,14.6280797 C18.771066,14.6287213 18.7705333,14.6293621 18.7699999,14.6300023 L18.7699999,14.6300023 C18.5815799,14.8622793 18.2990829,14.9980243 17.9999999,15.0000023 L18,15.0000023 Z" id="Fill" fill="#2876D3"></path>
    </g>
</svg>
