<?xml version="1.0" encoding="UTF-8"?>
<svg width="24px" height="24px" viewBox="0 0 24 24" version="1.1" xmlns="http://www.w3.org/2000/svg" xmlns:xlink="http://www.w3.org/1999/xlink">
    <g id="Icon/Scissors" stroke="none" stroke-width="1" fill="none" fill-rule="evenodd">
        <polygon id="24pt-Bounding-Box" opacity="0" fill-rule="nonzero" points="0 0 24 0 24 24 0 24"></polygon>
        <path d="M6.49999997,2.99999998 C8.15684997,2.99999998 9.49999997,4.34314998 9.49999997,5.99999998 L9.49999997,5.99999998 L9.49197439,6.22249985 C9.464884,6.59207165 9.36949997,6.95409832 9.20999997,7.28999998 L9.20999997,7.28999998 L9.20999993,7.29000007 L12.5099999,10.6000001 L18.7899999,4.29000007 C19.1821199,3.89787793 19.8178779,3.89787793 20.2099999,4.28999993 C20.6021221,4.68211993 20.6021221,5.31787793 20.2100001,5.70999993 L20.2100001,5.70999993 L20.21,5.71 L9.21000219,16.7400055 C9.39710119,17.1339345 9.49606514,17.5639195 9.49999997,18 L9.49999997,18 L9.49490726,18.1762724 C9.40366057,19.7510762 8.09767692,21 6.49999997,21 C4.84315014,21 3.49999997,19.6568501 3.49999997,18 C3.49999997,16.3431501 4.84315014,15 6.49999997,15 L6.49999997,15 L6.72622561,15.0083654 C7.10193819,15.0364837 7.46969944,15.1351843 7.81000027,15.3000001 L7.81000027,15.3000001 L7.81000004,15.3 L11.1,12 L7.79000004,8.69999998 C7.38771904,8.89485398 6.94698004,8.99735105 6.49999997,8.99999998 L6.49999997,8.99999998 L6.32372761,8.99490728 C4.74892389,8.90366057 3.49999997,7.59767677 3.49999997,5.99999998 C3.49999997,4.34314998 4.84314997,2.99999998 6.49999997,2.99999998 Z M13.7900001,13.2899999 C14.1821201,12.8978781 14.8178781,12.8978781 15.2100001,13.2900001 L15.2100001,13.2900001 L20.2099982,18.2900016 C20.2119389,18.2919264 20.2138717,18.2938592 20.2157965,18.2957999 C20.6047163,18.6879199 20.6021203,19.3210799 20.2099983,19.7099999 L20.2099983,19.7099999 L20.207105,19.7129051 C19.8120799,20.1047179 19.1789199,20.1021219 18.7899999,19.7099999 L18.7899999,19.7099999 L13.7899999,14.7099999 L13.7899999,14.7099999 L13.706471,14.6154076 C13.4001983,14.2215126 13.4280413,13.6519587 13.7900001,13.2899999 Z M6.49999996,17 C5.94771496,17 5.49999996,17.447715 5.49999996,18 C5.49999996,18.552285 5.94771496,19 6.49999996,19 L6.49999996,19 L6.61662113,18.9932723 C7.11395998,18.9355072 7.49999996,18.5128361 7.49999996,18 L7.49999996,18 L7.49327223,17.8833788 C7.43550715,17.38604 7.01283603,17 6.49999996,17 Z M6.49999996,5 C5.94771496,5 5.49999996,5.447715 5.49999996,6 C5.49999996,6.552285 5.94771496,7 6.49999996,7 L6.49999996,7 L6.61662113,6.99327227 C7.11395998,6.93550719 7.49999996,6.51283607 7.49999996,6 L7.49999996,6 L7.49327223,5.88337883 C7.43550715,5.38603997 7.01283603,5 6.49999996,5 Z" id="Fill" fill="#2876D3"></path>
    </g>
</svg>
