<?xml version="1.0" encoding="UTF-8"?>
<svg width="24px" height="24px" viewBox="0 0 24 24" version="1.1" xmlns="http://www.w3.org/2000/svg" xmlns:xlink="http://www.w3.org/1999/xlink">
    <g id="Icon/Sync" stroke="none" stroke-width="1" fill="none" fill-rule="evenodd">
        <polygon id="24pt-Bounding-Box" opacity="0" fill-rule="nonzero" points="0 0 24 0 24 24 0 24"></polygon>
        <path d="M3.3002057,12.9865926 L3.41000148,13.0000004 L7.66000145,13.6900004 C8.21228645,13.7341804 8.62418425,14.2177154 8.58000145,14.7700004 C8.53582145,15.3222854 8.05228645,15.7341832 7.50000145,15.6900004 L7.50000145,15.6900004 L7.34000145,15.6900004 L5.69000145,15.4200004 C6.97752145,17.6459804 9.35851145,19.0119943 11.9300014,19.0000004 L11.9300014,19.0000004 L12.2009942,18.9986309 C14.9923337,18.9313539 17.4950575,17.2252429 18.5700019,14.6300004 L18.5700019,14.6300004 L18.5727404,14.6230983 C18.78491,14.1051633 19.368946,13.860614 19.88,14.07 L19.88,14.07 L19.9847494,14.1183552 C20.4211064,14.3510164 20.6270576,14.8757755 20.4500311,15.3500053 L20.4500311,15.3500053 L20.3092766,15.6659035 C19.479436,17.4381857 18.1054955,18.9034934 16.3833011,19.8453453 C11.9156711,22.2886253 6.31329106,20.6475953 3.87000106,16.1799953 L3.87000106,16.1799953 L3.5000016,18.1799963 C3.4120346,18.6610893 2.9890056,19.0079726 2.5000016,18.9999963 L2.5000016,18.9999963 L2.3200016,18.9999963 C2.2989042,18.9963122 2.2779307,18.9919514 2.2571134,18.9869205 C1.7202824,18.8571905 1.3902664,18.3168315 1.5200014,17.7800005 L1.5200014,17.7800005 L2.27000142,13.7800004 C2.28110372,13.7190364 2.30495762,13.6611057 2.34000142,13.6100004 L2.34000142,13.6100004 L2.3692555,13.5128836 L2.3692555,13.5128836 L2.41000144,13.4200004 L2.50000146,13.3200004 C2.55208846,13.2525774 2.61257856,13.1920875 2.68000146,13.1400004 L2.68000146,13.1400004 L2.78177749,13.0825321 C2.85144275,13.0477398 2.92455275,13.0200679 3.00000142,13.0000004 L3.00000142,13.0000004 L3.08000148,13.0000004 C3.18908248,12.9798887 3.30092048,12.9798887 3.41000148,13.0000004 Z M7.59479997,4.16139962 C12.06104,1.71569962 17.6643,3.35370962 20.11,7.81999962 L20.11,7.81999962 L20.48,5.81999975 C20.57941,5.26771575 21.107715,4.90058865 21.66,4.99999975 C22.212284,5.09940975 22.5794111,5.62771475 22.48,6.17999975 L22.48,6.17999975 L21.73,10.18 C21.7172362,10.246741 21.6935875,10.3109305 21.66,10.37 L21.66,10.37 L21.6408583,10.4518158 L21.6408583,10.4518158 L21.6100474,10.5299999 L21.5440311,10.6134858 L21.5440311,10.6134858 L21.4700474,10.6899999 L21.3900474,10.7899999 C21.3291354,10.8362754 21.2617474,10.8733388 21.1900474,10.8999999 L21.1900474,10.8999999 L21.1427188,10.9344523 L21.1427188,10.9344523 L21.0900474,10.9599999 L20.9794315,10.994111 C20.9044874,11.0122041 20.8274374,11.0209534 20.7500474,11.0200672 L20.7500474,11.0200672 L20.5900474,11.0200672 L16.3400474,10.3099999 L16.3400474,10.3099999 L16.2245027,10.284612 C15.7364062,10.1472697 15.4179936,9.66283597 15.5000474,9.14999989 C15.5884174,8.59771489 16.1077624,8.22163429 16.6600474,8.30999989 L16.6600474,8.30999989 L18.3100473,8.57999988 C17.0225273,6.35401988 14.6415373,4.98800578 12.0700473,4.99999988 L12.0700473,4.99999988 L11.8050344,5.0003495 C8.98691509,5.05654592 6.45895417,6.78365321 5.39004751,9.40999988 L5.39004751,9.40999988 L5.38829885,9.41430806 C5.17525998,9.92888475 4.59032598,10.1712735 4.08004998,9.95999955 L4.08004998,9.95999955 L3.97485926,9.90989678 C3.53714703,9.66942355 3.33877449,9.13436398 3.53004999,8.65999955 L3.53004999,8.65999955 L3.67062196,8.3439488 C4.49945203,6.57078737 5.87278497,5.10435939 7.59479997,4.16139962 Z" id="Fill" fill="#2876D3"></path>
    </g>
</svg>