<?xml version="1.0" encoding="UTF-8"?>
<svg width="24px" height="24px" viewBox="0 0 24 24" version="1.1" xmlns="http://www.w3.org/2000/svg">
    <g id="Icon/Arrow-Circle-Left/Line" stroke="none" stroke-width="1" fill="none" fill-rule="evenodd">
        <polygon id="24pt-Bounding-Box" opacity="0" fill-rule="nonzero" points="0 0 24 0 24 24 0 24"></polygon>
        <path
            d="M11.9999996,2 L12.2799045,2.0038418 C17.6733312,2.15206821 21.9999996,6.57075806 21.9999996,12 L21.9999996,12 L21.9961578,12.279905 C21.8479314,17.6733316 17.4292419,22 11.9999996,22 C6.47714956,22 1.99999956,17.52285 1.99999956,12 C1.99999956,6.47715 6.47714956,2 11.9999996,2 L11.9999996,2 Z M11.9999997,4 C7.58171965,4 3.99999965,7.58172 3.99999965,12 C3.99999965,16.41828 7.58171965,20 11.9999997,20 L11.9999997,20 L12.2491791,19.9961932 C16.5521638,19.8645429 19.9999997,16.3349162 19.9999997,12 L19.9999997,12 L19.9961928,11.7508206 C19.8645426,7.44783584 16.3349159,4 11.9999997,4 Z M10.1399999,8.31000005 C10.5210799,7.90959395 11.1545939,7.89392395 11.5549999,8.27499995 C11.955406,8.65607995 11.971076,9.28959395 11.59,9.68999995 L11.59,9.68999995 L11.59,9.69 L10.34,11 L16,11.0000009 C16.5522829,11.0000009 17,11.4477159 17,12.0000009 C17,12.5522859 16.5522829,13.0000009 16,13.0000009 L16,13.0000009 L10.409998,13.0000009 L11.709998,14.2800009 C11.7119386,14.2819257 11.7138714,14.2838585 11.7157963,14.2857992 C12.104716,14.6779192 12.10212,15.3110792 11.709998,15.6999992 L11.709998,15.6999992 L11.7071048,15.7029043 C11.3120797,16.0947172 10.6789197,16.0921212 10.2899997,15.6999992 L10.2899997,15.6999992 L7.2899997,12.6999992 C7.2000487,12.6078492 7.1287428,12.4991922 7.0799997,12.3799992 L7.0799997,12.3799992 L7.03683641,12.257088 C7.01348388,12.1735348 7.00105327,12.0871172 7.00000001,11.9999992 L7.00000001,11.9999992 L7.01999992,11.9100001 C7.02457832,11.8140171 7.04484662,11.7194316 7.07999992,11.6300001 L7.07999992,11.6300001 L7.11014356,11.5630008 C7.13247753,11.5194462 7.15922406,11.4782253 7.18999993,11.4400001 L7.18999993,11.4400001 L7.23242658,11.3732185 L7.23242658,11.3732185 L7.27999995,11.3100001 Z"
            id="Fill" fill="#2876D3"></path>
    </g>
</svg>
