<?xml version="1.0" encoding="UTF-8"?>
<svg width="24px" height="24px" viewBox="0 0 24 24" version="1.1" xmlns="http://www.w3.org/2000/svg" xmlns:xlink="http://www.w3.org/1999/xlink">
    <title>Icon/Cloud Upload/Line</title>
    <g id="Icon/Cloud-Upload/Line" stroke="none" stroke-width="1" fill="none" fill-rule="evenodd">
        <polygon id="24pt-Bounding-Box" opacity="0" fill-rule="nonzero" points="0 0 24 0 24 24 0 24"></polygon>
        <path d="M11.31,11.29 C11.69884,10.908857 12.321156,10.908857 12.71,11.29 L12.71,11.29 L15.7157976,14.2958011 C16.1047174,14.6879211 16.1021214,15.3210811 15.7099994,15.7100011 L15.7099994,15.7100011 L15.7071061,15.7129063 C15.312081,16.1047191 14.678921,16.1021231 14.290001,15.7100011 L14.290001,15.7100011 L13.000001,14.4100011 L13.000001,20.0000011 C13.000001,20.5522861 12.552286,21.0000011 12.000001,21.0000011 C11.447716,21.0000011 11.0000011,20.5522861 11.000001,20.0000011 L11.000001,20.0000011 L11.000001,14.360001 L9.69000103,15.630001 C9.65689483,15.6668133 9.62110033,15.7011164 9.58291303,15.732627 C9.15692803,16.084132 8.52664803,16.023754 8.17514303,15.59777 C7.82363803,15.171785 7.88401603,14.541505 8.31000003,14.19 L8.31000003,14.19 Z M10.03758,3.29241993 C13.16903,2.20860993 16.58618,3.86854993 17.67,6.99999993 L17.67,6.99999993 L17.9251881,7.03835422 C18.8553477,7.20282747 19.7218284,7.62786441 20.422566,8.26651341 C22.463512,10.1266234 22.610112,13.2890434 20.750002,15.3299934 L20.750002,15.3299934 L20.6638403,15.4167518 C20.4820878,15.5786436 20.2461966,15.6696817 20.000002,15.6699934 L20.000002,15.6699934 L19.8793731,15.6625185 C19.6801753,15.638022 19.491922,15.5539751 19.340002,15.4199934 L19.340002,15.4199934 L19.3353932,15.415959 C18.9186087,15.0443265 18.8824297,14.4121975 19.2500017,13.9999965 L19.2500017,13.9999965 L19.3918144,13.8291317 C19.7968679,13.3026097 20.0170417,12.654484 20.0139308,11.9860063 C20.0062208,10.3291663 18.6568408,8.99228581 17.0000008,8.99999634 L17.0000008,8.99999634 L16.9400008,8.99999633 C16.4572398,9.00973233 16.0364744,8.67311933 15.9400008,8.19999633 L15.9400008,8.19999633 L15.8931911,7.99667195 C15.5127333,6.52061042 14.3216804,5.38172906 12.8159908,5.07598645 C10.6510308,4.63637645 8.5396138,6.03503645 8.1000008,8.19999645 L8.1000008,8.19999645 L8.06927814,8.31531124 C7.93296889,8.72681582 7.54253183,9.00892031 7.10000091,8.99999589 L7.10000091,8.99999589 L7.00000097,8.99999589 C6.25725097,8.99653989 5.53962497,9.26874289 4.98601097,9.76392489 C3.75108097,10.8685149 3.64541497,12.7650649 4.75000497,13.9999949 L4.75000497,13.9999949 L4.84133009,14.0840786 C4.89856192,14.1437486 4.94828457,14.2104032 4.98926197,14.2825819 C5.26192897,14.7628699 5.09362297,15.3732559 4.61333997,15.6459219 C4.13305197,15.9185889 3.52266597,15.7502829 3.24999997,15.2699999 L3.24999997,15.2699999 L3.07637997,15.0628625 C2.51744603,14.358186 2.15785363,13.5142736 2.03800999,12.6194999 C1.67142999,9.88251993 3.59301999,7.36658293 6.32999999,6.99999993 L6.32999999,6.99999993 L6.42114434,6.75414129 C7.06289154,5.13253712 8.3813514,3.86565041 10.03758,3.29241993 Z" id="Fill" fill="#2876D3"></path>
    </g>
</svg>