<?xml version="1.0" encoding="UTF-8"?>
<svg width="24px" height="24px" viewBox="0 0 24 24" version="1.1" xmlns="http://www.w3.org/2000/svg" xmlns:xlink="http://www.w3.org/1999/xlink">
    <title>Icon/Plus Circle/Fill</title>
    <g id="Icon/Plus-Circle/Fill" stroke="none" stroke-width="1" fill="none" fill-rule="evenodd">
        <polygon id="24pt-Bounding-Box" opacity="0" fill-rule="nonzero" points="0 0 24 0 24 24 0 24"></polygon>
        <path d="M11.9999996,2 L11.9999996,2 C6.47714956,2 1.99999956,6.47715 1.99999956,12 C1.99999956,17.52285 6.47714956,22 11.9999996,22 C17.5228496,22 21.9999996,17.52285 21.9999996,12 L21.9999996,12 C21.9999996,6.47715044 17.5228496,2 11.9999996,2 L11.9999996,2 Z M15,13.0000002 L13,13.0000002 L13,15.0000002 L13,15.0000002 C13,15.552285 12.552285,16.0000002 12,16.0000002 C11.447715,16.0000002 11,15.552285 11,15.0000002 L11,13.0000002 L8.99999996,13.0000002 L8.99999996,13.0000002 C8.44771496,13.0000002 7.99999996,12.552285 7.99999996,12.0000002 C7.99999996,11.447715 8.44771496,11.0000002 8.99999996,11.0000002 L11,11.0000002 L11,9.00000015 L11,9.00000015 C11,8.44771515 11.447715,8.00000015 12,8.00000015 C12.552285,8.00000015 13,8.44771515 13,9.00000015 C13,9.00000015 13,9.00000015 13,9.00000015 L13,11.0000002 L15,11.0000002 L15,11.0000002 C15.5522849,11.0000002 16,11.4477152 16,12.0000002 C16,12.5522852 15.5522849,13.0000002 15,13.0000002 L15,13.0000002 Z" id="Fill" fill="#2876D3"></path>
    </g>
</svg>