<?xml version="1.0" encoding="UTF-8"?>
<svg width="24px" height="24px" viewBox="0 0 24 24" version="1.1" xmlns="http://www.w3.org/2000/svg" xmlns:xlink="http://www.w3.org/1999/xlink">
    <g id="Icon/Arrow-Circle-Up/Line" stroke="none" stroke-width="1" fill="none" fill-rule="evenodd">
        <polygon id="24pt-Bounding-Box" opacity="0" fill-rule="nonzero" points="0 0 24 0 24 24 0 24"></polygon>
        <path d="M11.9999996,2 L12.2799045,2.0038418 C17.6733312,2.15206821 21.9999996,6.57075806 21.9999996,12 L21.9999996,12 L21.9961578,12.279905 C21.8479314,17.6733316 17.4292419,22 11.9999996,22 C6.47714956,22 1.99999956,17.52285 1.99999956,12 C1.99999956,6.47715 6.47714956,2 11.9999996,2 L11.9999996,2 Z M11.9999997,4 C7.58171965,4 3.99999965,7.58172 3.99999965,12 C3.99999965,16.41828 7.58171965,20 11.9999997,20 L11.9999997,20 L12.2491791,19.9961932 C16.5521638,19.8645429 19.9999997,16.3349162 19.9999997,12 L19.9999997,12 L19.9961928,11.7508206 C19.8645426,7.44783584 16.3349159,4 11.9999997,4 Z M12.0000001,7.00000005 C12.1340481,7.00025775 12.2666761,7.02746355 12.3900001,7.08000005 L12.3900001,7.08000005 L12.5054598,7.13611892 C12.5797967,7.17835203 12.6485664,7.2300327 12.71,7.29000003 L12.71,7.29000003 L15.7099983,10.2900019 C15.711939,10.2919268 15.7138718,10.2938595 15.7157966,10.2958002 C16.1047164,10.6879202 16.1021204,11.3210802 15.7099984,11.7100002 L15.7099984,11.7100002 C15.31208,12.1047182 14.67892,12.1021222 14.29,11.7100002 L14.29,11.7100002 L13,10.4100002 L13,16 C13,16.5522852 12.552285,17 12,17 C11.447715,17 11.0000001,16.5522852 11,16 L11,16 L11,10.3400001 L9.69000003,11.5700001 C9.28959003,11.9510761 8.65607603,11.9354061 8.27500003,11.5350001 C7.89392403,11.1345901 7.90959403,10.5010761 8.31000003,10.1200001 L8.31000003,10.1200001 L11.31,7.2600001 C11.35089,7.226616 11.3943592,7.1965219 11.44,7.1700001 L11.44,7.1700001 L11.499502,7.12690615 C11.5405574,7.10025542 11.5842774,7.07782564 11.6300001,7.06000004 L11.6300001,7.06000004 L11.7175908,7.02984012 C11.7769801,7.01307739 11.838168,7.00304519 11.9000001,7.00000005 L11.9000001,7.00000005 Z" id="Fill" fill="#2876D3"></path>
    </g>
</svg>
