<?xml version="1.0" encoding="UTF-8"?>
<svg width="24px" height="24px" viewBox="0 0 24 24" version="1.1" xmlns="http://www.w3.org/2000/svg" xmlns:xlink="http://www.w3.org/1999/xlink">
    <g id="Icon/Chevron-Right" stroke="none" stroke-width="1" fill="none" fill-rule="evenodd">
        <polygon id="24pt-Bounding-Box" opacity="0" fill-rule="nonzero" points="0 0 24 0 24 24 0 24"></polygon>
        <path d="M10.5,17.0000167 L10.5,17.0000167 C10.234197,17.0015368 9.97871898,16.897187 9.78999998,16.71 L9.79,16.71 C9.397878,16.32108 9.395282,15.68792 9.78420163,15.2958 C9.78612647,15.2938593 9.78805926,15.2919265 9.78999995,15.2900017 L13.1,12.0000017 L9.91999995,8.6900017 L9.91999997,8.69000172 C9.53227597,8.29996472 9.53227597,7.67004172 9.91999994,7.28000172 L9.91999991,7.28000175 C10.3089199,6.88787975 10.9420799,6.88528375 11.3341999,7.27420336 C11.3361406,7.2761282 11.3380734,7.27806099 11.3399982,7.28000168 L15.1999982,11.2800017 L15.1999982,11.2800017 C15.5811412,11.6688457 15.5811412,12.2911617 15.1999982,12.6800017 L11.1999982,16.6800017 L11.1999982,16.6800017 C11.0187032,16.8757877 10.7666802,16.9909987 10.4999982,17.0000167 L10.5,17.0000167 Z" id="Fill" fill="#2876D3"></path>
    </g>
</svg>
