<?xml version="1.0" encoding="UTF-8"?>
<svg width="24px" height="24px" viewBox="0 0 24 24" version="1.1" xmlns="http://www.w3.org/2000/svg" xmlns:xlink="http://www.w3.org/1999/xlink">
    <g id="Icon/Calendar/Line-Grey" stroke="none" stroke-width="1" fill="none" fill-rule="evenodd">
        <polygon id="24pt-Bounding-Box" opacity="0" fill-rule="nonzero" points="0 0 24 0 24 24 0 24"></polygon>
        <path d="M19.1383304,2.14624506 C20.6380238,2.14624506 21.8537549,3.36187034 21.8537549,4.86151304 L21.8537549,4.86151304 L21.8537549,19.138487 C21.8537549,20.6381297 20.6380238,21.8537549 19.1383304,21.8537549 L19.1383304,21.8537549 L4.86166957,21.8537549 C3.3619939,21.8537549 2.14624506,20.6381473 2.14624506,19.1385652 L2.14624506,19.1385652 L2.14624506,4.86151304 C2.14624506,3.36187034 3.36197625,2.14624506 4.86166957,2.14624506 L4.86166957,2.14624506 Z M20.1462451,8.85324506 L3.85324506,8.85324506 L3.85375494,19.1385652 C3.85375494,19.6579708 4.24682312,20.0856204 4.7518405,20.1403319 L4.86166957,20.1462451 L19.1383304,20.1462451 C19.6950254,20.1462451 20.1462451,19.6950647 20.1462451,19.138487 L20.1462451,19.138487 L20.1462451,8.85324506 Z M13.6736971,10.1462451 L11.081,13.655 L11.1974771,13.6960613 C12.2697962,14.1050507 12.9276288,14.9955206 12.8474613,16.3184763 L12.8298608,16.5201572 C12.658659,18.031162 11.5448593,18.8763388 10.1326368,18.8533064 C8.99682545,18.8347821 7.8507987,18.2540079 7.32065758,17.3619328 L7.23362398,17.2013273 L8.76637602,16.4488241 C8.94224606,16.8070487 9.55704573,17.136182 10.1604814,17.1460236 C10.7416821,17.1555026 11.0674473,16.9083044 11.1332063,16.327924 C11.2054996,15.6898511 11.0045141,15.4238701 10.5071041,15.2626555 C10.2759219,15.1877275 10.0209726,15.1551583 9.79562346,15.1513686 L9.61378798,15.1546918 L7.73126846,15.3165215 L10.288,11.853 L8.225086,11.8537549 L8.225086,10.1462451 L13.6736971,10.1462451 Z M16.8537549,9.85283292 L16.8537549,18 L15.1462451,18 L15.146,12.147 L14.2451159,12.4172551 L13.7548841,10.7816321 L16.8537549,9.85283292 Z M19.1383304,3.85375494 L4.86166957,3.85375494 C4.30497462,3.85375494 3.85375494,4.30493531 3.85375494,4.86151304 L3.85375494,4.86151304 L3.85324506,7.14624506 L20.1462451,7.14624506 L20.1462451,4.86151304 C20.1462451,4.34204049 19.7531826,3.91438076 19.2481606,3.85966822 L19.1383304,3.85375494 Z" id="Fill" fill="#A7A9AC"></path>
    </g>
</svg>
