<?xml version="1.0" encoding="UTF-8"?>
<svg width="24px" height="24px" viewBox="0 0 24 24" version="1.1" xmlns="http://www.w3.org/2000/svg" xmlns:xlink="http://www.w3.org/1999/xlink">
    <g id="Icon/Chevron-Left" stroke="none" stroke-width="1" fill="none" fill-rule="evenodd">
        <polygon id="24pt-Bounding-Box" opacity="0" fill-rule="nonzero" points="0 0 24 0 24 24 0 24"></polygon>
        <path d="M13.36,17 L13.36,17 C13.087812,16.9989613 12.827809,16.887015 12.64,16.69 L8.78000003,12.69 L8.78,12.69 C8.398857,12.301156 8.398857,11.67884 8.78000006,11.29 L12.7800001,7.28999997 L12.7800001,7.28999997 C13.1721221,6.89787797 13.8078801,6.89787797 14.2000001,7.28999996 C14.5921221,7.68212196 14.5921221,8.31787996 14.2000001,8.70999996 L10.9000001,12 L14.0800001,15.3 L14.0800001,15.3 C14.4677241,15.690037 14.4677241,16.31996 14.0800001,16.71 L14.08,16.71 C13.888837,16.899668 13.629257,17.004221 13.36,17 L13.36,17 Z" id="Fill" fill="#2876D3"></path>
    </g>
</svg>
