<?xml version="1.0" encoding="UTF-8"?>
<svg width="24px" height="24px" viewBox="0 0 24 24" version="1.1" xmlns="http://www.w3.org/2000/svg" xmlns:xlink="http://www.w3.org/1999/xlink">
    <title>Icon/Arrow Circle Left/Fill</title>
    <g id="Icon/Arrow-Circle-Left/Fill" stroke="none" stroke-width="1" fill="none" fill-rule="evenodd">
        <polygon id="24pt-Bounding-Box" opacity="0" fill-rule="nonzero" transform="translate(12.000000, 12.000000) rotate(90.000000) translate(-12.000000, -12.000000) " points="0 0 24 0 24 24 0 24"></polygon>
        <path d="M22,12 L22,12 C22,6.47715 17.52285,2 12,2 C6.47715,2 2,6.47715 2,12 C2,17.52285 6.47715,22 12,22 L12,22 C17.5228496,22 22,17.52285 22,12 L22,12 Z M10.14,15.69 L7.28,12.69 L7.28000003,12.69 C7.23767653,12.646615 7.20376953,12.5957544 7.18000003,12.54 L7.18,12.54 C7.1375353,12.4929485 7.1036853,12.438789 7.08,12.38 L7.08000002,12.38 C6.97302302,12.13796 6.97302302,11.86204 7.07999999,11.62 L7.08,11.62 C7.1275944,11.497249 7.198959,11.385104 7.29,11.29 L10.29,8.29000002 L10.29,8.29000002 C10.682122,7.89787802 11.31788,7.89787802 11.71,8.29000001 C12.102122,8.68212201 12.102122,9.31788001 11.71,9.71000001 L10.41,11 L16,11 L16,11 C16.552285,11 17,11.447715 17,12 C17,12.552285 16.552285,13 16,13 L10.34,13 L11.59,14.31 L11.59,14.3100001 C11.971076,14.7104061 11.955406,15.3439201 11.5549999,15.7250001 C11.1545939,16.1060761 10.5210799,16.0904061 10.1399999,15.69 L10.14,15.69 Z" id="Fill" fill="#2876D3"></path>
    </g>
</svg>