<?xml version="1.0" encoding="UTF-8"?>
<svg width="24px" height="24px" viewBox="0 0 24 24" version="1.1" xmlns="http://www.w3.org/2000/svg" xmlns:xlink="http://www.w3.org/1999/xlink">
    <g id="Icon/Calendar/Fill" stroke="none" stroke-width="1" fill="none" fill-rule="evenodd">
        <polygon id="24pt-Bounding-Box" opacity="0" fill-rule="nonzero" points="0 0 24 0 24 24 0 24"></polygon>
        <path d="M21.853,8.85324506 L21.8537549,19.138487 C21.8537549,20.5825873 20.7264102,21.763319 19.3037471,21.8487997 L19.1383304,21.8537549 L4.86166957,21.8537549 C3.41753744,21.8537549 2.23669,20.7265248 2.1512008,19.3039695 L2.14624506,19.1385652 L2.146,8.85324506 L21.853,8.85324506 Z M13.6736971,10.1462451 L8.225086,10.1462451 L8.225086,11.8537549 L10.288,11.853 L7.73126846,15.3165215 L9.61378798,15.1546918 L9.79562346,15.1513686 C10.0209726,15.1551583 10.2759219,15.1877275 10.5071041,15.2626555 C11.0045141,15.4238701 11.2054996,15.6898511 11.1332063,16.327924 C11.0674473,16.9083044 10.7416821,17.1555026 10.1604814,17.1460236 C9.55704573,17.136182 8.94224606,16.8070487 8.76637602,16.4488241 L8.76637602,16.4488241 L7.23362398,17.2013273 L7.32065758,17.3619328 C7.8507987,18.2540079 8.99682545,18.8347821 10.1326368,18.8533064 C11.5448593,18.8763388 12.658659,18.031162 12.8298608,16.5201572 L12.8298608,16.5201572 L12.8474613,16.3184763 C12.9276288,14.9955206 12.2697962,14.1050507 11.1974771,13.6960613 L11.1974771,13.6960613 L11.081,13.655 L13.6736971,10.1462451 Z M16.8537549,9.85283292 L13.7548841,10.7816321 L14.2451159,12.4172551 L15.146,12.147 L15.1462451,18 L16.8537549,18 L16.8537549,9.85283292 Z M19.1383304,2.14624506 C20.5824796,2.14624506 21.7633113,3.27349155 21.8487993,4.6961022 L21.8537549,4.86151304 L21.853,7.14624506 L2.146,7.14624506 L2.14624506,4.86151304 C2.14624506,3.41741266 3.27358976,2.23668098 4.69625288,2.1512003 L4.86166957,2.14624506 L19.1383304,2.14624506 Z" id="Fill" fill="#2876D3"></path>
    </g>
</svg>
