<?xml version="1.0" encoding="UTF-8"?>
<svg width="24px" height="24px" viewBox="0 0 24 24" version="1.1" xmlns="http://www.w3.org/2000/svg" xmlns:xlink="http://www.w3.org/1999/xlink">
    <g id="Icon/Invoice/Line" stroke="none" stroke-width="1" fill="none" fill-rule="evenodd">
        <polygon id="24pt-Bounding-Box" opacity="0" fill-rule="nonzero" points="0 0 24 0 24 24 0 24"></polygon>
        <path d="M9.33634548,16 C10.6266735,16 11.672691,17.0460175 11.672691,18.3363455 C11.672691,19.6266735 10.6266735,20.672691 9.33634548,20.672691 C8.0460175,20.672691 7,19.6266735 7,18.3363455 C7,17.0460175 8.0460175,16 9.33634548,16 Z M17.3363455,16 C18.6266735,16 19.672691,17.0460175 19.672691,18.3363455 C19.672691,19.6266735 18.6266735,20.672691 17.3363455,20.672691 C16.0460175,20.672691 15,19.6266735 15,18.3363455 C15,17.0460175 16.0460175,16 17.3363455,16 Z M17.3363455,17.672691 C16.9698192,17.672691 16.672691,17.9698192 16.672691,18.3363455 C16.672691,18.7028718 16.9698192,19 17.3363455,19 C17.7028718,19 18,18.7028718 18,18.3363455 C18,17.9698192 17.7028718,17.672691 17.3363455,17.672691 Z M9.33634548,17.672691 C8.96981921,17.672691 8.67269097,17.9698192 8.67269097,18.3363455 C8.67269097,18.7028718 8.96981921,19 9.33634548,19 C9.70287175,19 10,18.7028718 10,18.3363455 C10,17.9698192 9.70287175,17.672691 9.33634548,17.672691 Z M6.12704505,3 C6.48055392,3 6.79119378,3.22140261 6.91119474,3.54536312 L6.94393165,3.65698537 L8.99534548,12.9993455 L18.6493455,12.9993455 L20.0155484,6.01626205 C20.0973804,5.59781861 20.4780322,5.31374376 20.8926533,5.34224263 L20.996863,5.35598243 C21.4153064,5.43781446 21.6993813,5.81846621 21.6708824,6.23308733 L21.6571426,6.33729704 L20.1592154,13.996863 C20.0894214,14.3537507 19.7987702,14.6202872 19.4459656,14.6657989 L19.3384183,14.672691 L8.32270006,14.672691 C7.9691912,14.672691 7.65855134,14.4512884 7.53855038,14.1273278 L7.50581346,14.0157056 L5.45334548,4.67234548 L2.83634548,4.67269096 C2.40997546,4.67269096 2.05812436,4.35363755 2.00651632,3.94125488 L2,3.83634548 C2,3.40997546 2.31905341,3.05812436 2.73143608,3.00651632 L2.83634548,3 L6.12704505,3 Z M13.75,4 L13.9496404,4.0048953 C16.0660325,4.10892107 17.75,5.85780381 17.75,8 L17.75,8 L17.7451047,8.19964043 C17.6410789,10.3160325 15.8921964,12 13.75,12 C11.54086,12 9.75,10.20914 9.75,8 C9.75,5.79086 11.54086,4 13.75,4 L13.75,4 Z M15.3940001,6.46799997 C15.2172689,6.33324237 14.9647577,6.36726877 14.8300001,6.54399997 L14.8300001,6.54399997 L13.3180002,8.54399996 L12.6660002,7.71199996 C12.5301362,7.53747796 12.2785222,7.50613796 12.1040002,7.64199996 C11.9294782,7.77786396 11.8981382,8.02947796 12.0340002,8.20399996 L12.0340002,8.20399996 L13.0100002,9.448 C13.086329,9.5445968 13.2028882,9.60066318 13.3260002,9.60000582 L13.3260002,9.60000582 L13.3991533,9.59308218 C13.4948259,9.57504115 13.5815864,9.52247904 13.6420002,9.444 L13.6420002,9.444 L15.4700002,7.044 L15.4700001,7.03199998 L15.4700001,7.03199998 L15.5126734,6.96255158 C15.5940214,6.79398087 15.5486399,6.58591287 15.3940001,6.46799997 Z" id="Fill" fill="#2876D3"></path>
    </g>
</svg>
