<?xml version="1.0" encoding="UTF-8"?>
<svg width="24px" height="24px" viewBox="0 0 24 24" version="1.1" xmlns="http://www.w3.org/2000/svg" xmlns:xlink="http://www.w3.org/1999/xlink">
    <g id="Icon/File-Type-ZIP/Line" stroke="none" stroke-width="1" fill="none" fill-rule="evenodd">
        <polygon id="24pt-Bounding-Box" opacity="0" fill-rule="nonzero" points="0 0 24 0 24 24 0 24"></polygon>
        <path d="M21.74,8.33 L16.3,2.33 L16.3,2.33000001 C16.110941,2.12052101 15.842178,2.00066701 15.56,1.99981627 L8.56000001,1.99981627 L8.55999996,1.99981627 C7.16281996,1.98333441 6.01666996,3.10246001 5.99999568,4.49964001 C5.99999568,4.49975859 5.99999568,4.49987716 5.99999568,4.49999574 L5.99999568,19.4999957 L5.99999568,19.4999903 C6.01646188,20.8971703 7.16245568,22.0164703 8.55963568,22.0001799 C8.55975423,22.0001799 8.55987279,22.0001799 8.55999134,22.0001799 L19.4399913,22.0001799 L19.4399912,22.0001799 C20.8371712,22.0166647 21.9833212,20.897536 21.9999957,19.500356 C21.9999957,19.5002356 21.9999957,19.5001152 21.9999957,19.4999947 L21.9999957,8.99999473 L21.9999957,8.99999864 C21.9993495,8.75216264 21.906695,8.51339664 21.7399985,8.32999764 L21.74,8.33 Z M19.65,9 L15.71,9 L15.71,9 C15.281099,8.9577648 14.965193,8.579568 15,8.15 L15,4 L15.11,4 L19.65,9 Z M19.44,20 L8.56,20 L8.56000002,20 C8.26778402,20.0170102 8.01710602,19.793912 8.00000005,19.501695 C8.00000005,19.5011299 8.00000005,19.5005648 8.00000005,19.4999996 L8.00000005,4.4999996 L8.00000005,4.49999966 C8.01607385,4.20773066 8.26603505,3.98382966 8.55830505,3.99990366 C8.55887024,3.99993474 8.55943537,3.99996673 8.56000045,3.99999962 L13.0000001,3.99999962 L13.0000001,8.14999962 L13.0000001,8.15000203 C12.9663973,9.68340203 14.1768504,10.956392 15.7100004,11.000002 L20.0000001,11.000002 L20.0000001,19.500002 L20.0000001,19.5000019 C19.9839266,19.7922709 19.7339654,20.0161719 19.4416954,20.0000979 C19.4411302,20.0000669 19.4405651,20.0000349 19.44,20.000002 L19.44,20 Z" id="Fill" fill="#808285"></path>
        <rect id="Rectangle" fill="#70AE76" x="1" y="5" width="12" height="7" rx="2"></rect>
        <path d="M6.432,9.832 L6.432,9.24 L5.024,9.24 L6.404,7.548 L6.404,7 L4.232,7 L4.232,7.58 L5.548,7.58 L4.2,9.24 L4.2,9.832 L6.432,9.832 Z M7.2973336,9.832 L7.2973336,7 L6.6093336,7 L6.6093336,9.832 L7.2973336,9.832 Z M8.2986672,9.832 L8.2986672,8.764 L8.6386672,8.764 C8.78533387,8.764 8.9266672,8.748 9.0626672,8.716 C9.1986672,8.684 9.3186672,8.63333333 9.4226672,8.564 C9.5266672,8.49466667 9.60933387,8.40333333 9.6706672,8.29 C9.73200053,8.17666667 9.7626672,8.03733333 9.7626672,7.872 C9.7626672,7.70933333 9.73400053,7.57266667 9.6766672,7.462 C9.61933387,7.35133333 9.5406672,7.262 9.4406672,7.194 C9.3406672,7.126 9.22333387,7.07666667 9.0886672,7.046 C8.95400053,7.01533333 8.80933387,7 8.6546672,7 L8.6546672,7 L7.6146672,7 L7.6146672,9.832 L8.2986672,9.832 Z M8.5866672,8.22 L8.2986672,8.22 L8.2986672,7.552 L8.5986672,7.552 C8.66000053,7.552 8.71933387,7.556 8.7766672,7.564 C8.83400053,7.572 8.88533387,7.588 8.9306672,7.612 C8.97600053,7.636 9.01200053,7.66933333 9.0386672,7.712 C9.06533387,7.75466667 9.0786672,7.80933333 9.0786672,7.876 C9.0786672,7.94266667 9.06533387,7.998 9.0386672,8.042 C9.01200053,8.086 8.97533387,8.12133333 8.9286672,8.148 C8.88200053,8.17466667 8.82933387,8.19333333 8.7706672,8.204 C8.71200053,8.21466667 8.6506672,8.22 8.5866672,8.22 L8.5866672,8.22 Z" id="ZIP" fill="#FFFFFF" fill-rule="nonzero"></path>
    </g>
</svg>
