<?xml version="1.0" encoding="UTF-8"?>
<svg width="24px" height="24px" viewBox="0 0 24 24" version="1.1" xmlns="http://www.w3.org/2000/svg" xmlns:xlink="http://www.w3.org/1999/xlink">
    <g id="Icon/Edit/Line" stroke="none" stroke-width="1" fill="none" fill-rule="evenodd">
        <polygon id="24pt-Bounding-Box" opacity="0" fill-rule="nonzero" points="0 0 24 0 24 24 0 24"></polygon>
        <path d="M19.4,7.34 L16.66,4.6 L16.66,4.6 C15.919724,3.904654 14.77582,3.874551 14,4.53 L5,13.53 L4.99999993,13.5300001 C4.67676593,13.8559651 4.47550493,14.2832041 4.42999993,14.7400001 L3.99999993,18.9100001 L3.99999989,18.9100006 C3.97272609,19.2065456 4.07903709,19.4998166 4.28999989,19.7100006 L4.28999985,19.7100005 C4.47871885,19.8971865 4.73419685,20.0015365 4.99999985,20.0000173 L5.08999985,20.0000173 L9.25999985,19.6200005 L9.25999989,19.6200005 C9.71679589,19.5744959 10.1440349,19.3732345 10.4699999,19.0500005 L19.4699999,10.0500005 L19.47,10.0500005 C20.19729,9.28166245 20.165986,8.06977045 19.3999998,7.34000045 L19.4,7.34 Z M9.08,17.62 L6.08,17.9 L6.35,14.9 L12,9.32 L14.7,12.02 L9.08,17.62 Z M16,10.68 L13.32,8 L15.27,6 L18,8.73 L16,10.68 Z" id="Fill" fill="#2876D3"></path>
    </g>
</svg>
