<?xml version="1.0" encoding="UTF-8"?>
<svg width="24px" height="24px" viewBox="0 0 24 24" version="1.1" xmlns="http://www.w3.org/2000/svg" xmlns:xlink="http://www.w3.org/1999/xlink">
    <title>Icon/Arrow Down/Fill</title>
    <g id="Icon/Arrow-Down/Fill" stroke="none" stroke-width="1" fill="none" fill-rule="evenodd">
        <polygon id="24pt-Bounding-Box" opacity="0" fill-rule="nonzero" transform="translate(12.000000, 12.000000) rotate(-90.000000) translate(-12.000000, -12.000000) " points="0 0 24 0 24 24 0 24"></polygon>
        <path d="M12,16.9999998 L12,16.9999998 C11.483012,16.9973929 10.99462,16.762376 10.67,16.36 L6.46000005,11.26 L6.45999989,11.2599998 C5.95807889,10.6335688 5.85716589,9.7758098 6.19999989,9.0499998 L6.19999988,9.04999981 C6.47832888,8.41856181 7.09998788,8.00802981 7.78999988,7.9999998 L16.2099999,7.9999998 L16.2099998,7.9999998 C16.9000118,8.00803241 17.5216698,8.4185618 17.7999998,9.0499998 L17.7999999,9.04999988 C18.1428339,9.77581388 18.0419209,10.6335699 17.5399999,11.2599999 L13.3299999,16.3599999 L13.3299999,16.3599998 C13.0053819,16.7623758 12.5169879,16.9973928 11.9999999,16.9999998 L12,16.9999998 Z" id="Fill" fill="#2876D3"></path>
    </g>
</svg>