<?xml version="1.0" encoding="UTF-8"?>
<svg width="24px" height="24px" viewBox="0 0 24 24" version="1.1" xmlns="http://www.w3.org/2000/svg" xmlns:xlink="http://www.w3.org/1999/xlink">
    <title>Icon/Hard Drive/Fill</title>
    <g id="Icon/Hard-Drive/Fill" stroke="none" stroke-width="1" fill="none" fill-rule="evenodd">
        <polygon id="24pt-Bounding-Box" opacity="0" fill-rule="nonzero" points="0 0 24 0 24 24 0 24"></polygon>
        <path d="M20.79,11.34 L17.45,4.66 L17.45,4.66000007 C16.941203,3.64084007 15.8991,2.99776007 14.76,2.99999423 L9.24000003,2.99999423 L9.23999998,2.99999423 C8.10089998,2.99776146 7.05879998,3.64084207 6.54999998,4.66000007 L3.20999998,11.3400001 L3.20999989,11.3400003 C3.07069589,11.6194913 2.99877589,11.9277193 2.99998452,12.2400003 L2.99998452,17.9999942 L2.99998452,17.9999942 C2.99998452,19.6568507 4.34314989,20.9999942 5.99999989,20.9999942 L17.9999999,20.9999942 L17.9999998,20.9999942 C19.6568498,20.9999942 21.0000151,19.6568507 21.0000151,17.9999942 L21.0000151,12.2400007 L21.0000151,12.2400067 C21.0012243,11.9277257 20.9293053,11.6194977 20.7900027,11.3400057 L20.79,11.34 Z M7.99999996,17 L7.99999996,17 C7.44771496,17 6.99999996,16.552285 6.99999996,16 C6.99999996,15.447715 7.44771496,15 7.99999996,15 C8.55228496,15 8.99999996,15.447715 8.99999996,16 L8.99999996,16 C8.99999996,16.552285 8.55228496,17 7.99999996,17 L7.99999996,17 Z M16,17 L12,17 L12,17 C11.447715,17 11,16.552285 11,16 C11,15.447715 11.447715,15 12,15 L16,15 L16,15 C16.552285,15 17,15.447715 17,16 C17,16.552285 16.552285,17 16,17 L16,17 Z M5.62,11.0000001 L8.34,5.55 L8.33999996,5.55000008 C8.51106496,5.21049608 8.85984296,4.99735408 9.23999996,4.99997572 L14.76,4.99997572 L14.76,4.99997572 C15.140157,4.99735443 15.488934,5.21049608 15.66,5.55000008 L18.38,11.0000001 L5.62,11.0000001 Z" id="Fill" fill="#2876D3"></path>
    </g>
</svg>