<?xml version="1.0" encoding="UTF-8"?>
<svg width="24px" height="24px" viewBox="0 0 24 24" version="1.1" xmlns="http://www.w3.org/2000/svg" xmlns:xlink="http://www.w3.org/1999/xlink">
    <g id="Icon/Arrow-iOS-Forward" stroke="none" stroke-width="1" fill="none" fill-rule="evenodd">
        <polygon id="24pt-Bounding-Box" opacity="0" fill-rule="nonzero" transform="translate(12.000000, 12.000000) rotate(-90.000000) translate(-12.000000, -12.000000) " points="0 0 24 0 24 24 0 24"></polygon>
        <path d="M10,19 L9.99999998,19 C9.76634798,19.0004565 9.53991198,18.9190811 9.35999998,18.77 L9.35999988,18.7699999 C8.93482988,18.4175099 8.87591188,17.7870919 9.22840188,17.3619199 C9.22893374,17.3612784 9.22946642,17.3606375 9.22999989,17.3599973 L13.7099999,11.9999973 L9.38999989,6.62999731 L9.38999983,6.62999724 C9.04184183,6.20127324 9.10715283,5.57148724 9.53587683,5.22332724 C9.53724825,5.22221353 9.53862263,5.22110346 9.53999993,5.21999704 L9.53999991,5.21999706 C9.95463491,4.85517306 10.5865099,4.89555206 10.9513299,5.31018706 C10.9683145,5.32949066 10.9845484,5.34944216 10.9999952,5.36999706 L15.8299952,11.3699971 L15.8299952,11.3699971 C16.1333122,11.7389991 16.1333122,12.2709951 15.8299952,12.6399971 L10.8299952,18.6399971 L10.8299952,18.6399971 C10.6265322,18.8854431 10.3182302,19.0191651 9.99999522,18.9999971 L10,19 Z" id="Fill" fill="#2876D3"></path>
    </g>
</svg>
