<?xml version="1.0" encoding="UTF-8"?>
<svg width="24px" height="24px" viewBox="0 0 24 24" version="1.1" xmlns="http://www.w3.org/2000/svg" xmlns:xlink="http://www.w3.org/1999/xlink">
    <defs>
        <path d="M12,22 C17.5228475,22 22,17.5228475 22,12 C22,6.4771525 17.5228475,2 12,2 C6.4771525,2 2,6.4771525 2,12 C2,17.5228475 6.4771525,22 12,22 Z M12,16.8571429 C14.6825259,16.8571429 16.8571429,14.6825259 16.8571429,12 C16.8571429,9.31747407 14.6825259,7.14285714 12,7.14285714 C9.31747407,7.14285714 7.14285714,9.31747407 7.14285714,12 C7.14285714,14.6825259 9.31747407,16.8571429 12,16.8571429 Z M6.64761589,16.923921 C7.08412226,16.4926112 7.78762629,16.4968238 8.21893612,16.9333302 C9.12820695,17.8535561 10.3652848,18.3174603 12,18.3174603 C13.6347152,18.3174603 14.871793,17.8535561 15.7810639,16.9333302 C16.2123737,16.4968238 16.9158777,16.4926112 17.3523841,16.923921 C17.7888905,17.3552309 17.7931031,18.0587349 17.3617933,18.4952413 C16.0125608,19.8607296 14.2020196,20.5396825 12,20.5396825 C9.79798039,20.5396825 7.98743916,19.8607296 6.63820673,18.4952413 C6.2068969,18.0587349 6.21110952,17.3552309 6.64761589,16.923921 Z" id="path-1"></path>
    </defs>
    <g id="Icon/History/Worker-Accepted" stroke="none" stroke-width="1" fill="none" fill-rule="evenodd">
        <polygon id="24pt-Bounding-Box" opacity="0" fill-rule="nonzero" points="0 0 24 0 24 24 0 24"></polygon>
        <mask id="mask-2" fill="white">
            <use xlink:href="#path-1"></use>
        </mask>
        <use id="Fill" fill="#ACE35B" xlink:href="#path-1"></use>
    </g>
</svg>
