<?xml version="1.0" encoding="UTF-8"?>
<svg width="24px" height="24px" viewBox="0 0 24 24" version="1.1" xmlns="http://www.w3.org/2000/svg" xmlns:xlink="http://www.w3.org/1999/xlink">
    <g id="Icon/Refresh" stroke="none" stroke-width="1" fill="none" fill-rule="evenodd">
        <polygon id="24pt-Bounding-Box" opacity="0" fill-rule="nonzero" points="0 0 24 0 24 24 0 24"></polygon>
        <path d="M20.3,13.43 L20.3,13.43 C19.775525,13.266537 19.21739,13.556766 19.05,14.08 L19.05,14.08 C18.080433,17.0445 15.29881,19.03658 12.18,19 L12.1799997,19 C8.26638966,19.0444844 5.05486966,15.91348 5.00000005,12 L5.00000005,11.9999984 C5.05487258,8.08651841 8.26638968,4.95551841 12.1799997,4.99999841 L12.1799997,4.99999841 C13.8775797,4.99589838 15.5229097,5.58680541 16.8299997,6.66999841 L14.6599997,6.30999841 L14.6599997,6.30999842 C14.1150427,6.22033012 13.6005797,6.58941442 13.5109097,7.13437142 C13.5106012,7.13624622 13.5102981,7.1381219 13.5100003,7.13999843 L13.5100003,7.13999829 C13.4203319,7.68495529 13.7894163,8.19941829 14.3343733,8.28908829 C14.3362481,8.28939678 14.3381238,8.28969992 14.3400003,8.28999771 L18.5800003,8.98999771 L18.7500003,8.98999771 L18.7500003,8.98999771 C18.8659553,8.98986131 18.9810023,8.96955881 19.0900003,8.92999781 L19.0900003,8.92999781 C19.1266312,8.91609291 19.1604932,8.89577581 19.1900003,8.86999781 L19.1900003,8.86999782 C19.2617003,8.84333672 19.3290883,8.80627332 19.3900003,8.75999782 L19.4800003,8.64999782 C19.4800003,8.59999782 19.5700003,8.55999782 19.6100003,8.49999782 C19.6500003,8.43999782 19.6100003,8.39999782 19.6600003,8.35999782 L19.6600003,8.35999782 C19.6876327,8.30175962 19.7110268,8.24160382 19.7300003,8.17999782 L20.4800003,4.17999782 L20.4800003,4.17999758 C20.5849343,3.62771258 20.2222843,3.09492758 19.6700003,2.98999758 C19.1177153,2.88506358 18.5849303,3.24771358 18.4800003,3.79999758 L18.2100003,5.24999758 L18.2100004,5.2499976 C16.5359904,3.7992376 14.3951804,3.0004276 12.1800004,2.9999976 L12.1800001,2.9999976 C7.16186005,2.9555797 3.05495005,6.9819676 3.00000005,11.9999976 L3.00000005,12.0000058 C3.05495464,17.0180358 7.16187014,21.0444158 12.1800101,20.9999958 L12.1800104,20.9999958 C16.1897604,21.0616025 19.7692704,18.4966958 21.0000001,14.6799958 L21.0000001,14.6799956 C21.1568874,14.1504626 20.8547994,13.5940056 20.3252664,13.4371256 C20.3168758,13.4346396 20.3084529,13.4322639 20.2999999,13.4299991 L20.3,13.43 Z" id="Fill" fill="#2876D3"></path>
    </g>
</svg>