<?xml version="1.0" encoding="UTF-8"?>
<svg width="24px" height="24px" viewBox="0 0 24 24" version="1.1" xmlns="http://www.w3.org/2000/svg" xmlns:xlink="http://www.w3.org/1999/xlink">
    <g id="Icon/Bell/Line" stroke="none" stroke-width="1" fill="none" fill-rule="evenodd">
        <polygon id="24pt-Bounding-Box" opacity="0" fill-rule="nonzero" points="0 0 24 0 24 24 0 24"></polygon>
        <path d="M20.52,15.21 L18.72,13.4 L18.72,8.94 L18.7200002,8.93998295 C18.7695107,5.51532295 16.2854602,2.57887295 12.8999802,2.05999295 L12.8999804,2.05999296 C9.20945035,1.57397596 5.82368035,4.17175296 5.33767035,7.86228296 C5.29978335,8.14997596 5.28051475,8.43981496 5.27998505,8.72999096 L5.27998505,13.399991 L3.47998505,15.209991 L3.4799849,15.2099911 C2.8448419,15.8557241 2.8534269,16.8940811 3.4991594,17.5292211 C3.8036364,17.8287051 4.2129294,17.9976011 4.6399994,17.9999931 L7.9999994,17.9999931 L7.9999994,18.3399931 L7.99999934,18.3399916 C8.09725004,20.4536716 9.88601934,22.0903916 11.9999993,21.9999916 L11.9999994,21.9999916 C14.1139794,22.0903907 15.9027494,20.4536716 15.9999994,18.3399916 L15.9999994,17.9999916 L19.3599994,17.9999916 L19.3599995,17.9999916 C20.2657325,17.9949078 20.9958495,17.2565446 20.9907958,16.3508116 C20.9883724,15.9237476 20.8194775,15.5144626 20.5200005,15.2099916 L20.52,15.21 Z M13.9999999,18.34 L13.9999999,18.3400003 C13.884784,19.3392823 13.003405,20.0708303 11.9999999,20.0000003 L11.9999999,20.0000003 C10.9965899,20.0708269 10.1152199,19.3392823 9.99999987,18.3400003 L9.99999987,18.0000003 L13.9999999,18.0000003 L13.9999999,18.34 Z M5.51,16 L6.69,14.82 L6.68999996,14.82 C7.06803896,14.444204 7.28042196,13.933045 7.27999996,13.4 L7.27999996,8.73000004 L7.27999983,8.73016729 C7.28105367,7.36535729 7.87158683,6.06751729 8.89986983,5.17010729 L8.89986944,5.17010764 C9.91469944,4.25053864 11.2820294,3.82276764 12.6399994,3.99999764 L12.6399996,3.99999767 C15.0311296,4.38824267 16.7712496,6.47809767 16.7199996,8.89999767 L16.7199996,13.3999977 L16.7199996,13.4000057 C16.7169282,13.9316117 16.9256306,14.4425657 17.3000056,14.8200057 L18.4900056,16 L5.51,16 Z" id="Fill" fill="#2876D3"></path>
    </g>
</svg>
