<?xml version="1.0" encoding="UTF-8"?>
<svg width="24px" height="24px" viewBox="0 0 24 24" version="1.1" xmlns="http://www.w3.org/2000/svg" xmlns:xlink="http://www.w3.org/1999/xlink">
    <g id="Icon/Download" stroke="none" stroke-width="1" fill="none" fill-rule="evenodd">
        <polygon id="24pt-Bounding-Box" opacity="0" fill-rule="nonzero" points="0 0 24 0 24 24 0 24"></polygon>
        <path d="M19,16 C19.55228,16 20,16.44772 20,17 L20,19 C20,19.5128314 19.6139557,19.9355065 19.1166202,19.9932722 L19,20 L5,20 C4.44772,20 4,19.55228 4,19 L4,17 C4,16.4871686 4.38604429,16.0644935 4.88337975,16.0067278 L5,16 C5.55228,16 6,16.44772 6,17 L6,17.9990002 L18,17.9990002 L18,17 C18,16.4871686 18.3860443,16.0644935 18.8833798,16.0067278 L19,16 Z M12.999,12.0070002 L15.4000046,10.1999999 C15.8418326,9.86862891 16.4686346,9.95817191 16.8000046,10.3999999 C17.1313756,10.8418279 17.0418326,11.4686299 16.6000046,11.7999999 L12.6000046,14.7999999 C12.4615278,14.9038575 12.2990907,14.9695615 12.1288735,14.9916888 L12,15.0000289 C11.792682,15.0015747 11.59,14.9386733 11.42,14.82 L7.42000013,12.0000001 C7.00570936,11.7061081 6.88245452,11.1542218 7.11453892,10.7167648 L7.18000011,10.6100001 C7.49693811,10.1577071 8.12052311,10.0479801 8.57282011,10.3649181 C8.57522239,10.3666015 8.57761726,10.3682954 8.58000464,10.3699998 L11.003,12.0620002 L11,12.0000002 L11,12.0000002 L11,4.00000015 C11,3.44771515 11.447715,3.00000015 12,3.00000015 C12.512836,3.00000015 12.9355072,3.38604013 12.9932722,3.88337898 L13,4.00000015 L13,4.00000015 L12.999,12.0070002 Z" id="Fill" fill="#2876D3"></path>
    </g>
</svg>
