<?xml version="1.0" encoding="UTF-8"?>
<svg width="24px" height="24px" viewBox="0 0 24 24" version="1.1" xmlns="http://www.w3.org/2000/svg" xmlns:xlink="http://www.w3.org/1999/xlink">
    <g id="Icon/Star/Line" stroke="none" stroke-width="1" fill="none" fill-rule="evenodd">
        <polygon id="24pt-Bounding-Box" opacity="0" fill-rule="nonzero" points="0 0 24 0 24 24 0 24"></polygon>
        <path d="M17.56,21 L17.5599999,21 C17.4000769,21.0006435 17.2423319,20.9629218 17.0999999,20.89 L11.9999999,18.22 L6.89999994,20.89 L6.9,20.89 C6.411177,21.147042 5.80653,20.9591458 5.54949,20.470323 C5.446173,20.273842 5.41117,20.048568 5.4499976,19.83 L6.4499976,14.2 L2.3299976,10.2 L2.32999765,10.2 C2.06805365,9.93860103 1.97188165,9.55391403 2.07999765,9.20000003 L2.07999761,9.20000015 C2.19824161,8.83742215 2.51242061,8.57366715 2.88999761,8.52000015 L8.58999761,7.69000015 L11.0999976,2.56000015 L11.0999976,2.56000014 C11.3407326,2.06294414 11.9388316,1.85515514 12.4358876,2.09589014 C12.6384006,2.19397174 12.8019166,2.35748714 12.8999976,2.56000014 L15.4399976,7.68000014 L21.1399976,8.51000014 L21.1399977,8.51000015 C21.5175747,8.56366705 21.8317537,8.82742215 21.9499977,9.19000015 L21.9499977,9.19000014 C22.0581137,9.54391414 21.9619415,9.92860114 21.6999977,10.1900001 L17.5799977,14.1900001 L18.5799977,19.8200001 L18.5799977,19.8200002 C18.6528906,20.2027972 18.4967802,20.5930732 18.1799977,20.8200002 L18.1799977,20.8200002 C17.9989157,20.9468972 17.7808817,21.0101972 17.5599977,21.0000002 L17.56,21 Z M12,16.1 L12,16.1 C12.160299,16.0959525 12.318873,16.1338723 12.46,16.21 L16.23,18.21 L15.51,14 L15.5099999,13.9999997 C15.4532795,13.6736117 15.5618812,13.3403167 15.7999999,13.1099997 L18.7999999,10.1799997 L14.5999999,9.5599997 L14.5999999,9.55999969 C14.2876309,9.49710969 14.0239319,9.28912169 13.8899999,8.99999969 L11.9999999,5.24999969 L10.1099999,8.99999969 L10.11,8.9999996 C9.96315898,9.2916546 9.68316998,9.4932456 9.35999998,9.5399996 L5.15999998,10.1599996 L8.15999998,13.0899996 L8.15999998,13.0899996 C8.39811899,13.3203166 8.50671999,13.6536116 8.44999999,13.9799996 L7.72999999,18.1399996 L11.5,16.1399996 L11.5,16.1399996 C11.659745,16.0806121 11.832846,16.066764 12,16.0999996 L12,16.1 Z" id="Fill" fill="#2876D3"></path>
    </g>
</svg>
