<?xml version="1.0" encoding="UTF-8"?>
<svg width="24px" height="24px" viewBox="0 0 24 24" version="1.1" xmlns="http://www.w3.org/2000/svg" xmlns:xlink="http://www.w3.org/1999/xlink">
    <title>Icon/More Vertical</title>
    <g id="Icon/More-Vertical" stroke="none" stroke-width="1" fill="none" fill-rule="evenodd">
        <polygon id="24pt-Bounding-Box" opacity="0" fill-rule="nonzero" points="0 0 24 0 24 24 0 24"></polygon>
        <path d="M13.4142,17.5858 C14.195249,18.366849 14.195249,19.63318 13.4142,20.41423 C12.633151,21.195279 11.36682,21.195279 10.58577,20.41423 C9.804721,19.633181 9.804721,18.36685 10.58577,17.5858 C11.366819,16.804751 12.63315,16.804751 13.4142,17.5858 Z M13.4142,10.5858 C14.195249,11.366849 14.195249,12.63318 13.4142,13.41423 C12.633151,14.195279 11.36682,14.195279 10.58577,13.41423 C9.804721,12.633181 9.804721,11.36685 10.58577,10.5858 C11.366819,9.804751 12.63315,9.804751 13.4142,10.5858 Z M13.4142,3.58579 C14.195249,4.366839 14.195249,5.63317 13.4142,6.41422 C12.633151,7.195269 11.36682,7.195269 10.58577,6.41422 C9.804721,5.633171 9.804721,4.36684 10.58577,3.58579 C11.366819,2.804741 12.63315,2.804741 13.4142,3.58579 Z" id="Fill" fill="#2876D3"></path>
    </g>
</svg>