<?xml version="1.0" encoding="UTF-8"?>
<svg width="24px" height="24px" viewBox="0 0 24 24" version="1.1" xmlns="http://www.w3.org/2000/svg" xmlns:xlink="http://www.w3.org/1999/xlink">
    <g id="Icon/Arrow-Upward" stroke="none" stroke-width="1" fill="none" fill-rule="evenodd">
        <polygon id="24pt-Bounding-Box" opacity="0" fill-rule="nonzero" transform="translate(12.000000, 12.000000) rotate(180.000000) translate(-12.000000, -12.000000) " points="-1.77635684e-15 1.77635684e-15 24 1.77635684e-15 24 24 -1.77635684e-15 24"></polygon>
        <path d="M5.23,10.64 L5.22999993,10.6399999 C5.58248993,11.0651699 6.21290793,11.1240879 6.63807993,10.7715979 C6.63872146,10.771066 6.63936233,10.7705334 6.64000253,10.7699999 L11.0000025,7.13999992 L11.0000025,18.9999999 L11.0000025,19.0000001 C11.0000026,19.5522851 11.4477175,20.0000001 12.0000025,20.0000001 C12.5522875,20.0000001 13.0000025,19.5522851 13.0000025,19.0000001 L13.0000025,7.14000007 L17.3600025,10.7700001 L17.3600026,10.7700001 C17.7852616,11.1234621 18.4165426,11.0652591 18.7700026,10.6400001 C19.1234646,10.2147411 19.0652616,9.58346012 18.6400026,9.23000012 L12.6400026,4.23000012 L12.4900026,4.14000012 L12.3600026,4.07000012 L12.3600025,4.0700001 C12.1283275,3.9806032 11.8716775,3.9806032 11.6400025,4.07000008 L11.5100025,4.14000008 L11.3600025,4.23000008 L5.36000255,9.23000008 L5.36000244,9.23000018 C4.93483244,9.58249018 4.87591444,10.2129082 5.22840444,10.6380802 C5.22893631,10.6387217 5.22946898,10.6393626 5.23000245,10.6400028 L5.23,10.64 Z" id="Fill" fill="#2876D3"></path>
    </g>
</svg>
