<?xml version="1.0" encoding="UTF-8"?>
<svg width="24px" height="24px" viewBox="0 0 24 24" version="1.1" xmlns="http://www.w3.org/2000/svg" xmlns:xlink="http://www.w3.org/1999/xlink">
    <g id="Icon/Archive/Line" stroke="none" stroke-width="1" fill="none" fill-rule="evenodd">
        <polygon id="24pt-Bounding-Box" opacity="0" fill-rule="nonzero" points="1 0 25 0 25 24 1 24"></polygon>
        <path d="M18,3 C19.65685,3 21.0000049,4.34315 21.0000049,6 L21.0000049,6 L20.9914446,6.21103907 C20.9330337,6.98082829 20.5794703,7.70173086 20.0000049,8.22000044 L20.0000049,8.22000044 L20.0000049,18 C20.0000049,19.6568505 18.6568549,21 17.0000049,21 L17.0000049,21 L7.00000506,21 C5.34315506,21 4.00000531,19.6568505 4.00000506,18 L4.00000506,18 L4.00000506,8.22 C3.37900306,7.65558 3.02278871,6.856867 3.01776635,6.01771 C3.00801006,4.36088 4.34317006,3.00981006 6.00000006,3 L6.00000006,3 Z M18,9 L5.99999996,9 L5.99999996,18 L5.99999996,18 L6.00672768,18.1166212 C6.06449276,18.61396 6.48716388,19 6.99999996,19 L6.99999996,19 L17,19 C17.552285,19 18,18.552285 18,18 L18,18 L18,9 Z M14.13,12 C14.610484,12 15,12.389516 15,12.87 L15,13.13 C15,13.610484 14.610484,14 14.13,14 L9.87,14 C9.389516,14 9,13.610484 9,13.13 L9,12.87 C9,12.389516 9.389516,12 9.87,12 L14.13,12 Z M17.9999999,5 L5.99999991,5 C5.44771491,5 4.99999991,5.447715 4.99999991,6 C4.99999991,6.552285 5.44771491,7 5.99999991,7 L5.99999991,7 L17.9999999,7 C18.552285,7 18.9999999,6.552285 18.9999999,6 C18.9999999,5.447715 18.552285,5 17.9999999,5 L17.9999999,5 Z" id="Fill" fill="#2876D3"></path>
    </g>
</svg>
