<?xml version="1.0" encoding="UTF-8"?>
<svg width="24px" height="24px" viewBox="0 0 24 24" version="1.1" xmlns="http://www.w3.org/2000/svg" xmlns:xlink="http://www.w3.org/1999/xlink">
    <title>Icon/Phone/Fill</title>
    <g id="Icon/Phone/Fill" stroke="none" stroke-width="1" fill="none" fill-rule="evenodd">
        <polygon id="24pt-Bounding-Box" opacity="0" fill-rule="nonzero" points="0 0 24 0 24 24 0 24"></polygon>
        <path d="M17.4,22.0001782 L17.3999996,22.0001782 C8.89937955,21.9889814 2.01099955,15.10062 1.99999955,6.6 L1.99999955,6.59999975 C1.99999955,4.05948975 4.05948955,1.99988546 6.59999955,1.99988546 L6.59999956,1.99988546 C6.85834056,1.99803195 7.11624756,2.02147805 7.36999856,2.06999955 L7.36999882,2.06999959 C7.61530882,2.10629999 7.85646382,2.16658869 8.08999682,2.24999859 L8.08999674,2.24999857 C8.42418874,2.36725557 8.67142974,2.65253357 8.73999674,2.99999857 L10.1099967,8.99999857 L10.1099968,8.99999862 C10.1850286,9.33091562 10.0871362,9.67730362 9.84999676,9.91999862 C9.71999676,10.0599986 9.70999676,10.0699986 8.47999676,10.7099986 L8.47999678,10.7099987 C9.46499078,12.8708587 11.1931968,14.6061587 13.3499968,15.5999987 C13.9999996,14.3599987 14.0099968,14.3499987 14.1499968,14.2199987 L14.1499968,14.2199987 C14.3926918,13.9828597 14.7390798,13.8849667 15.0699968,13.9599987 L21.0699968,15.3299987 L21.0699968,15.3299987 C21.4060488,15.4079688 21.6781808,15.6536447 21.7899968,15.9799987 L21.7899967,15.9799985 C21.8743966,16.2173565 21.9379697,16.4616125 21.9799967,16.7099985 L21.9799969,16.7099994 C22.0202416,16.9613254 22.0403057,17.2154694 22.0400003,17.4699974 L22.0400003,17.469986 C22.0016166,19.998776 19.9289869,22.022276 17.4000069,22.0001782 L17.4,22.0001782 Z" id="Fill" fill="#2876D3"></path>
    </g>
</svg>