<?xml version="1.0" encoding="UTF-8"?>
<svg width="24px" height="24px" viewBox="0 0 24 24" version="1.1" xmlns="http://www.w3.org/2000/svg" xmlns:xlink="http://www.w3.org/1999/xlink">
    <g id="Icon/File-Type-Excel/Line" stroke="none" stroke-width="1" fill="none" fill-rule="evenodd">
        <polygon id="24pt-Bounding-Box" opacity="0" fill-rule="nonzero" points="0 0 24 0 24 24 0 24"></polygon>
        <path d="M21.74,8.33 L16.3,2.33 L16.3,2.33000001 C16.110941,2.12052101 15.842178,2.00066701 15.56,1.99981627 L8.56000001,1.99981627 L8.55999996,1.99981627 C7.16281996,1.98333441 6.01666996,3.10246001 5.99999568,4.49964001 C5.99999568,4.49975859 5.99999568,4.49987716 5.99999568,4.49999574 L5.99999568,19.4999957 L5.99999568,19.4999903 C6.01646188,20.8971703 7.16245568,22.0164703 8.55963568,22.0001799 C8.55975423,22.0001799 8.55987279,22.0001799 8.55999134,22.0001799 L19.4399913,22.0001799 L19.4399912,22.0001799 C20.8371712,22.0166647 21.9833212,20.897536 21.9999957,19.500356 C21.9999957,19.5002356 21.9999957,19.5001152 21.9999957,19.4999947 L21.9999957,8.99999473 L21.9999957,8.99999864 C21.9993495,8.75216264 21.906695,8.51339664 21.7399985,8.32999764 L21.74,8.33 Z M19.65,9 L15.71,9 L15.71,9 C15.281099,8.9577648 14.965193,8.579568 15,8.15 L15,4 L15.11,4 L19.65,9 Z M19.44,20 L8.56,20 L8.56000002,20 C8.26778402,20.0170102 8.01710602,19.793912 8.00000005,19.501695 C8.00000005,19.5011299 8.00000005,19.5005648 8.00000005,19.4999996 L8.00000005,4.4999996 L8.00000005,4.49999966 C8.01607385,4.20773066 8.26603505,3.98382966 8.55830505,3.99990366 C8.55887024,3.99993474 8.55943537,3.99996673 8.56000045,3.99999962 L13.0000001,3.99999962 L13.0000001,8.14999962 L13.0000001,8.15000203 C12.9663973,9.68340203 14.1768504,10.956392 15.7100004,11.000002 L20.0000001,11.000002 L20.0000001,19.500002 L20.0000001,19.5000019 C19.9839266,19.7922709 19.7339654,20.0161719 19.4416954,20.0000979 C19.4411302,20.0000669 19.4405651,20.0000349 19.44,20.000002 L19.44,20 Z" id="Fill"></path>
        <rect id="Rectangle" fill="#1CB751" x="1" y="5" width="12" height="7" rx="2"></rect>
        <path d="M4.416,9.904 L5.012,8.904 L5.632,9.904 L6.476,9.904 L5.452,8.408 L6.348,7.072 L5.552,7.072 L5.032,7.952 L4.504,7.072 L3.68,7.072 L4.592,8.408 L3.6,9.904 L4.416,9.904 Z M8.2533336,9.904 L8.2533336,9.308 L7.1573336,9.308 L7.1573336,7.072 L6.4693336,7.072 L6.4693336,9.904 L8.2533336,9.904 Z M9.1346672,9.976 C9.27333387,9.976 9.40800053,9.95733333 9.5386672,9.92 C9.66933387,9.88266667 9.78533387,9.82533333 9.8866672,9.748 C9.98800053,9.67066667 10.0686672,9.57266667 10.1286672,9.454 C10.1886672,9.33533333 10.2186672,9.19466667 10.2186672,9.032 C10.2186672,8.89066667 10.1906672,8.77266667 10.1346672,8.678 C10.0786672,8.58333333 10.0080005,8.504 9.9226672,8.44 C9.83733387,8.376 9.7426672,8.32466667 9.6386672,8.286 C9.5346672,8.24733333 9.4346672,8.212 9.3386672,8.18 C9.27200053,8.15866667 9.21200053,8.138 9.1586672,8.118 C9.10533387,8.098 9.05933387,8.076 9.0206672,8.052 C8.98200053,8.028 8.9526672,8 8.9326672,7.968 C8.9126672,7.936 8.9026672,7.896 8.9026672,7.848 C8.9026672,7.792 8.91533387,7.746 8.9406672,7.71 C8.96600053,7.674 8.99733387,7.64466667 9.0346672,7.622 C9.07200053,7.59933333 9.11400053,7.584 9.1606672,7.576 C9.20733387,7.568 9.25333387,7.564 9.2986672,7.564 C9.3866672,7.564 9.47800053,7.586 9.5726672,7.63 C9.66733387,7.674 9.74400053,7.73333333 9.8026672,7.808 L9.8026672,7.808 L10.2386672,7.348 C10.1133339,7.23333333 9.96733387,7.14666667 9.8006672,7.088 C9.63400053,7.02933333 9.4706672,7 9.3106672,7 C9.17733387,7 9.04533387,7.01666667 8.9146672,7.05 C8.78400053,7.08333333 8.6666672,7.136 8.5626672,7.208 C8.4586672,7.28 8.3746672,7.372 8.3106672,7.484 C8.2466672,7.596 8.2146672,7.73066667 8.2146672,7.888 C8.2146672,8.016 8.23533387,8.12466667 8.2766672,8.214 C8.31800053,8.30333333 8.3726672,8.37933333 8.4406672,8.442 C8.5086672,8.50466667 8.58600053,8.556 8.6726672,8.596 C8.75933387,8.636 8.84800053,8.67066667 8.9386672,8.7 C9.03200053,8.72933333 9.11533387,8.75666667 9.1886672,8.782 C9.26200053,8.80733333 9.32333387,8.83533333 9.3726672,8.866 C9.42200053,8.89666667 9.46000053,8.93066667 9.4866672,8.968 C9.51333387,9.00533333 9.5266672,9.05066667 9.5266672,9.104 C9.5266672,9.16 9.51600053,9.208 9.4946672,9.248 C9.47333387,9.288 9.4446672,9.32 9.4086672,9.344 C9.3726672,9.368 9.3306672,9.38533333 9.2826672,9.396 C9.2346672,9.40666667 9.18533387,9.412 9.1346672,9.412 C9.0226672,9.412 8.91000053,9.38333333 8.7966672,9.326 C8.68333387,9.26866667 8.59200053,9.19733333 8.5226672,9.112 L8.5226672,9.112 L8.0746672,9.568 C8.20000053,9.69866667 8.35733387,9.79933333 8.5466672,9.87 C8.73600053,9.94066667 8.93200053,9.976 9.1346672,9.976 Z" id="XLS" fill="#FFFFFF" fill-rule="nonzero"></path>
    </g>
</svg>
