<?xml version="1.0" encoding="UTF-8"?>
<svg width="24px" height="24px" viewBox="0 0 24 24" version="1.1" xmlns="http://www.w3.org/2000/svg" xmlns:xlink="http://www.w3.org/1999/xlink">
    <title>Icon/Person Add/Line</title>
    <g id="Icon/Person-Add/Line" stroke="none" stroke-width="1" fill="none" fill-rule="evenodd">
        <polygon id="24pt-Bounding-Box" opacity="0" fill-rule="nonzero" points="0 0 24 0 24 24 0 24"></polygon>
        <path d="M9.99999969,13 L10.2406493,13.004059 C13.9952132,13.1309015 16.9999997,16.2145525 16.9999997,20 L16.9999997,20 L16.993272,20.1166214 C16.9355069,20.6139609 16.5128358,21 15.9999997,21 C15.4477147,21 14.9999997,20.5522861 14.9999997,20 L14.9999997,20 L14.9953802,19.7831107 C14.8818176,17.1223111 12.6887507,15 9.99999969,15 C7.23857969,15 4.99999969,17.2385809 4.99999969,20 L4.99999969,20 L4.99327197,20.1166212 C4.93550689,20.6139602 4.51283577,21 3.99999969,21 C3.44771469,21 2.99999969,20.5522852 2.99999969,20 L2.99999969,20 L3.00405872,19.7593504 C3.13090114,16.0047865 6.21455115,13 9.99999969,13 L9.99999969,13 Z M9.99999983,3 C12.2091398,3 13.9999998,4.79086 13.9999998,7 C13.9999998,9.20914 12.2091398,11 9.99999983,11 L9.99999983,11 L9.8003594,10.9951047 C7.68396735,10.8910789 5.99999983,9.14219578 5.99999983,7 L5.99999983,7 L6.00489513,6.80035957 C6.10892089,4.68396753 7.85780346,3 9.99999983,3 Z M19,4 C19.552285,4 20,4.447715 20,5 L20,5 L20,6 L21,6 C21.5522849,6 22,6.44771515 22,7 C22,7.55228515 21.5522849,8 21,8 L21,8 L20,8 L20,9 C20,9.55228515 19.552285,10 19,10 C18.447715,10 18,9.55228515 18,9 L18,9 L18,8 L17,8 C16.447715,8 16,7.552285 16,7 C16,6.447715 16.447715,6 17,6 L17,6 L18,6 L18,5 C18,4.447715 18.447715,4 19,4 Z M9.99999991,5 L9.85073751,5.00548574 C8.81587725,5.08183486 7.99999991,5.94563802 7.99999991,7 L7.99999991,7 L8.00548565,7.14926241 C8.08183475,8.18412267 8.94563764,9 9.99999991,9 C11.1045699,9 11.9999999,8.10457 11.9999999,7 C11.9999999,5.89543 11.1045699,5 9.99999991,5 L9.99999991,5 Z" id="Fill" fill="#2876D3"></path>
    </g>
</svg>