<?xml version="1.0" encoding="UTF-8"?>
<svg width="24px" height="24px" viewBox="0 0 24 24" version="1.1" xmlns="http://www.w3.org/2000/svg" xmlns:xlink="http://www.w3.org/1999/xlink">
    <g id="Icon/Expand" stroke="none" stroke-width="1" fill="none" fill-rule="evenodd">
        <polygon id="24pt-Bounding-Box" opacity="0" fill-rule="nonzero" points="0 0 24 0 24 24 0 24"></polygon>
        <path d="M9.29579997,13.2842017 C9.68791997,12.895282 10.32108,12.897878 10.71,13.29 L10.71,13.29 C10.7119422,13.2919267 10.713875,13.2938594 10.7157998,13.2958001 C11.1047196,13.6879201 11.1021236,14.3210801 10.7100016,14.7100001 L10.7100016,14.7100001 L7.42000156,18.0000002 L10.0000016,18.0000002 C10.5522866,18.0000002 11.0000016,18.4477152 11.0000016,19.0000002 C11.0000016,19.5522852 10.5522866,20.0000002 10.0000016,20.0000002 L10.0000016,20.0000002 L5.00000161,20.0000002 C4.44771661,20.0000002 4.00000161,19.5522852 4.00000161,19.0000002 L4.00000161,19.0000002 L4.00000161,14 L4.00000161,14 L4.00672933,13.8833789 C4.06449441,13.38604 4.48716553,13.0000001 5.00000161,13 L5.00000161,13 L5.11662279,13.0067278 C5.61396167,13.0644928 6.00000161,13.487164 6.00000161,14 L6.00000161,14 L6.00000161,16.57 L9.29000165,13.29 C9.29192649,13.2880593 9.29385928,13.2861265 9.29579997,13.2842017 Z M19,4 C19.552285,4 20,4.447715 20,5 L20,5 L20,10 C20,10.5522835 19.5522832,11 18.9999982,11 L18.9999982,11 L18.883377,10.9932723 C18.3860382,10.935507 17.9999983,10.5128347 17.9999982,10 L17.9999982,10 L17.9999982,7.41999834 L14.7099982,10.7099983 C14.7080734,10.711939 14.7061406,10.7138718 14.7041999,10.7157967 C14.3120799,11.1047163 13.6789199,11.1021203 13.2899999,10.7099983 L13.2899999,10.7099983 C12.895282,10.31208 12.897878,9.67891998 13.29,9.28999998 L13.29,9.28999998 L16.57,6 L14,6 C13.447715,6 13,5.552285 13,5 C13,4.447715 13.447715,4 14,4 L14,4 Z" id="Fill" fill="#2876D3"></path>
    </g>
</svg>