<?xml version="1.0" encoding="UTF-8"?>
<svg width="24px" height="24px" viewBox="0 0 24 24" version="1.1" xmlns="http://www.w3.org/2000/svg" xmlns:xlink="http://www.w3.org/1999/xlink">
    <g id="Icon/Home/Fill" stroke="none" stroke-width="1" fill="none" fill-rule="evenodd">
        <polygon id="24pt-Bounding-Box" opacity="0" fill-rule="nonzero" points="0 0 24 0 24 24 0 24"></polygon>
        <path d="M11.0171934,2.87815377 C11.5000582,2.4411709 12.185455,2.38290652 12.7222762,2.70338395 L12.7222762,2.70338395 L12.861,2.798 L12.9091441,2.82296984 L12.9829458,2.87835109 L20.9878445,10.131187 C21.5980712,10.6831883 21.672706,11.644891 21.1595459,12.2933276 C20.9162116,12.6010846 20.5566635,12.7058216 20.1487236,12.6776672 L20.1487236,12.6776672 L19.97,12.656 L19.9705966,20.3434781 C19.9705966,20.9330309 19.5432119,21.4295442 18.9795453,21.4931258 L18.9795453,21.4931258 L18.8567798,21.5 L15.0347094,21.5 C14.758567,21.5 14.5347094,21.2761424 14.5347094,21 L14.5347094,21 L14.534,14.288 L9.465,14.288 L9.46529061,21 C9.46529061,21.2454599 9.28841544,21.4496084 9.05516624,21.4919443 L9.05516624,21.4919443 L8.96529061,21.5 L5.1432202,21.5 C4.52002361,21.5 4.02940341,20.9751419 4.02940341,20.3434781 L4.02940341,20.3434781 L4.029,12.656 L3.85126947,12.6776318 C3.48867128,12.7026518 3.16431258,12.6226969 2.92590041,12.3886296 L2.92590041,12.3886296 L2.84061777,12.2935344 C2.32728503,11.6450001 2.40192518,10.6831916 3.01185511,10.131459 L3.01185511,10.131459 Z" id="Fill" fill="#2876D3"></path>
    </g>
</svg>
