<?xml version="1.0" encoding="UTF-8"?>
<svg width="24px" height="24px" viewBox="0 0 24 24" version="1.1" xmlns="http://www.w3.org/2000/svg" xmlns:xlink="http://www.w3.org/1999/xlink">
    <g id="Icon/Copy/Fill" stroke="none" stroke-width="1" fill="none" fill-rule="evenodd">
        <polygon id="24pt-Bounding-Box" opacity="0" fill-rule="nonzero" points="0 0 24 0 24 24 0 24"></polygon>
        <path d="M18.0000001,8.99999548 L15.0000001,8.99999548 L15.0000001,5.67 L15.0000001,5.67001548 C14.994525,4.19769548 13.8023401,3.00549548 12.3300201,2.99999548 L5.67000006,2.99999548 L5.67000015,2.99999548 C4.19768015,3.005479 3.00548015,4.19767548 3.0000001,5.66999548 L3.0000001,12.3299955 L3.0000001,12.3299798 C3.005475,13.8022998 4.1976601,14.9944998 5.6699801,14.9999955 L9.0000001,14.9999955 L9.0000001,17.9999955 L9.0000001,17.9999955 C9.0000001,19.6568502 10.3431501,20.9999955 12.0000001,20.9999955 L18.0000001,20.9999955 L18.0000001,20.9999955 C19.65685,20.9999955 21.0000001,19.6568502 21.0000001,17.9999955 L21.0000001,11.9999955 L21.0000001,11.9999955 C21.0000001,10.3431502 19.65685,8.99999548 18.0000001,8.99999548 L18.0000001,8.99999548 Z M8.99999997,11.9999999 L8.99999997,12.9999999 L5.67,12.9999999 L5.66999997,12.9999999 C5.29996897,12.9999999 4.99999997,12.700031 4.99999997,12.33 L4.99999997,5.67 L4.99999997,5.6699999 C4.99999997,5.2999689 5.29996897,4.9999999 5.66999997,4.9999999 L12.33,4.9999999 L12.3299999,4.9999999 C12.7000309,4.9999999 13,5.2999689 13,5.6699999 L13,8.9999999 L12,8.9999999 L12,8.9999999 C10.3431498,8.9999999 8.99999997,10.3431499 8.99999997,11.9999999 C8.99999997,11.9999999 8.99999997,11.9999999 8.99999997,11.9999999 L8.99999997,11.9999999 Z" id="Fill" fill="#2876D3"></path>
    </g>
</svg>
