<?xml version="1.0" encoding="UTF-8"?>
<svg width="24px" height="24px" viewBox="0 0 24 24" version="1.1" xmlns="http://www.w3.org/2000/svg" xmlns:xlink="http://www.w3.org/1999/xlink">
    <g id="Icon/Chat/Line" stroke="none" stroke-width="1" fill="none" fill-rule="evenodd">
        <polygon id="24pt-Bounding-Box" opacity="0" fill-rule="nonzero" points="0 0 24 0 24 24 0 24"></polygon>
        <path d="M7.83333333,21.1205509 C7.83333333,21.8198459 8.57145856,22.2384991 9.12551381,21.8534557 L13.9167525,18.5237608 L14.0833333,18.5237608 C18.4532645,18.5237608 22,14.8265289 22,10.2618804 C22,5.69723191 18.4532645,2 14.0833333,2 L9.91666667,2 C5.54673553,2 2,5.69723191 2,10.2618804 C2,14.0315922 4.43689355,17.2642522 7.83333333,18.2274905 L7.83333333,21.1205509 Z M9.505,17.3886952 C9.505,16.9744422 9.22113998,16.6199594 8.83173029,16.5479199 C5.93556988,16.0121398 3.8,13.399731 3.8,10.3265879 C3.8,6.83491013 6.53507266,4 9.9125,4 L13.9875,4 C17.3649273,4 20.1,6.83491013 20.1,10.3265879 C20.1,13.8182656 17.3649273,16.6531757 13.9875,16.6531757 L13.58,16.6531757 C13.4204587,16.6531757 13.2644259,16.70223 13.1312475,16.7942565 L9.505,19.3 L9.505,17.3886952 Z" id="Fill" fill="#2876D3"></path>
    </g>
</svg>
