<?xml version="1.0" encoding="UTF-8"?>
<svg width="24px" height="24px" viewBox="0 0 24 24" version="1.1" xmlns="http://www.w3.org/2000/svg" xmlns:xlink="http://www.w3.org/1999/xlink">
    <title>Icon/Folder/Fill</title>
    <g id="Icon/Folder/Fill" stroke="none" stroke-width="1" fill="none" fill-rule="evenodd">
        <polygon id="24pt-Bounding-Box" opacity="0" fill-rule="nonzero" points="0 0 24 0 24 24 0 24"></polygon>
        <path d="M19.5,20.5 L4.49999998,20.5 L4.49999998,20.5 C3.13967008,20.5167003 2.02193008,19.43026 1.99999998,18.07 L1.99999998,5.93 L1.99999998,5.93000601 C2.02192558,4.56974601 3.13965998,3.48330601 4.49998998,3.49999601 L9.09998998,3.49999601 L9.09999004,3.49999601 C9.39907304,3.50197387 9.68157004,3.63771901 9.86999004,3.86999601 L12.46999,7.04999601 L19.46999,7.04999601 L19.4699901,7.04999601 C20.8337301,7.01668331 21.9662601,8.09520601 21.9995701,9.45894601 C21.9997415,9.46596361 22,9.47298191 22,9.48000071 L22,18.0700007 L22,18.0699945 C21.9780693,19.4302545 20.8603347,20.5166945 19.5,20.5000045 L19.5,20.5 Z" id="Fill" fill="#2876D3"></path>
    </g>
</svg>