<?xml version="1.0" encoding="UTF-8"?>
<svg width="24px" height="24px" viewBox="0 0 24 24" version="1.1" xmlns="http://www.w3.org/2000/svg" xmlns:xlink="http://www.w3.org/1999/xlink">
    <title>Icon/Clock/Fill</title>
    <g id="Icon/Clock/Fill" stroke="none" stroke-width="1" fill="none" fill-rule="evenodd">
        <polygon id="24pt-Bounding-Box" opacity="0" fill-rule="nonzero" points="0 0 24 0 24 24 0 24"></polygon>
        <path d="M11.9999996,2 L11.9999996,2 C6.47714956,2 1.99999956,6.47715 1.99999956,12 C1.99999956,17.52285 6.47714956,22 11.9999996,22 C17.5228496,22 21.9999996,17.52285 21.9999996,12 L21.9999996,12 C21.9999996,6.47715044 17.5228496,2 11.9999996,2 L11.9999996,2 Z M16,13.0000002 L12,13.0000002 L12,13.0000002 C11.447715,13.0000002 11,12.552285 11,12.0000002 C11,12.0000002 11,12.0000002 11,12.0000002 L11,8.00000015 L11,8.00000015 C11,7.44771515 11.447715,7.00000015 12,7.00000015 C12.552285,7.00000015 13,7.44771515 13,8.00000015 C13,8.00000015 13,8.00000015 13,8.00000015 L13,11.0000002 L16,11.0000002 L16,11.0000002 C16.5522849,11.0000002 17,11.4477152 17,12.0000002 C17,12.5522852 16.5522849,13.0000002 16,13.0000002 L16,13.0000002 Z" id="Fill" fill="#2876D3"></path>
    </g>
</svg>