<?xml version="1.0" encoding="UTF-8"?>
<svg width="50px" height="50px" viewBox="0 0 50 50" version="1.1" xmlns="http://www.w3.org/2000/svg" xmlns:xlink="http://www.w3.org/1999/xlink">
    <title>Icon/Contingent Circle</title>
    <g id="Icon/Contingent-Circle" stroke="none" stroke-width="1" fill="none" fill-rule="evenodd">
        <polygon id="Bounding-Box" opacity="0" fill-rule="nonzero" transform="translate(25.000000, 25.000000) rotate(90.000000) translate(-25.000000, -25.000000) " points="3.70035655e-15 1.07814799e-12 50 1.0796225e-12 50 50 4.27440974e-15 50"></polygon>
        <path d="M40.7670391,9.03207387 C41.2804602,9.51074845 41.3086278,10.3150009 40.8299532,10.828422 C40.3512786,11.341843 39.5470262,11.3700106 39.0336051,10.891336 C30.990028,3.3921192 18.3908384,3.83209259 10.8901515,11.8739429 C3.39094951,19.9175041 3.83097957,32.5183163 11.8728536,40.0174852 C19.9164645,47.5182737 32.5155122,47.0783053 40.0163007,39.0346944 C46.3092868,32.286293 47.1076186,22.1517297 42.1153815,14.5429012 C41.7303103,13.9560019 41.8939243,13.1680642 42.4808236,12.782993 C43.0677229,12.3979219 43.8556606,12.5615359 44.2407318,13.1484352 C49.8720179,21.7312587 48.9718763,33.1582639 41.8753853,40.7683188 C33.4171424,49.8386738 19.2095841,50.3348127 10.1392292,41.8765698 C1.0706428,33.4199762 0.574447265,19.2107952 9.03106696,10.1403184 C17.4893522,1.07178046 31.6967686,0.575646545 40.7670391,9.03207387 Z M16.7502486,35.5959384 C21.5619034,40.4062874 29.3451804,40.4062874 34.1568352,35.5959384 C34.6532545,35.0996538 35.4580001,35.099763 35.9542847,35.5961823 C36.4505693,36.0926016 36.4504601,36.8973471 35.9540408,37.3936317 C30.1497379,43.1963595 20.757346,43.1963595 14.9530431,37.3936317 C14.4566238,36.8973471 14.4565146,36.0926016 14.9527992,35.5961823 C15.4490838,35.099763 16.2538293,35.0996538 16.7502486,35.5959384 Z M21.4298121,29.8283648 C23.6538918,32.0524445 27.2525142,32.0524445 29.4765939,29.8283648 C29.9729459,29.3320128 30.7776914,29.3320128 31.2740434,29.8283648 C31.7703953,30.3247168 31.7703953,31.1294623 31.2740434,31.6258143 C28.0572597,34.8425979 22.8491463,34.8425979 19.6323626,31.6258143 C19.1360107,31.1294623 19.1360107,30.3247168 19.6323626,29.8283648 C20.1287146,29.3320128 20.9334602,29.3320128 21.4298121,29.8283648 Z M25.4530499,23.3365076 C26.6234371,23.3365076 27.5718565,24.2854342 27.5718565,25.4553142 C27.5718565,26.6251942 26.6234371,27.5741208 25.4530499,27.5741208 C24.283393,27.5741208 23.3352274,26.6249406 23.3352274,25.4553142 C23.3352274,24.2856878 24.283393,23.3365076 25.4530499,23.3365076 Z M25.4530499,25.0311592 C25.2197292,25.0311592 25.029879,25.2212125 25.029879,25.4553142 C25.029879,25.6894158 25.2197292,25.8794691 25.4530499,25.8794691 C25.687304,25.8794691 25.8772048,25.6894667 25.8772048,25.4553142 C25.8772048,25.2211616 25.687304,25.0311592 25.4530499,25.0311592 Z M31.2747212,19.28383 C31.7710732,19.7801819 31.7710732,20.5849275 31.2747212,21.0812794 C30.7783693,21.5776314 29.9736237,21.5776314 29.4772717,21.0812794 C27.253192,18.8571997 23.6545697,18.8571997 21.43049,21.0812794 C20.934138,21.5776314 20.1293925,21.5776314 19.6330405,21.0812794 C19.1366885,20.5849275 19.1366885,19.7801819 19.6330405,19.28383 C22.8498242,16.0670463 28.0579376,16.0670463 31.2747212,19.28383 Z M35.9540408,13.5160125 C36.4504601,14.0122971 36.4505693,14.8170426 35.9542847,15.313462 C35.4580001,15.8098813 34.6532545,15.8099905 34.1568352,15.3137059 C29.3451804,10.5033568 21.5619034,10.5033568 16.7502486,15.3137059 C16.2538293,15.8099905 15.4490838,15.8098813 14.9527992,15.313462 C14.4565146,14.8170426 14.4566238,14.0122971 14.9530431,13.5160125 C20.757346,7.71328472 30.1497379,7.71328472 35.9540408,13.5160125 Z" id="Fill" fill="#58595B" transform="translate(25.454431, 25.455000) scale(1, -1) rotate(-90.000000) translate(-25.454431, -25.455000) "></path>
    </g>
</svg>