<?xml version="1.0" encoding="UTF-8"?>
<svg width="24px" height="24px" viewBox="0 0 24 24" version="1.1" xmlns="http://www.w3.org/2000/svg" xmlns:xlink="http://www.w3.org/1999/xlink">
    <g id="Icon/History/Message" stroke="none" stroke-width="1" fill="none" fill-rule="evenodd">
        <polygon id="24pt-Bounding-Box" opacity="0" fill-rule="nonzero" points="0 0 24 0 24 24 0 24"></polygon>
        <path d="M19.07,4.93 L19.0700006,4.93000057 C15.1774906,1.01207057 8.84590056,0.991470567 4.92790056,4.88397997 C2.01509056,7.77788997 1.16728056,12.15825 2.78996056,15.92998 L2.78996056,15.92998 C2.88585096,16.128743 2.91731356,16.352479 2.87996056,16.56998 L1.99995956,20.79998 L1.99995952,20.7999801 C1.93108852,21.1294221 2.03255772,21.4714101 2.26995952,21.7099801 L2.26995959,21.7099802 C2.46355259,21.9021692 2.72725659,22.0069282 2.99995959,21.9999802 L3.19995959,21.9999802 L7.47995959,21.1399802 L7.4799595,21.1399802 C7.6974895,21.1138264 7.9180795,21.1448469 8.1199595,21.2299801 L8.11995963,21.2299802 C13.1932296,23.4126002 19.0752596,21.0692652 21.2578596,15.9960002 C22.8805396,12.2242502 22.0327286,7.84389016 19.1199196,4.95000016 L19.07,4.93 Z M7.99999996,13 L7.99999996,13 C7.44771496,13 6.99999996,12.552285 6.99999996,12 C6.99999996,11.447715 7.44771496,11 7.99999996,11 C8.55228496,11 8.99999996,11.447715 8.99999996,12 L8.99999996,12 C8.99999996,12.552285 8.55228496,13 7.99999996,13 L7.99999996,13 Z M12,13 L12,13 C11.447715,13 11,12.552285 11,12 C11,11.447715 11.447715,11 12,11 C12.552285,11 13,11.447715 13,12 L13,12 C13,12.552285 12.552285,13 12,13 L12,13 Z M16,13 L16,13 C15.447715,13 15,12.552285 15,12 C15,11.447715 15.447715,11 16,11 C16.552285,11 17,11.447715 17,12 L17,12 C17,12.552285 16.552285,13 16,13 L16,13 Z" id="Fill" fill="#689FE0"></path>
    </g>
</svg>
