<?xml version="1.0" encoding="UTF-8"?>
<svg width="50px" height="50px" viewBox="0 0 50 50" version="1.1" xmlns="http://www.w3.org/2000/svg" xmlns:xlink="http://www.w3.org/1999/xlink">
    <title>Icon/Jobs</title>
    <g id="Icon/Jobs" stroke="none" stroke-width="1" fill="none" fill-rule="evenodd">
        <polygon id="Bounding-Box" opacity="0" fill-rule="nonzero" transform="translate(25.000000, 25.000000) rotate(90.000000) translate(-25.000000, -25.000000) " points="3.70035655e-15 1.07814799e-12 50 1.0796225e-12 50 50 4.27440974e-15 50"></polygon>
        <path d="M47.4909065,29.8653571 C46.042875,37.4432691 40.600265,43.8315736 33.3383088,46.4953714 C29.982026,47.7249694 26.5345289,48.14418 23.1399225,47.7914693 C22.4416784,47.7189195 21.9344529,47.0940675 22.0070027,46.3958234 C22.0795526,45.6975793 22.7044045,45.1903538 23.4026487,45.2629037 C26.4147513,45.5758709 29.4732107,45.2039667 32.4633213,44.1085187 C38.8878781,41.7518918 43.7137773,36.0874561 44.9938933,29.3882885 C47.5955997,15.7686175 36.2670527,3.86484914 22.6340386,5.7371463 C13.9282362,6.93218517 6.90835497,13.9670232 5.73064929,22.6756792 C4.59178699,31.0952357 8.74872418,39.0483431 15.9635395,42.9647684 C17.0065136,43.5315293 18.2561423,43.4046425 19.116574,42.6639916 L19.2642535,42.5269335 L30.8955656,30.8956214 L30.9097174,30.8824653 L31.0889361,30.6975792 C33.8976935,27.6831512 33.8338581,22.9527131 30.8974299,20.0148622 C27.8940892,17.0115215 23.0179776,17.0115215 20.0148546,20.0146445 C17.0782135,22.9527084 17.0143734,27.6831511 19.8231308,30.6975792 L20.014637,30.8959603 L23.2635406,34.1448639 C23.7599317,34.6412551 23.7599317,35.4460642 23.2635406,35.9424553 C22.8002422,36.4057537 22.0682775,36.4366403 21.5691569,36.035115 L21.4659492,35.9424553 L18.2170456,32.6935517 C14.2226537,28.6991598 14.2226537,22.213598 18.2170456,18.2172708 C22.2131686,14.2211478 28.6988983,14.2211478 32.6952389,18.2174885 C36.6894132,22.213598 36.6894132,28.6991598 32.6950213,32.6935517 L32.6667174,32.7184653 L21.0618449,44.3245249 C19.3963976,45.9899721 16.8331884,46.3306193 14.7502341,45.1987244 C6.61851995,40.7845781 1.92934518,31.8131867 3.21140811,22.3349546 C4.54215333,12.4946332 12.4509868,4.56894881 22.2882358,3.21859714 C37.6421405,1.10996057 50.4192388,14.5358323 47.4909065,29.8653571 Z M25.4563724,21.2901372 C27.7565581,21.2901372 29.6221549,23.155734 29.6221549,25.4559197 C29.6221549,27.7561054 27.7565581,29.6217022 25.4563724,29.6217022 C23.154869,29.6217022 21.2888951,27.7564825 21.2888951,25.4559197 C21.2888951,23.1553569 23.154869,21.2901372 25.4563724,21.2901372 Z M25.4563724,23.8323153 C24.5586452,23.8323153 23.8310732,24.5595932 23.8310732,25.4559197 C23.8310732,26.3522462 24.5586452,27.0795241 25.4563724,27.0795241 C26.3525519,27.0795241 27.0799768,26.3520992 27.0799768,25.4559197 C27.0799768,24.5597402 26.3525519,23.8323153 25.4563724,23.8323153 Z" id="Fill" fill="#58595B"></path>
    </g>
</svg>