<?xml version="1.0" encoding="UTF-8"?>
<svg width="24px" height="24px" viewBox="0 0 24 24" version="1.1" xmlns="http://www.w3.org/2000/svg" xmlns:xlink="http://www.w3.org/1999/xlink">
    <g id="Icon/Dollar-Sign" stroke="none" stroke-width="1" fill="none" fill-rule="evenodd">
        <polygon id="24pt-Bounding-Box" opacity="0" fill-rule="nonzero" points="0 0 24 0 24 24 0 24"></polygon>
        <path d="M12.0000003,1 C12.5522851,1 13.0000003,1.41040565 13.0000003,1.91666667 L13.0000003,1.91666667 L13,4.666 L17,4.66666667 C17.5128358,4.66666667 17.9355072,5.02053684 17.9932723,5.47643064 L18,5.58333333 C18,6.08959435 17.5522847,6.5 17,6.5 L17,6.5 L13,6.5 L13,11.083 L14.5,11.0833333 C16.9121881,11.0833333 18.8810803,12.8231166 18.9948108,15.0084731 L19,15.2083333 C19,17.486511 16.9852847,19.3333333 14.5,19.3333333 L14.5,19.3333333 L13,19.333 L13.0000003,22.0833333 C13.0000003,22.5534329 12.6139601,22.9408816 12.1166214,22.9938329 L12.0000003,23 C11.4477156,23 11.0000003,22.5895944 11.0000003,22.0833333 L11.0000003,22.0833333 L11,19.333 L6,19.3333333 C5.48716416,19.3333333 5.06449284,18.9794632 5.00672773,18.5235694 L5,18.4166667 C5,17.9104056 5.44771525,17.5 6,17.5 L6,17.5 L11,17.5 L11,12.916 L9.5,12.9166667 C7.08781196,12.9166667 5.11891973,11.1768833 5.00518921,8.99152689 L5,8.79166667 C5,6.51348902 7.01471536,4.66666667 9.5,4.66666667 L9.5,4.66666667 L11,4.666 L11.0000003,1.91666667 C11.0000003,1.44656715 11.3860405,1.05911844 11.8833792,1.00616709 Z M13,17.5 L14.5,17.5 C15.8807153,17.5 17,16.473989 17,15.2083333 C17,13.9426777 15.8807153,12.9166667 14.5,12.9166667 L14.5,12.9166667 L13,12.916 L13,17.5 Z M11,11.083 L11,6.5 L9.5,6.5 C8.17681464,6.5 7.09372761,7.44229142 7.00576755,8.63476475 L7,8.79166667 C7,10.0573223 8.11928484,11.0833333 9.5,11.0833333 L9.5,11.0833333 L11,11.083 Z" id="Fill" fill="#2876D3"></path>
    </g>
</svg>