<?xml version="1.0" encoding="UTF-8"?>
<svg width="24px" height="24px" viewBox="0 0 24 24" version="1.1" xmlns="http://www.w3.org/2000/svg" xmlns:xlink="http://www.w3.org/1999/xlink">
    <title>Icon/Folder/Line</title>
    <g id="Icon/Folder/Line" stroke="none" stroke-width="1" fill="none" fill-rule="evenodd">
        <polygon id="24pt-Bounding-Box" opacity="0" fill-rule="nonzero" points="0 0 24 0 24 24 0 24"></polygon>
        <path d="M19.5,20.5 L4.49999998,20.5 L4.49999998,20.5 C3.13967008,20.5167003 2.02193008,19.43026 1.99999998,18.07 L1.99999998,5.93 L1.99999998,5.93000601 C2.02192558,4.56974601 3.13965998,3.48330601 4.49998998,3.49999601 L9.09998998,3.49999601 L9.09999004,3.49999601 C9.39907304,3.50197387 9.68157004,3.63771901 9.86999004,3.86999601 L12.46999,7.04999601 L19.46999,7.04999601 L19.4699901,7.04999601 C20.8337301,7.01668331 21.9662601,8.09520601 21.9995701,9.45894601 C21.9997415,9.46596361 22,9.47298191 22,9.48000071 L22,18.0700007 L22,18.0699945 C21.9780693,19.4302545 20.8603347,20.5166945 19.5,20.5000045 L19.5,20.5 Z M3.99999994,13.76 L3.99999994,18.07 L3.99999994,18.07 C4.0155641,18.323574 4.233743,18.516519 4.487317,18.500955 C4.49154877,18.5006952 4.49577676,18.500377 4.49999994,18.5000004 L19.4999999,18.5000004 L19.4999999,18.5000004 C19.7530467,18.522569 19.9764767,18.3357294 19.9990447,18.0826834 C19.9994213,18.0784604 19.9997395,18.0742324 19.9999999,18.0700007 L19.9999999,9.48000066 L19.9999999,9.48000072 C19.9844352,9.22642672 19.7662563,9.03348172 19.5126823,9.04904572 C19.5084505,9.04930546 19.5042225,9.04962369 19.4999999,9.05000033 L11.9999999,9.05000033 L11.9999999,9.05000033 C11.7009166,9.04802248 11.4184196,8.91227733 11.2299996,8.68000033 L8.62999957,5.50000033 L4.49999994,5.50000033 L4.49999994,5.50000033 C4.24695255,5.47743173 4.02352255,5.66427133 4.00095455,5.91731733 C4.00057792,5.92154031 4.00025968,5.92576829 3.99999994,5.93000003 L3.99999994,13.76 Z" id="Fill" fill="#2876D3"></path>
    </g>
</svg>