<?xml version="1.0" encoding="UTF-8"?>
<svg width="24px" height="24px" viewBox="0 0 24 24" version="1.1" xmlns="http://www.w3.org/2000/svg" xmlns:xlink="http://www.w3.org/1999/xlink">
    <title>Icon/Layout/Line</title>
    <g id="Icon/Layout/Line" stroke="none" stroke-width="1" fill="none" fill-rule="evenodd">
        <polygon id="24pt-Bounding-Box" opacity="0" fill-rule="nonzero" points="0 0 24 0 24 24 0 24"></polygon>
        <path d="M17.9999999,2.99999955 L5.99999987,2.99999955 L5.99999987,2.99999955 C4.34314987,2.99999955 2.99999987,4.34315 2.99999987,5.99999955 C2.99999987,5.99999955 2.99999987,5.99999955 2.99999987,5.99999955 L2.99999987,17.9999995 L2.99999987,17.9999995 C2.99999987,19.6568495 4.34314987,20.9999995 5.99999987,20.9999995 L17.9999999,20.9999995 L17.9999999,20.9999995 C19.6568497,20.9999995 20.9999999,19.6568495 20.9999999,17.9999995 L20.9999999,5.99999955 L20.9999999,5.99999955 C20.9999999,4.34314955 19.6568497,2.99999955 17.9999999,2.99999955 L17.9999999,2.99999955 Z M5.99999996,5 L18,5 L18,5 C18.552285,5 19,5.447715 19,6 L19,8 L4.99999996,8 L4.99999996,6 L4.99999996,6 C4.99999996,5.44771515 5.44771496,5 5.99999996,5 L5.99999996,5 Z M4.99999996,18 L4.99999996,10 L11,10 L11,19 L5.99999996,19 L5.99999996,19 C5.44771496,19 4.99999996,18.552285 4.99999996,18 C4.99999996,18 4.99999996,18 4.99999996,18 L4.99999996,18 Z M18,19 L13,19 L13,10 L19,10 L19,18 L19,18 C19,18.552285 18.552285,19 18,19 Z" id="Fill" fill="#2876D3"></path>
    </g>
</svg>