<?xml version="1.0" encoding="UTF-8"?>
<svg width="24px" height="24px" viewBox="0 0 24 24" version="1.1" xmlns="http://www.w3.org/2000/svg" xmlns:xlink="http://www.w3.org/1999/xlink">
    <g id="Icon/Arrow-iOS-Backward" stroke="none" stroke-width="1" fill="none" fill-rule="evenodd">
        <polygon id="24pt-Bounding-Box" opacity="0" fill-rule="nonzero" transform="translate(12.000000, 12.000000) rotate(90.000000) translate(-12.000000, -12.000000) " points="0 0 24 0 24 24 0 24"></polygon>
        <path d="M13.83,19.0000723 L13.83,19.0000723 C13.527412,19.0010289 13.24063,18.864991 13.05,18.63 L8.21999998,12.63 L8.21999994,12.63 C7.91668294,12.260998 7.91668294,11.729002 8.22000002,11.36 L13.22,5.35999995 L13.22,5.36000003 C13.573462,4.93474103 14.204741,4.87653803 14.63,5.23000003 C15.055259,5.58346203 15.113462,6.21474103 14.76,6.64000003 L10.29,12 L14.61,17.36 L14.61,17.36 C14.9635,17.78433 14.90608,18.41489 14.48175,18.76839 C14.298967,18.920663 14.067884,19.002783 13.83,19.0000723 L13.83,19.0000723 Z" id="Fill" fill="#2876D3"></path>
    </g>
</svg>
