<?xml version="1.0" encoding="UTF-8"?>
<svg width="24px" height="24px" viewBox="0 0 24 24" version="1.1" xmlns="http://www.w3.org/2000/svg" xmlns:xlink="http://www.w3.org/1999/xlink">
    <g id="Icon/Globe-2/Line" stroke="none" stroke-width="1" fill="none" fill-rule="evenodd">
        <polygon id="24pt-Bounding-Box" opacity="0" fill-rule="nonzero" points="0 0 24 0 24 24 0 24"></polygon>
        <path d="M11.9999996,2 L11.9999996,2 C6.47714956,2 1.99999956,6.47715 1.99999956,12 C1.99999956,17.52285 6.47714956,22 11.9999996,22 C17.5228496,22 21.9999996,17.52285 21.9999996,12 L21.9999996,12 C21.9999996,6.47715044 17.5228496,2 11.9999996,2 L11.9999996,2 Z M11.9999994,4 L11.9999994,4 C12.6025748,4.00393624 13.2028798,4.0743625 13.79,4.21 L13.79,4.20999971 C13.616171,4.60239271 13.348263,4.94586471 13.01,5.20999971 C12.79,5.37999971 12.55,5.51999971 12.31,5.66999971 L12.3099996,5.66999988 C11.5502226,6.04407788 10.9096296,6.62234388 10.4599996,7.33999988 L10.4599997,7.33999973 C9.9674307,8.36656973 9.7536077,9.50465973 9.8399997,10.6399997 C9.8399997,12 9.8399997,12.7999997 8.8899997,13.5099997 C7.5199997,14.5799997 5.4299997,13.9799997 4.1299997,13.4399997 L4.1299994,13.4399981 C4.0450123,12.9646751 4.0015154,12.4828631 3.9999994,12 L3.9999994,12 C3.9999994,7.5817293 7.5817194,4 11.9999994,4 L11.9999994,4 Z M4.99999964,15.8 L4.99999964,15.7999999 C5.65342964,15.9698579 6.32491964,16.0605089 6.99999964,16.0699999 L6.99999964,16.0699999 C8.12959941,16.1010713 9.23640941,15.7485839 10.1399994,15.0699999 C11.8499994,13.7299999 11.8499994,12.0099999 11.8499994,10.6299999 L11.8499992,10.6299978 C11.7741555,9.83128075 11.901431,9.02634775 12.2200002,8.28999775 L12.2200003,8.28999764 C12.5094103,7.89591564 12.8950193,7.58260864 13.3400003,7.37999764 L13.3400011,7.37999715 C13.6579411,7.19420115 13.9651001,6.99054115 14.2600011,6.76999715 L14.2600011,6.76999719 C14.8814541,6.27912219 15.3640211,5.63454719 15.6600011,4.89999719 L15.6600019,4.89999719 C17.0669519,5.61985763 18.2291719,6.74031763 18.9999996,8.11999763 C17.5700019,8.31999763 15.5400019,8.78999763 15.1400019,10.6499976 L15.1400017,10.6499989 C15.0497168,11.0944009 15.0028297,11.5465249 14.9999996,11.9999989 L14.9999996,11.9999993 C15.0323735,12.5068523 14.9324391,13.0134193 14.7100017,13.4699993 L14.6100017,13.6399993 C13.9600017,14.7199993 13.2300017,15.9499993 14.2200017,17.6399993 C14.3400017,17.8499993 14.4700017,18.0499993 14.6000017,18.2499993 L14.6000017,18.2499993 C14.8661497,18.5574453 15.0456317,18.9302153 15.1200017,19.3299993 L15.1200017,19.3299993 C14.1364937,19.7635123 13.0747817,19.9915083 11.9999996,19.9999993 L11.9999996,19.9999993 C9.07419177,19.985392 6.38974177,18.3747193 4.99999964,15.7999993 L4.99999964,15.8 Z M16.93,18.32 L16.93,18.32 C16.757016,17.92069 16.546046,17.538934 16.3,17.18 C16.19,17.02 16.08,16.86 15.98,16.69 C15.59,16.01 15.73,15.69 16.36,14.69 L16.46,14.52 L16.4599999,14.5200001 C16.8519059,13.7720731 17.0382519,12.9335201 16.9999999,12.0900001 L16.9999998,12.0899556 C16.9989969,11.7545546 17.029129,11.4197856 17.0900082,11.0899556 C17.2500082,10.3599556 18.8000082,10.1599556 19.7600082,10.0899556 L19.7600082,10.0899556 C20.5531712,13.1737456 19.4273552,16.4331056 16.9000082,18.3699556 L16.93,18.32 Z" id="Fill" fill="#2876D3"></path>
    </g>
</svg>