<?xml version="1.0" encoding="UTF-8"?>
<svg width="24px" height="24px" viewBox="0 0 24 24" version="1.1" xmlns="http://www.w3.org/2000/svg" xmlns:xlink="http://www.w3.org/1999/xlink">
    <defs>
        <path d="M22,22 L18,22 L18,15.001 C18,13.081 17.153,12.01 15.634,12.01 C13.981,12.01 13,13.126 13,15.001 L13,22 L9,22 L9,9 L13,9 L13,10.462 C13,10.462 14.255,8.26 17.083,8.26 C19.912,8.26 22,9.986 22,13.558 L22,22 L22,22 Z M4.442,6.921 C3.093,6.921 2,5.819 2,4.46 C2,3.102 3.093,2 4.442,2 C5.79,2 6.88300069,3.102 6.88300069,4.46 C6.884,5.819 5.79,6.921 4.442,6.921 L4.442,6.921 Z M2,22 L7,22 L7,9 L2,9 L2,22 Z" id="path-1"></path>
    </defs>
    <g id="Icon/--Brand/LinkedIn" stroke="none" stroke-width="1" fill="none" fill-rule="evenodd">
        <rect id="24pt-Bounding-Box" x="0" y="0" width="24" height="24"></rect>
        <mask id="mask-2" fill="white">
            <use xlink:href="#path-1"></use>
        </mask>
        <use id="Fill" fill="#2876D3" xlink:href="#path-1"></use>
    </g>
</svg>
