<?xml version="1.0" encoding="UTF-8"?>
<svg width="24px" height="24px" viewBox="0 0 24 24" version="1.1" xmlns="http://www.w3.org/2000/svg" xmlns:xlink="http://www.w3.org/1999/xlink">
    <title>Icon/Swap</title>
    <g id="Icon/Swap" stroke="none" stroke-width="1" fill="none" fill-rule="evenodd">
        <polygon id="24pt-Bounding-Box" opacity="0" fill-rule="nonzero" points="0 0 24 0 24 24 0 24"></polygon>
        <path d="M7.40000004,13.2 C7.84182804,12.868629 8.46862904,12.958172 8.80000004,13.4 C9.13137104,13.841828 9.04182804,14.468629 8.60000004,14.8 L8.60000004,14.8 L7,16 L20.0000002,16.0000009 C20.5522852,16.0000009 21.0000002,16.4477159 21.0000002,17.0000009 C21.0000002,17.5522859 20.5522852,18.0000009 20.0000002,18.0000009 L20.0000002,18.0000009 L6.9200002,18.0000009 L8.4900002,19.2100009 C8.9221032,19.5504709 8.9980632,20.1760149 8.6600002,20.6100009 L8.6600002,20.6100009 L8.57303604,20.708786 C8.38749846,20.8934696 8.13528332,20.9993632 7.87000018,21.0000009 L7.87000018,21.0000009 L7.73847251,20.9909016 C7.56484876,20.9673103 7.39964012,20.8983753 7.26000012,20.7900009 L7.26000012,20.7900009 L3.40000013,17.7900009 C3.32908113,17.7358879 3.26572213,17.6725284 3.21160913,17.6016099 C2.87658813,17.1625429 2.96093413,16.5350209 3.40000013,16.1999999 L3.40000013,16.1999999 Z M15.3349999,4.38499916 C15.6746599,3.94869416 16.3036949,3.87034416 16.7399999,4.20999916 L16.7399999,4.20999916 L20.5999999,7.20999914 C20.6709189,7.26411214 20.7342779,7.32747164 20.7883909,7.39839014 C21.1234119,7.83745714 21.0390659,8.46497914 20.5999999,8.80000014 L20.5999999,8.80000014 L16.5999999,11.8000001 C16.4269039,11.9298222 16.2163699,12.0000001 15.9999999,12.0000001 L15.9999999,12.0000001 L15.8830012,11.9931406 C15.612826,11.9613327 15.3652472,11.8203304 15.2,11.6000001 L15.2,11.6000001 L15.1309703,11.4949749 C14.8844893,11.0634892 14.9921587,10.505881 15.3999999,10.2000001 L15.3999999,10.2000001 L16.9999999,9 L3.99999989,8.99999916 C3.44771489,8.99999916 2.99999989,8.55228416 2.99999989,7.99999916 C2.99999989,7.44771416 3.44771489,6.99999918 3.99999989,6.99999916 L3.99999989,6.99999916 L17.0799999,6.99999916 L15.5099999,5.78999916 C15.0736949,5.45033916 14.9953449,4.82130416 15.3349999,4.38499916 Z" id="Fill" fill="#2876D3"></path>
    </g>
</svg>