<?xml version="1.0" encoding="UTF-8"?>
<svg width="24px" height="24px" viewBox="0 0 24 24" version="1.1" xmlns="http://www.w3.org/2000/svg" xmlns:xlink="http://www.w3.org/1999/xlink">
    <title>Icon/Price Tag/Line</title>
    <g id="Icon/Price-Tag/Line" stroke="none" stroke-width="1" fill="none" fill-rule="evenodd">
        <polygon id="24pt-Bounding-Box" opacity="0" fill-rule="nonzero" points="0 0 24 0 24 24 0 24"></polygon>
        <path d="M5.0899999,3.99999957 L14.44,4.87999957 C14.670813,4.90299417 14.886454,5.00551157 15.05,5.16999957 L21.47,11.5799996 C22.178179,12.2903086 22.178179,13.4396896 21.4699999,14.1499996 L14.15,21.4699996 C13.8523993,21.7661853 13.4629865,21.9490471 13.0488199,21.9908176 L12.8699999,22 C12.3871129,21.9994508 11.9237949,21.809095 11.5799999,21.47 L5.16999995,15.05 C5.00551195,14.886454 4.90299495,14.670813 4.87999995,14.44 L3.99999991,5.08999956 C3.97662236,4.83581813 4.05138876,4.58404209 4.20607888,4.38493268 L4.2899999,4.28999957 C4.5001839,4.07903657 4.7934549,3.97272557 5.0899999,3.99999957 Z M6.11,6.11 L6.87,13.89 L12.87,19.89 L19.92,12.84 L13.92,6.84 L6.11,6.11 Z M11.5607,9.43934 C12.146486,10.025126 12.146486,10.97487 11.5607,11.56066 C10.974914,12.146446 10.02517,12.146446 9.43938,11.56066 C8.853594,10.974874 8.853594,10.02513 9.43938,9.43934 C10.025166,8.853554 10.97491,8.853554 11.5607,9.43934 Z" id="Fill" fill="#2876D3"></path>
    </g>
</svg>