<?xml version="1.0" encoding="UTF-8"?>
<svg width="24px" height="24px" viewBox="0 0 24 24" version="1.1" xmlns="http://www.w3.org/2000/svg" xmlns:xlink="http://www.w3.org/1999/xlink">
    <title>Icon/Compose</title>
    <g id="Symbols" stroke="none" stroke-width="1" fill="none" fill-rule="evenodd">
        <g id="Icon/Compose">
            <polygon id="24pt-Bounding-Box" opacity="0" fill-rule="nonzero" points="0 0 24 0 24 24 0 24"></polygon>
            <path d="M11.9999997,3.00000015 C12.5522849,3.00000015 12.9999997,3.44771515 12.9999997,4.00000015 C12.9999997,4.55228515 12.5522849,5.00000015 11.9999997,5.00000015 L11.9999997,5.00000015 L5.99999974,5.00000015 C5.44771491,5.00000015 4.99999974,5.44771515 4.99999974,6.00000015 L4.99999974,6.00000015 L4.99999974,18.0000002 L4.99999974,18.0000002 L5.00672747,18.1166213 C5.06449257,18.61396 5.48716383,19.0000002 5.99999974,19.0000002 L5.99999974,19.0000002 L17.9999997,19.0000002 C18.552285,19.0000002 18.9999997,18.552285 18.9999997,18.0000002 L18.9999997,18.0000002 L18.9999997,12.0000002 L18.9999997,12.0000002 L19.0067275,11.883379 C19.0644926,11.38604 19.4871639,11.0000002 19.9999997,11.0000002 L19.9999997,11.0000002 L20.1166209,11.0067279 C20.6139597,11.0644929 20.9999997,11.4871637 20.9999997,12.0000002 L20.9999997,12.0000002 L20.9999997,18.0000002 C20.9999997,19.6568497 19.6568496,21.0000002 17.9999997,21.0000002 L17.9999997,21.0000002 L5.99999974,21.0000002 C4.34314974,21.0000002 2.99999974,19.6568497 2.99999974,18.0000002 L2.99999974,18.0000002 L2.99999974,6.00000015 L2.99999974,6.00000015 L3.00509245,5.82372779 C3.09633915,4.24892407 4.40232295,3.00000015 5.99999974,3.00000015 L5.99999974,3.00000015 Z M19.7522605,2.77733503 L19.8594302,2.7801514 C20.0711012,2.79390937 20.2440768,2.84128924 20.3877252,2.90653418 C20.6378578,3.02014411 20.7990684,3.18792216 20.9208182,3.32667728 C21.055388,3.52207947 21.1393902,3.66020022 21.1728248,3.74103951 C21.2652608,3.96453404 21.2507437,4.13071919 21.2507437,4.23916566 C21.2507437,4.61803757 21.1729508,4.90738985 21.0030683,5.21157553 C19.6851604,6.47871493 18.6746391,7.46915029 17.9715044,8.18288161 C17.2683697,8.89661293 16.1809246,9.95703376 14.7091692,11.3641441 C13.9171965,11.733793 13.3870001,11.977698 13.11858,12.0958589 C12.9535568,12.1685036 12.2175767,12.4810383 12.0560834,12.5287569 C11.9275583,12.5667339 11.7872781,12.5651905 11.7455861,12.5651905 C11.6640513,12.5651905 11.5785401,12.5371398 11.4890523,12.4810383 C11.4287878,12.3897767 11.3921761,12.3157684 11.3792173,12.2590135 C11.3677683,12.208871 11.3677683,12.1225332 11.3792173,12 C11.3792173,11.9213679 11.4408208,11.7373393 11.58438,11.3641441 C11.68522,11.1020014 11.8322054,10.6548767 12,10.2202958 C12.1527454,9.82469182 12.3153538,9.44279598 12.6198651,9.15575402 C12.750836,9.03229667 12.8826167,8.90700658 13.0148963,8.78030544 L13.4129215,8.39639053 L13.4129215,8.39639053 L13.8120767,8.00653945 L13.8120767,8.00653945 L14.2104981,7.61328233 L14.2104981,7.61328233 L14.6063216,7.2191493 C16.8384399,4.9880263 18.855647,2.83658271 19.1316682,2.83658271 C19.4542194,2.78839179 19.6968068,2.76958136 19.8594302,2.7801514 Z" id="Fill" fill="#2876D3"></path>
        </g>
    </g>
</svg>