<?xml version="1.0" encoding="UTF-8"?>
<svg width="24px" height="24px" viewBox="0 0 24 24" version="1.1" xmlns="http://www.w3.org/2000/svg" xmlns:xlink="http://www.w3.org/1999/xlink">
    <g id="Icon/Plus-Circle/Line" stroke="none" stroke-width="1" fill="none" fill-rule="evenodd">
        <polygon id="24pt-Bounding-Box" opacity="0" fill-rule="nonzero" points="0 0 24 0 24 24 0 24"></polygon>
        <path d="M11.9999996,2 L12.2799045,2.0038418 C17.6733312,2.15206821 21.9999996,6.57075806 21.9999996,12 L21.9999996,12 L21.9961578,12.279905 C21.8479314,17.6733316 17.4292419,22 11.9999996,22 C6.47714956,22 1.99999956,17.52285 1.99999956,12 C1.99999956,6.47715 6.47714956,2 11.9999996,2 L11.9999996,2 Z M11.9999997,4 C7.58171965,4 3.99999965,7.58172 3.99999965,12 C3.99999965,16.41828 7.58171965,20 11.9999997,20 L11.9999997,20 L12.2491791,19.9961932 C16.5521638,19.8645429 19.9999997,16.3349162 19.9999997,12 L19.9999997,12 L19.9961928,11.7508206 C19.8645426,7.44783584 16.3349159,4 11.9999997,4 Z M12,8 C12.552285,8 13,8.447715 13,9 L13,9 L13,11 L15,11 C15.5522849,11 16,11.4477152 16,12 C16,12.5522852 15.5522849,13 15,13 L15,13 L13,13 L13,15 C13,15.5522852 12.552285,16 12,16 C11.447715,16 11,15.5522852 11,15 L11,15 L11,13 L8.99999996,13 C8.44771496,13 7.99999996,12.552285 7.99999996,12 C7.99999996,11.447715 8.44771496,11 8.99999996,11 L8.99999996,11 L11,11 L11,9 C11,8.447715 11.447715,8 12,8 Z" id="Fill" fill="#2876D3"></path>
    </g>
</svg>
