<?xml version="1.0" encoding="UTF-8"?>
<svg width="24px" height="24px" viewBox="0 0 24 24" version="1.1" xmlns="http://www.w3.org/2000/svg" xmlns:xlink="http://www.w3.org/1999/xlink">
    <title>Icon/Arrow Up/Fill</title>
    <g id="Icon/Arrow-Up/Fill" stroke="none" stroke-width="1" fill="none" fill-rule="evenodd">
        <polygon id="24pt-Bounding-Box" opacity="0" fill-rule="nonzero" transform="translate(12.000000, 12.000000) rotate(90.000000) translate(-12.000000, -12.000000) " points="0 0 24 0 24 24 0 24"></polygon>
        <path d="M16.21,16.0000019 L7.79,16.0000019 L7.78999992,16.0000019 C7.11156092,16.0009823 6.49295992,15.611927 6.19999992,15 L6.19999989,14.9999999 C5.85716589,14.2741859 5.95807889,13.4164299 6.45999989,12.7899999 L10.6699999,7.68999993 L10.6699998,7.69000004 C11.3066138,6.95546104 12.4181498,6.87607804 13.1526898,7.51269204 C13.2159327,7.56750374 13.2751858,7.62675704 13.3299978,7.68999904 L17.5399978,12.789999 L17.5399978,12.7899991 C18.0419198,13.4164301 18.1428318,14.2741891 17.7999978,14.9999991 L17.7999979,14.999999 C17.5070359,15.611926 16.8884379,16.000979 16.2099979,16.0000019 L16.21,16.0000019 Z" id="Fill" fill="#2876D3"></path>
    </g>
</svg>