<?xml version="1.0" encoding="UTF-8"?>
<svg width="24px" height="24px" viewBox="0 0 24 24" version="1.1" xmlns="http://www.w3.org/2000/svg" xmlns:xlink="http://www.w3.org/1999/xlink">
    <title>Icon/Question Mark Circle/Line</title>
    <g id="Icon/Question-Mark-Circle/Line" stroke="none" stroke-width="1" fill="none" fill-rule="evenodd">
        <polygon id="24pt-Bounding-Box" opacity="0" fill-rule="nonzero" points="0 0 24 0 24 24 0 24"></polygon>
        <path d="M11.9999996,2 L12.2799045,2.0038418 C17.6733312,2.15206821 21.9999996,6.57075806 21.9999996,12 L21.9999996,12 L21.9961578,12.279905 C21.8479314,17.6733316 17.4292419,22 11.9999996,22 C6.47714956,22 1.99999956,17.52285 1.99999956,12 C1.99999956,6.47715 6.47714956,2 11.9999996,2 L11.9999996,2 Z M11.9999997,4 C7.58171965,4 3.99999965,7.58172 3.99999965,12 C3.99999965,16.41828 7.58171965,20 11.9999997,20 L11.9999997,20 L12.2491791,19.9961932 C16.5521638,19.8645429 19.9999997,16.3349162 19.9999997,12 L19.9999997,12 L19.9961928,11.7508206 C19.8645426,7.44783584 16.3349159,4 11.9999997,4 Z M12.7071,16.2929 C13.097624,16.683424 13.097624,17.31659 12.7071,17.70711 C12.316576,18.097634 11.68341,18.097634 11.29289,17.70711 C10.902366,17.316586 10.902366,16.68342 11.29289,16.2929 C11.683414,15.902376 12.31658,15.902376 12.7071,16.2929 Z M11.9999998,5.99993254 L12.1938281,6.00407924 C13.6717156,6.07656095 14.9529909,7.07773218 15.3717298,8.51159052 C15.9120498,10.3617805 14.8501898,12.2996775 12.9999998,12.8400005 L12.9999998,12.8400005 L12.9999998,14.0000005 C12.9999998,14.5522855 12.5522848,15.0000005 11.9999998,15.0000005 C11.4477148,15.0000005 10.9999998,14.5522855 10.9999998,14.0000005 L10.9999998,14.0000005 L10.9999998,12.0000004 L10.9999998,12.0000004 L11.0067276,11.8833792 C11.0644926,11.3860404 11.4871637,11.0000004 11.9999998,11.0000004 L11.9999998,11.0000004 L12.1444598,10.9931338 C12.9051117,10.920449 13.4999998,10.2796964 13.4999998,9.50000038 C13.4999998,8.67157338 12.8284268,8.00000025 11.9999998,8.00000038 C11.1715728,8.00000038 10.4999998,8.67157338 10.4999998,9.50000038 L10.4999998,9.50000038 L10.4932721,9.61662132 C10.435507,10.1139602 10.0128359,10.5000001 9.49999985,10.5000002 C8.94771485,10.5000002 8.49999985,10.0522852 8.49999985,9.50000015 L8.49999985,9.50000015 L8.49999985,9.5 L8.5051787,9.30796426 C8.60487318,7.46427002 10.1314332,5.99993254 11.9999998,5.99993254 L11.9999998,5.99993254 Z" id="Fill" fill="#2876D3"></path>
    </g>
</svg>