<?xml version="1.0" encoding="UTF-8"?>
<svg width="24px" height="24px" viewBox="0 0 24 24" version="1.1" xmlns="http://www.w3.org/2000/svg" xmlns:xlink="http://www.w3.org/1999/xlink">
    <g id="Icon/Minus-Circle/Fill" stroke="none" stroke-width="1" fill="none" fill-rule="evenodd">
        <polygon id="24pt-Bounding-Box" opacity="0" fill-rule="nonzero" points="0 0 24 0 24 24 0 24"></polygon>
        <path d="M11.9999996,2 L11.9999996,2 C6.47714956,2 1.99999956,6.47715 1.99999956,12 C1.99999956,17.52285 6.47714956,22 11.9999996,22 C17.5228496,22 21.9999996,17.52285 21.9999996,12 L21.9999996,12 C21.9999996,6.47715044 17.5228496,2 11.9999996,2 L11.9999996,2 Z M15,13 L8.99999996,13 L8.99999996,13 C8.44771496,13 7.99999996,12.552285 7.99999996,12 C7.99999996,11.447715 8.44771496,11 8.99999996,11 L15,11 L15,11 C15.5522849,11 16,11.447715 16,12 C16,12.552285 15.5522849,13 15,13 L15,13 Z" id="Fill" fill="#2876D3"></path>
    </g>
</svg>
