<?xml version="1.0" encoding="UTF-8"?>
<svg width="24px" height="24px" viewBox="0 0 24 24" version="1.1" xmlns="http://www.w3.org/2000/svg" xmlns:xlink="http://www.w3.org/1999/xlink">
    <g id="Icon/Arrow-Backward" stroke="none" stroke-width="1" fill="none" fill-rule="evenodd">
        <polygon id="24pt-Bounding-Box" opacity="0" fill-rule="nonzero" transform="translate(12.000000, 12.000000) rotate(90.000000) translate(-12.000000, -12.000000) " points="0 0 24 0 24 24 0 24"></polygon>
        <path d="M19,11 L7.14,11 L10.77,6.64 L10.77,6.63999999 C11.123462,6.21474099 11.065259,5.58345999 10.64,5.22999999 C10.214741,4.87653799 9.58346001,4.93474099 9.23000001,5.35999999 C9.23,5.36 9.22999999,5.36000001 9.22999999,5.36000002 L4.22999999,11.36 L4.22999997,11.36 C4.19636067,11.4077243 4.16627937,11.4578597 4.13999997,11.51 C4.13999997,11.56 4.13999997,11.59 4.06999997,11.64 L4.07000003,11.6399999 C4.02467353,11.7546589 4.00094113,11.8767109 4.00000003,11.9999999 L4.00000003,12.0000016 C4.00094138,12.1232906 4.02467394,12.2453426 4.07000064,12.3600016 C4.07000064,12.4100016 4.07000064,12.4400016 4.14000064,12.4900016 L4.14000064,12.4900016 C4.16628004,12.5421419 4.19636134,12.5922776 4.23000064,12.6400016 L9.23000064,18.6400016 L9.23000065,18.6400016 C9.42035765,18.8685406 9.70256865,19.0004836 10,19.0000025 L10,19.0000025 C10.2336517,19.0004571 10.4600877,18.9190817 10.6399997,18.7700006 L10.6399997,18.7700006 C11.0651697,18.4175106 11.1240877,17.7870926 10.7715977,17.3619206 C10.7710659,17.3612791 10.7705332,17.3606382 10.7699997,17.359998 L7.13999973,12.999998 L19,12.999998 L19,12.999998 C19.5522847,12.999998 20,12.552283 20,11.999998 C20,11.447713 19.5522847,10.999998 19,10.999998 L19,11 Z" id="Fill" fill="#2876D3"></path>
    </g>
</svg>
