<?xml version="1.0" encoding="UTF-8"?>
<svg width="24px" height="24px" viewBox="0 0 24 24" version="1.1" xmlns="http://www.w3.org/2000/svg" xmlns:xlink="http://www.w3.org/1999/xlink">
    <title>Icon/Job Orders/Light</title>
    <g id="Icon/Job-Orders/Light" stroke="none" stroke-width="1" fill="none" fill-rule="evenodd">
        <polygon id="24pt-Bounding-Box" opacity="0" fill-rule="nonzero" points="0 0 24 0 24 24 0 24"></polygon>
        <path d="M9.33634548,16 C10.6266735,16 11.672691,17.0460175 11.672691,18.3363455 C11.672691,19.6266735 10.6266735,20.672691 9.33634548,20.672691 C8.0460175,20.672691 7,19.6266735 7,18.3363455 C7,17.0460175 8.0460175,16 9.33634548,16 Z M17.3363455,16 C18.6266735,16 19.672691,17.0460175 19.672691,18.3363455 C19.672691,19.6266735 18.6266735,20.672691 17.3363455,20.672691 C16.0460175,20.672691 15,19.6266735 15,18.3363455 C15,17.0460175 16.0460175,16 17.3363455,16 Z M9.33634548,17.672691 C8.96981921,17.672691 8.67269097,17.9698192 8.67269097,18.3363455 C8.67269097,18.7028718 8.96981921,19 9.33634548,19 C9.70287175,19 10,18.7028718 10,18.3363455 C10,17.9698192 9.70287175,17.672691 9.33634548,17.672691 Z M17.3363455,17.672691 C16.9698192,17.672691 16.672691,17.9698192 16.672691,18.3363455 C16.672691,18.7028718 16.9698192,19 17.3363455,19 C17.7028718,19 18,18.7028718 18,18.3363455 C18,17.9698192 17.7028718,17.672691 17.3363455,17.672691 Z M6.12704505,3 C6.48055392,3 6.79119378,3.22140261 6.91119474,3.54536312 L6.94393165,3.65698537 L8.99534548,12.9993455 L18.6493455,12.9993455 L20.0155484,6.01626205 C20.0973804,5.59781861 20.4780322,5.31374376 20.8926533,5.34224263 L20.996863,5.35598243 C21.4153064,5.43781446 21.6993813,5.81846621 21.6708824,6.23308733 L21.6571426,6.33729704 L20.1592154,13.996863 C20.0894214,14.3537507 19.7987702,14.6202872 19.4459656,14.6657989 L19.3384183,14.672691 L8.32270006,14.672691 C7.9691912,14.672691 7.65855134,14.4512884 7.53855038,14.1273278 L7.50581346,14.0157056 L5.45334548,4.67234548 L2.83634548,4.67269097 C2.40997546,4.67269097 2.05812436,4.35363756 2.00651632,3.94125488 L2,3.83634548 C2,3.40997546 2.31905341,3.05812436 2.73143608,3.00651632 L2.83634548,3 L6.12704505,3 Z M13.8363455,3 C14.2627155,3 14.6145666,3.31905341 14.6661746,3.73143608 L14.672691,3.83634548 L14.672,8.816 L15.244955,8.24496489 C15.5715654,7.91834892 16.1011101,7.91834447 16.4277261,8.24495495 C16.727124,8.54434789 16.7520776,9.01426193 16.5025842,9.34207928 L16.427736,9.42772608 L13.836389,12.0191166 L11.2449649,9.42773601 C10.9183489,9.10112553 10.9183445,8.57158086 11.244955,8.24496489 C11.5443479,7.94556692 12.0142619,7.92061335 12.3420793,8.17010681 L12.4277261,8.24495495 L13,8.817 L13,3.83634548 C13,3.37444463 13.3744446,3 13.8363455,3 Z" id="Fill" fill="#58595B"></path>
    </g>
</svg>