<?xml version="1.0" encoding="UTF-8"?>
<svg width="24px" height="24px" viewBox="0 0 24 24" version="1.1" xmlns="http://www.w3.org/2000/svg" xmlns:xlink="http://www.w3.org/1999/xlink">
    <g id="Icon/File-Type-GIF/Line" stroke="none" stroke-width="1" fill="none" fill-rule="evenodd">
        <polygon id="24pt-Bounding-Box" opacity="0" fill-rule="nonzero" points="0 0 24 0 24 24 0 24"></polygon>
        <path d="M21.74,8.33 L16.3,2.33 L16.3,2.33000001 C16.110941,2.12052101 15.842178,2.00066701 15.56,1.99981627 L8.56000001,1.99981627 L8.55999996,1.99981627 C7.16281996,1.98333441 6.01666996,3.10246001 5.99999568,4.49964001 C5.99999568,4.49975859 5.99999568,4.49987716 5.99999568,4.49999574 L5.99999568,19.4999957 L5.99999568,19.4999903 C6.01646188,20.8971703 7.16245568,22.0164703 8.55963568,22.0001799 C8.55975423,22.0001799 8.55987279,22.0001799 8.55999134,22.0001799 L19.4399913,22.0001799 L19.4399912,22.0001799 C20.8371712,22.0166647 21.9833212,20.897536 21.9999957,19.500356 C21.9999957,19.5002356 21.9999957,19.5001152 21.9999957,19.4999947 L21.9999957,8.99999473 L21.9999957,8.99999864 C21.9993495,8.75216264 21.906695,8.51339664 21.7399985,8.32999764 L21.74,8.33 Z M19.65,9 L15.71,9 L15.71,9 C15.281099,8.9577648 14.965193,8.579568 15,8.15 L15,4 L15.11,4 L19.65,9 Z M19.44,20 L8.56,20 L8.56000002,20 C8.26778402,20.0170102 8.01710602,19.793912 8.00000005,19.501695 C8.00000005,19.5011299 8.00000005,19.5005648 8.00000005,19.4999996 L8.00000005,4.4999996 L8.00000005,4.49999966 C8.01607385,4.20773066 8.26603505,3.98382966 8.55830505,3.99990366 C8.55887024,3.99993474 8.55943537,3.99996673 8.56000045,3.99999962 L13.0000001,3.99999962 L13.0000001,8.14999962 L13.0000001,8.15000203 C12.9663973,9.68340203 14.1768504,10.956392 15.7100004,11.000002 L20.0000001,11.000002 L20.0000001,19.500002 L20.0000001,19.5000019 C19.9839266,19.7922709 19.7339654,20.0161719 19.4416954,20.0000979 C19.4411302,20.0000669 19.4405651,20.0000349 19.44,20.000002 L19.44,20 Z" id="Fill" fill="#808285"></path>
        <rect id="Rectangle" fill="#35B9AE" x="1" y="5" width="12" height="7" rx="2"></rect>
        <path d="M5.656,9.98 C5.87466667,9.98 6.07666667,9.95733333 6.262,9.912 C6.44733333,9.86666667 6.60933333,9.808 6.748,9.736 L6.748,9.736 L6.748,8.236 L5.58,8.236 L5.58,8.788 L6.12,8.788 L6.12,9.304 C6.05866667,9.33066667 5.992,9.35 5.92,9.362 C5.848,9.374 5.772,9.38 5.692,9.38 C5.55333333,9.38 5.43,9.358 5.322,9.314 C5.214,9.27 5.12333333,9.20866667 5.05,9.13 C4.97666667,9.05133333 4.92133333,8.95733333 4.884,8.848 C4.84666667,8.73866667 4.828,8.61866667 4.828,8.488 C4.828,8.36 4.84866667,8.242 4.89,8.134 C4.93133333,8.026 4.98933333,7.93266667 5.064,7.854 C5.13866667,7.77533333 5.22666667,7.714 5.328,7.67 C5.42933333,7.626 5.54,7.604 5.66,7.604 C5.79866667,7.604 5.92266667,7.62866667 6.032,7.678 C6.14133333,7.72733333 6.22933333,7.79066667 6.296,7.868 L6.296,7.868 L6.728,7.376 C6.608,7.26133333 6.452,7.17 6.26,7.102 C6.068,7.034 5.86,7 5.636,7 C5.42,7 5.21866667,7.03466667 5.032,7.104 C4.84533333,7.17333333 4.68266667,7.27266667 4.544,7.402 C4.40533333,7.53133333 4.29666667,7.688 4.218,7.872 C4.13933333,8.056 4.1,8.26133333 4.1,8.488 C4.1,8.712 4.13866667,8.91533333 4.216,9.098 C4.29333333,9.28066667 4.40066667,9.43733333 4.538,9.568 C4.67533333,9.69866667 4.83933333,9.8 5.03,9.872 C5.22066667,9.944 5.42933333,9.98 5.656,9.98 Z M7.7293336,9.908 L7.7293336,7.076 L7.0413336,7.076 L7.0413336,9.908 L7.7293336,9.908 Z M8.7226672,9.908 L8.7226672,8.808 L9.8186672,8.808 L9.8186672,8.244 L8.7226672,8.244 L8.7226672,7.66 L9.9106672,7.66 L9.9106672,7.076 L8.0466672,7.076 L8.0466672,9.908 L8.7226672,9.908 Z" id="GIF" fill="#FFFFFF" fill-rule="nonzero"></path>
    </g>
</svg>
