<?xml version="1.0" encoding="UTF-8"?>
<svg width="24px" height="24px" viewBox="0 0 24 24" version="1.1" xmlns="http://www.w3.org/2000/svg" xmlns:xlink="http://www.w3.org/1999/xlink">
    <g id="Icon/File-Type-CSV/Line" stroke="none" stroke-width="1" fill="none" fill-rule="evenodd">
        <polygon id="24pt-Bounding-Box" opacity="0" fill-rule="nonzero" points="0 0 24 0 24 24 0 24"></polygon>
        <path d="M21.74,8.33 L16.3,2.33 L16.3,2.33000001 C16.110941,2.12052101 15.842178,2.00066701 15.56,1.99981627 L8.56000001,1.99981627 L8.55999996,1.99981627 C7.16281996,1.98333441 6.01666996,3.10246001 5.99999568,4.49964001 C5.99999568,4.49975859 5.99999568,4.49987716 5.99999568,4.49999574 L5.99999568,19.4999957 L5.99999568,19.4999903 C6.01646188,20.8971703 7.16245568,22.0164703 8.55963568,22.0001799 C8.55975423,22.0001799 8.55987279,22.0001799 8.55999134,22.0001799 L19.4399913,22.0001799 L19.4399912,22.0001799 C20.8371712,22.0166647 21.9833212,20.897536 21.9999957,19.500356 C21.9999957,19.5002356 21.9999957,19.5001152 21.9999957,19.4999947 L21.9999957,8.99999473 L21.9999957,8.99999864 C21.9993495,8.75216264 21.906695,8.51339664 21.7399985,8.32999764 L21.74,8.33 Z M19.65,9 L15.71,9 L15.71,9 C15.281099,8.9577648 14.965193,8.579568 15,8.15 L15,4 L15.11,4 L19.65,9 Z M19.44,20 L8.56,20 L8.56000002,20 C8.26778402,20.0170102 8.01710602,19.793912 8.00000005,19.501695 C8.00000005,19.5011299 8.00000005,19.5005648 8.00000005,19.4999996 L8.00000005,4.4999996 L8.00000005,4.49999966 C8.01607385,4.20773066 8.26603505,3.98382966 8.55830505,3.99990366 C8.55887024,3.99993474 8.55943537,3.99996673 8.56000045,3.99999962 L13.0000001,3.99999962 L13.0000001,8.14999962 L13.0000001,8.15000203 C12.9663973,9.68340203 14.1768504,10.956392 15.7100004,11.000002 L20.0000001,11.000002 L20.0000001,19.500002 L20.0000001,19.5000019 C19.9839266,19.7922709 19.7339654,20.0161719 19.4416954,20.0000979 C19.4411302,20.0000669 19.4405651,20.0000349 19.44,20.000002 L19.44,20 Z" id="Fill" fill="#808285"></path>
        <rect id="Rectangle" fill="#6DAC10" x="1" y="5" width="12" height="7" rx="2"></rect>
        <path d="M9.7380618,9.98 L9.04157303,9.98 L7.95,7 L8.73202247,7 L9.4,9.11293785 L9.41629213,9.11293785 L10.0801966,7 L10.85,7 L9.7380618,9.98 Z M4.724,9.984 C4.964,9.984 5.176,9.942 5.36,9.858 C5.544,9.774 5.69866667,9.66 5.824,9.516 L5.824,9.516 L5.348,9.068 C5.28666667,9.15333333 5.20533333,9.22266667 5.104,9.276 C5.00266667,9.32933333 4.884,9.356 4.748,9.356 C4.63066667,9.356 4.52266667,9.33466667 4.424,9.292 C4.32533333,9.24933333 4.24066667,9.19 4.17,9.114 C4.09933333,9.038 4.044,8.94666667 4.004,8.84 C3.964,8.73333333 3.944,8.616 3.944,8.488 C3.944,8.36266667 3.964,8.24733333 4.004,8.142 C4.044,8.03666667 4.1,7.94533333 4.172,7.868 C4.244,7.79066667 4.33,7.73 4.43,7.686 C4.53,7.642 4.64,7.62 4.76,7.62 C4.86933333,7.62 4.976,7.64133333 5.08,7.684 C5.184,7.72666667 5.268,7.792 5.332,7.88 L5.332,7.88 L5.796,7.416 C5.676,7.28 5.51933333,7.17666667 5.326,7.106 C5.13266667,7.03533333 4.936,7 4.736,7 C4.52,7 4.31866667,7.03466667 4.132,7.104 C3.94533333,7.17333333 3.78266667,7.27266667 3.644,7.402 C3.50533333,7.53133333 3.39666667,7.688 3.318,7.872 C3.23933333,8.056 3.2,8.26133333 3.2,8.488 C3.2,8.70933333 3.23866667,8.912 3.316,9.096 C3.39333333,9.28 3.5,9.438 3.636,9.57 C3.772,9.702 3.93266667,9.804 4.118,9.876 C4.30333333,9.948 4.50533333,9.984 4.724,9.984 Z M6.91,9.976 C7.04866667,9.976 7.18333333,9.95733333 7.314,9.92 C7.44466667,9.88266667 7.56066667,9.82533333 7.662,9.748 C7.76333333,9.67066667 7.844,9.57266667 7.904,9.454 C7.964,9.33533333 7.994,9.19466667 7.994,9.032 C7.994,8.89066667 7.966,8.77266667 7.91,8.678 C7.854,8.58333333 7.78333333,8.504 7.698,8.44 C7.61266667,8.376 7.518,8.32466667 7.414,8.286 C7.31,8.24733333 7.21,8.212 7.114,8.18 C7.04733333,8.15866667 6.98733333,8.138 6.934,8.118 C6.88066667,8.098 6.83466667,8.076 6.796,8.052 C6.75733333,8.028 6.728,8 6.708,7.968 C6.688,7.936 6.678,7.896 6.678,7.848 C6.678,7.792 6.69066667,7.746 6.716,7.71 C6.74133333,7.674 6.77266667,7.64466667 6.81,7.622 C6.84733333,7.59933333 6.88933333,7.584 6.936,7.576 C6.98266667,7.568 7.02866667,7.564 7.074,7.564 C7.162,7.564 7.25333333,7.586 7.348,7.63 C7.44266667,7.674 7.51933333,7.73333333 7.578,7.808 L7.578,7.808 L8.014,7.348 C7.88866667,7.23333333 7.74266667,7.14666667 7.576,7.088 C7.40933333,7.02933333 7.246,7 7.086,7 C6.95266667,7 6.82066667,7.01666667 6.69,7.05 C6.55933333,7.08333333 6.442,7.136 6.338,7.208 C6.234,7.28 6.15,7.372 6.086,7.484 C6.022,7.596 5.99,7.73066667 5.99,7.888 C5.99,8.016 6.01066667,8.12466667 6.052,8.214 C6.09333333,8.30333333 6.148,8.37933333 6.216,8.442 C6.284,8.50466667 6.36133333,8.556 6.448,8.596 C6.53466667,8.636 6.62333333,8.67066667 6.714,8.7 C6.80733333,8.72933333 6.89066667,8.75666667 6.964,8.782 C7.03733333,8.80733333 7.09866667,8.83533333 7.148,8.866 C7.19733333,8.89666667 7.23533333,8.93066667 7.262,8.968 C7.28866667,9.00533333 7.302,9.05066667 7.302,9.104 C7.302,9.16 7.29133333,9.208 7.27,9.248 C7.24866667,9.288 7.22,9.32 7.184,9.344 C7.148,9.368 7.106,9.38533333 7.058,9.396 C7.01,9.40666667 6.96066667,9.412 6.91,9.412 C6.798,9.412 6.68533333,9.38333333 6.572,9.326 C6.45866667,9.26866667 6.36733333,9.19733333 6.298,9.112 L6.298,9.112 L5.85,9.568 C5.97533333,9.69866667 6.13266667,9.79933333 6.322,9.87 C6.51133333,9.94066667 6.70733333,9.976 6.91,9.976 Z" id="CSV" fill="#FFFFFF" fill-rule="nonzero"></path>
    </g>
</svg>