<?xml version="1.0" encoding="UTF-8"?>
<svg width="24px" height="24px" viewBox="0 0 24 24" version="1.1" xmlns="http://www.w3.org/2000/svg" xmlns:xlink="http://www.w3.org/1999/xlink">
    <title>Icon/Paper Plane</title>
    <g id="Icon/Paper-Plane" stroke="none" stroke-width="1" fill="none" fill-rule="evenodd">
        <polygon id="24pt-Bounding-Box" opacity="0" fill-rule="nonzero" points="0 0 24 0 24 24 0 24"></polygon>
        <path d="M20.9400003,3.73000051 L20.9400003,3.64000051 C20.892061,3.52870855 20.8242933,3.42705655 20.7400003,3.34000055 C20.6551334,3.26026533 20.5569922,3.19596553 20.4500002,3.15000053 L20.3600002,3.15000053 C20.2678374,3.07961064 20.1623903,3.02858754 20.0500003,3.00000054 L20,3.00000054 C19.9005689,2.98491525 19.799431,2.98491525 19.7,3.00000054 L1.70000002,9.00000054 C1.17532909,9.17245152 0.889799086,9.73757952 1.06225009,10.2622505 C1.16145429,10.5640725 1.39817809,10.8007965 1.70000009,10.9000005 L10.2300001,13.7400005 L13.0700001,22.2700005 C13.2424511,22.7946714 13.8075791,23.0802014 14.3322501,22.9077504 C14.6340721,22.8085462 14.8707961,22.5718224 14.9700001,22.2700004 L20.9700001,4.27000044 C20.9922353,4.18178361 21.0023284,4.09094531 21.0000001,3.99999931 C20.9895839,3.90813551 20.9694719,3.81763151 20.9400003,3.73000051 Z M16.3,6.29 L10.73,11.86 L5.16,10 L16.3,6.29 Z M14,18.84 L12.14,13.27 L17.71,7.7 L14,18.84 Z" id="Fill" fill="#2876D3"></path>
    </g>
</svg>