<?xml version="1.0" encoding="UTF-8"?>
<svg width="24px" height="24px" viewBox="0 0 24 24" version="1.1" xmlns="http://www.w3.org/2000/svg" xmlns:xlink="http://www.w3.org/1999/xlink">
    <g id="Icon/Close-Circle/Fill" stroke="none" stroke-width="1" fill="none" fill-rule="evenodd">
        <polygon id="24pt-Bounding-Box" opacity="0" fill-rule="nonzero" points="0 0 24 0 24 24 0 24"></polygon>
        <path d="M11.9999996,2 L11.9999996,2 C6.47714956,2 1.99999956,6.47715 1.99999956,12 C1.99999956,17.52285 6.47714956,22 11.9999996,22 C17.5228496,22 21.9999996,17.52285 21.9999996,12 L21.9999996,12 C21.9999996,6.47715044 17.5228496,2 11.9999996,2 L11.9999996,2 Z M14.71,13.29 L14.71,13.29 C15.102122,13.67892 15.104718,14.31208 14.7157983,14.7042 C14.7138734,14.7061407 14.7119407,14.7080735 14.71,14.7099984 L14.7099999,14.7099984 C14.3210799,15.1021204 13.6879199,15.1047164 13.2957999,14.7157967 C13.2938592,14.7138718 13.2919265,14.711939 13.2900016,14.7099983 L12.0000016,13.4099983 L10.7100016,14.7099983 L10.7100016,14.7099984 C10.3210816,15.1021204 9.68792158,15.1047164 9.29580158,14.7157966 C9.29386089,14.7138718 9.2919281,14.711939 9.29000326,14.7099983 L9.29000328,14.7099983 C8.89788128,14.3210783 8.89528528,13.6879183 9.28420491,13.2957983 C9.28612975,13.2938576 9.28806254,13.2919248 9.29000323,13.29 L10.5900032,12 L9.29000323,10.71 L9.29000323,10.71 C8.89788123,10.317878 8.89788123,9.68212 9.29000324,9.29 C9.68212524,8.897878 10.3178832,8.897878 10.7100032,9.29000001 L12.0000032,10.59 L13.2900032,9.29000001 L13.2900032,9.29000001 C13.6821252,8.89787801 14.3178832,8.89787801 14.7100032,9.29000001 C15.1021252,9.68212201 15.1021252,10.31788 14.7100032,10.71 L13.4100032,12 L14.71,13.29 Z" id="Fill" fill="#2876D3"></path>
    </g>
</svg>
