<?xml version="1.0" encoding="UTF-8"?>
<svg width="24px" height="24px" viewBox="0 0 24 24" version="1.1" xmlns="http://www.w3.org/2000/svg" xmlns:xlink="http://www.w3.org/1999/xlink">
    <g id="Icon/Collapse" stroke="none" stroke-width="1" fill="none" fill-rule="evenodd">
        <polygon id="24pt-Bounding-Box" opacity="0" fill-rule="nonzero" points="0 0 24 0 24 24 0 24"></polygon>
        <path d="M9.99999817,12.9999985 C10.5522832,12.9999985 10.9999982,13.4477135 10.9999982,13.9999985 L10.9999982,13.9999985 L10.9999982,18.9999985 C10.9999982,19.5522835 10.5522832,19.9999985 9.99999817,19.9999985 L9.99999817,19.9999985 L9.88337705,19.9932708 C9.3860382,19.9355057 8.9999983,19.5128346 8.99999822,18.9999985 L8.99999822,18.9999985 L8.99999822,16.4199983 L5.70999822,19.7099983 C5.70807338,19.711939 5.70614059,19.7138718 5.7041999,19.7157967 C5.3120799,20.1047163 4.6789199,20.1021203 4.2899999,19.7099983 L4.2899999,19.7099983 C3.89528198,19.31208 3.89787798,18.67892 4.28999998,18.29 L4.28999998,18.29 L7.56999996,14.9999985 L4.99999996,14.9999985 C4.44771496,14.9999985 3.99999998,14.552285 3.99999996,13.9999985 C3.99999996,13.447715 4.44771496,12.9999985 4.99999996,12.9999985 L4.99999996,12.9999985 Z M18.2899999,4.29000007 C18.6821199,3.89787793 19.3178779,3.89787793 19.7099999,4.28999993 C20.1021221,4.68211993 20.1021221,5.31787793 19.7100001,5.70999993 L19.7100001,5.70999993 L16.42,9 L18.9999999,9.00000022 C19.5522848,9.00000022 19.9999999,9.44771522 19.9999999,10.0000002 C19.9999999,10.5522852 19.5522848,11.0000002 18.9999999,11.0000002 L18.9999999,11.0000002 L13.9999999,11.0000002 C13.4477149,11.0000002 12.9999999,10.5522852 12.9999999,10.0000002 L12.9999999,10.0000002 L12.9999999,5.00000007 L12.9999999,5.00000007 L13.0067276,4.8833789 C13.0644927,4.38604005 13.4871638,4.00000009 13.9999999,4.00000007 L13.9999999,4.00000007 L14.1166211,4.0067278 C14.61396,4.06449288 14.9999999,4.487164 14.9999999,5.00000007 L14.9999999,5.00000007 L14.9999999,7.57000007 Z" id="Fill" fill="#2876D3"></path>
    </g>
</svg>