<?xml version="1.0" encoding="iso-8859-1"?>
<!-- Generator: Adobe Illustrator 19.0.0, SVG Export Plug-In . SVG Version: 6.00 Build 0)  -->
<svg version="1.1" id="Layer_1" xmlns="http://www.w3.org/2000/svg" xmlns:xlink="http://www.w3.org/1999/xlink" x="0px" y="0px"
	 viewBox="0 0 512 512" style="enable-background:new 0 0 512 512;" xml:space="preserve">
<g>
	<g>
		<path d="M478.852,245.691c-5.792,46.13-37.868,79.631-95.336,99.571c-50.233,17.429-105.625,19.311-127.109,19.311
			c-24.225,0-66.748-6.96-102.861-22.243c-50.703-21.456-61.345-46.892-61.345-64.451c0-14.097,6.64-26.17,20.3-36.911
			c20.007-15.731,50.647-24.923,79.01-29.108c-8.59,12.503-13.633,27.625-13.633,43.907c0,42.18,33.776,76.596,75.698,77.683
			c8.839,1.934,19.866,2.957,32.208,2.957c42.324,0,99.727-11.882,134.365-39.117c21.626-17.005,33.059-38.849,33.059-63.173
			c0-27.659-14.18-66.631-81.734-95.218c-40.621-17.19-87.471-24.885-115.881-24.885c-28.789,0-85.005,2.748-138.06,21.157
			c-31.085,10.786-56.544,25.515-75.671,43.778C18.175,201.572,4.091,229.562,0,262.148l33.148,4.162
			c5.792-46.13,37.868-79.631,95.336-99.571c50.233-17.429,105.625-19.311,127.109-19.311c24.225,0,66.748,6.96,102.861,22.243
			c50.703,21.456,61.345,46.892,61.345,64.451c0,14.097-6.641,26.17-20.3,36.911c-20.298,15.959-51.535,25.184-80.237,29.284
			c8.862-12.625,14.085-27.982,14.085-44.544c0-42.718-34.638-77.488-77.301-77.724c-40.044-7.683-120.351,2.189-164.195,36.662
			c-21.626,17.005-33.059,38.849-33.059,63.173c0,27.659,14.18,66.631,81.735,95.218c40.621,17.19,87.471,24.885,115.881,24.885
			c28.789,0,85.005-2.748,138.06-21.157c31.085-10.786,56.544-25.515,75.671-43.778c23.687-22.617,37.77-50.608,41.862-83.193
			L478.852,245.691z"/>
	</g>
</g>
<g>
</g>
<g>
</g>
<g>
</g>
<g>
</g>
<g>
</g>
<g>
</g>
<g>
</g>
<g>
</g>
<g>
</g>
<g>
</g>
<g>
</g>
<g>
</g>
<g>
</g>
<g>
</g>
<g>
</g>
</svg>
