<?xml version="1.0" encoding="UTF-8"?>
<svg width="24px" height="24px" viewBox="0 0 24 24" version="1.1" xmlns="http://www.w3.org/2000/svg" xmlns:xlink="http://www.w3.org/1999/xlink">
    <g id="Icon/Clock-Plus/Line" stroke="none" stroke-width="1" fill="none" fill-rule="evenodd">
        <polygon id="24pt-Bounding-Box" opacity="0" fill-rule="nonzero" points="0 0 24 0 24 24 0 24"></polygon>
        <polygon id="24pt-Bounding-Box-Copy" opacity="0" fill-rule="nonzero" points="0 0 24 0 24 24 0 24"></polygon>
        <path d="M11.9999996,2 L12.2799045,2.0038418 C17.6733312,2.15206821 21.9999996,6.57075806 21.9999996,12 L21.9999996,12 L21.9961578,12.279905 C21.8479314,17.6733316 17.4292419,22 11.9999996,22 C6.47714956,22 1.99999956,17.52285 1.99999956,12 C1.99999956,6.47715 6.47714956,2 11.9999996,2 L11.9999996,2 Z M11.9999997,4 C7.58171965,4 3.99999965,7.58172 3.99999965,12 C3.99999965,16.41828 7.58171965,20 11.9999997,20 L11.9999997,20 L12.2491791,19.9961932 C16.5521638,19.8645429 19.9999997,16.3349162 19.9999997,12 L19.9999997,12 L19.9961928,11.7508206 C19.8645426,7.44783584 16.3349159,4 11.9999997,4 Z M12,7 C12.552285,7 13,7.447715 13,8 L13,8 L13,11 L16,11 C16.552285,11 17,11.4477152 17,12 C17,12.5522852 16.552285,13 16,13 L16,13 L12,13 C11.447715,13 11,12.5522852 11,12 L11,12 L11,8 C11,7.447715 11.447715,7 12,7 Z M21,0 C21.552285,0 22,0.447715 22,1 L22,1 L22,2 L23,2 C23.552285,2 24,2.44771515 24,3 C24,3.55228515 23.552285,4 23,4 L23,4 L22,4 L22,5 C22,5.55228515 21.552285,6 21,6 C20.447715,6 20,5.55228515 20,5 L20,5 L20,4 L19,4 C18.447715,4 18,3.552285 18,3 C18,2.447715 18.447715,2 19,2 L19,2 L20,2 L20,1 C20,0.447715 20.447715,0 21,0 Z" id="Fill" fill="#2876D3"></path>
    </g>
</svg>
