<?xml version="1.0" encoding="UTF-8"?>
<svg width="24px" height="24px" viewBox="0 0 24 24" version="1.1" xmlns="http://www.w3.org/2000/svg" xmlns:xlink="http://www.w3.org/1999/xlink">
    <title>Icon/Settings/Fill</title>
    <g id="Icon/Settings/Fill" stroke="none" stroke-width="1" fill="none" fill-rule="evenodd">
        <polygon id="24pt-Bounding-Box" opacity="0" fill-rule="nonzero" points="0 0 24 0 24 24 0 24"></polygon>
        <path d="M13.2099892,1.99999409 C13.8112102,2.00161409 14.3870062,2.24272909 14.8099892,2.66999409 L14.8099892,2.66999409 C15.2502852,3.11778406 15.494859,3.72201906 15.4899962,4.34999406 L15.4899962,4.34999406 L15.4899961,4.63000416 C15.4797051,5.18923116 15.7358381,5.72005616 16.1799961,6.06000416 L16.1799961,6.06000416 L16.2899962,6.14000426 C16.7455362,6.48160166 17.3393792,6.57870926 17.8799962,6.40000426 L17.8799962,6.40000426 L18.2199963,6.29000426 C18.2451534,6.28166506 18.2704552,6.27376903 18.29589,6.26631986 C19.49374,5.91549986 20.749183,6.60214986 21.1,7.79999986 L21.1,7.79999986 L21.8900006,10.3200036 C22.2679206,11.5360136 21.6130106,12.8325576 20.4100006,13.2500036 L20.4100006,13.2500036 L20.2100008,13.3200036 C19.6203508,13.5211636 19.1677128,13.9999941 19.0000008,14.6000036 L19.0000008,14.6000036 L18.9583247,14.7687713 C18.8558061,15.2780675 18.9552597,15.8100484 19.2400008,16.2500035 L19.2400008,16.2500035 L19.500001,16.6300036 C20.215851,17.6689936 19.99649,19.0860786 19.000001,19.8600036 L19.000001,19.8600036 L16.9700009,21.3800037 C16.9336802,21.40778 16.8965179,21.4344378 16.8585659,21.4599395 C15.8317259,22.1499135 14.4399739,21.8768435 13.7499959,20.8500035 L13.7499959,20.8500035 L13.6299958,20.6800033 C13.2970858,20.1797033 12.7307548,19.8852113 12.1299958,19.9000033 L12.1299958,19.9000033 L11.959806,19.9124902 C11.4539112,19.9738184 10.9944777,20.2475901 10.6999959,20.6700033 L10.6999959,20.6700033 L10.4699959,20.9999941 C10.1380559,21.5210043 9.60649893,21.8826063 8.99999593,21.9999941 L8.99999593,21.9999941 L8.87006045,22.0084699 C8.78332201,22.011295 8.69644578,22.0084694 8.60998378,21.9999941 L8.60998378,21.9999941 L8.42892921,21.994869 C8.00832267,21.9659863 7.60294173,21.8193512 7.25998373,21.5699998 L7.25998373,21.5699998 L5.18998384,19.9999941 C4.14898184,19.2206999 3.93033084,17.7481499 4.69998384,16.6999999 L4.69998384,16.6999999 L4.7939667,16.5473382 C5.08355231,16.027595 5.13556099,15.4045446 4.92998372,14.8400001 L4.92998372,14.8400001 L4.8699837,14.68 C4.7125537,14.118002 4.2965007,13.664802 3.7499837,13.46 L3.7499837,13.46 L3.58998391,13.4600001 C2.37429691,13.0512101 1.71422791,11.7399901 2.10998391,10.5200001 L2.10998391,10.5200001 L2.92998395,7.91999997 C3.10270895,7.34052397 3.50835495,6.85881997 4.04998395,6.58999997 L4.04998395,6.58999997 L4.22636659,6.50901334 C4.70428115,6.31530499 5.23855207,6.29993858 5.72998407,6.46999991 L5.72998407,6.46999991 L5.89628767,6.51780004 C6.45461965,6.65151915 7.04734246,6.52998725 7.50998427,6.17999998 L7.50998427,6.17999998 L7.6399842,6.08000004 C8.0995632,5.71329004 8.36804209,5.15794804 8.3699892,4.57000004 L8.3699892,4.57000004 L8.36998922,4.32999409 C8.36438922,3.05642409 9.38651922,2.01645049 10.6599892,1.99999409 L10.6599892,1.99999409 Z M11.9999998,8.5 C10.0669998,8.5 8.49999985,10.067 8.49999985,12 C8.49999985,13.933 10.0669998,15.5 11.9999998,15.5 L11.9999998,15.5 L12.1920354,15.4948211 C14.0357254,15.3951267 15.4999998,13.8685667 15.4999998,12 L15.4999998,12 L15.494821,11.8079645 C15.3951265,9.96427444 13.8685665,8.5 11.9999998,8.5 Z M13.0607,10.9393 C13.646486,11.525086 13.646486,12.47483 13.0607,13.06062 C12.474914,13.646406 11.52517,13.646406 10.93938,13.06062 C10.353594,12.474834 10.353594,11.52509 10.93938,10.9393 C11.525166,10.353514 12.47491,10.353514 13.0607,10.9393 Z" id="Fill" fill="#2876D3"></path>
    </g>
</svg>