<?xml version="1.0" encoding="UTF-8"?>
<svg width="24px" height="24px" viewBox="0 0 24 24" version="1.1" xmlns="http://www.w3.org/2000/svg" xmlns:xlink="http://www.w3.org/1999/xlink">
    <g id="Icon/Email/Fill" stroke="none" stroke-width="1" fill="none" fill-rule="evenodd">
        <polygon id="24pt-Bounding-Box" opacity="0" fill-rule="nonzero" points="0 0 24 0 24 24 0 24"></polygon>
        <path d="M18.9999999,3.99999955 L4.99999987,3.99999955 L4.99999987,3.99999955 C3.34314987,3.99999955 1.99999987,5.34315 1.99999987,6.99999955 C1.99999987,6.99999955 1.99999987,6.99999955 1.99999987,6.99999955 L1.99999987,16.9999995 L1.99999987,16.9999995 C1.99999987,18.6568495 3.34314987,19.9999995 4.99999987,19.9999995 L18.9999999,19.9999995 L18.9999999,19.9999995 C20.6568497,19.9999995 21.9999999,18.6568495 21.9999999,16.9999995 L21.9999999,6.99999955 L21.9999999,6.99999955 C21.9999999,5.34314955 20.6568497,3.99999955 18.9999999,3.99999955 L18.9999999,3.99999955 Z M19.0000001,6 L12.5000001,10.47 L12.5000001,10.47 C12.1905991,10.648633 11.8094011,10.648633 11.5000001,10.47 L5.00000008,6 L19.0000001,6 Z" id="Fill" fill="#2876D3"></path>
    </g>
</svg>
