<?xml version="1.0" encoding="UTF-8"?>
<svg width="24px" height="24px" viewBox="0 0 24 24" version="1.1" xmlns="http://www.w3.org/2000/svg" xmlns:xlink="http://www.w3.org/1999/xlink">
    <g id="Icon/Arrow-Circle-Up/Fill" stroke="none" stroke-width="1" fill="none" fill-rule="evenodd">
        <polygon id="24pt-Bounding-Box" opacity="0" fill-rule="nonzero" transform="translate(12.000000, 12.000000) rotate(180.000000) translate(-12.000000, -12.000000) " points="-1.77635684e-15 1.77635684e-15 24 1.77635684e-15 24 24 -1.77635684e-15 24"></polygon>
        <path d="M11.9999996,22 L11.9999996,22 C17.5228496,22 21.9999996,17.52285 21.9999996,12 C21.9999996,6.47715 17.5228496,2 11.9999996,2 C6.47714956,2 1.99999956,6.47715 1.99999956,12 L1.99999956,12 C1.99999956,17.5228515 6.47714956,22 11.9999996,22 L11.9999996,22 Z M8.31,10.14 L11.31,7.28 L11.31,7.28000003 C11.353385,7.23767653 11.4042456,7.20376953 11.46,7.18000003 L11.46,7.18000001 C11.5070515,7.13753531 11.561211,7.10368531 11.62,7.08000001 L11.6199999,7.08000003 C11.8620399,6.97302303 12.1379599,6.97302303 12.3799999,7.07999999 L12.3799999,7.07999997 C12.5027509,7.12759437 12.6148959,7.19895897 12.7099999,7.28999997 L15.7099999,10.29 L15.71,10.29 C16.102122,10.682122 16.102122,11.31788 15.7099998,11.71 C15.3178778,12.102122 14.6821198,12.102122 14.2899998,11.7099999 L12.9999998,10.4099999 L12.9999998,15.9999999 L12.9999998,15.9999999 C12.9999998,16.5522849 12.5522848,16.9999999 11.9999998,16.9999999 C11.4477148,16.9999999 10.9999998,16.5522849 10.9999998,15.9999999 L10.9999998,10.3399999 L9.68999982,11.5899999 L9.68999987,11.5899999 C9.28959387,11.9710769 8.65607987,11.9554069 8.27499987,11.555 C7.89392287,11.154594 7.90959287,10.52108 8.30999977,10.14 L8.31,10.14 Z" id="Fill" fill="#2876D3"></path>
    </g>
</svg>