<?xml version="1.0" encoding="UTF-8"?>
<svg width="24px" height="24px" viewBox="0 0 24 24" version="1.1" xmlns="http://www.w3.org/2000/svg" xmlns:xlink="http://www.w3.org/1999/xlink">
    <g id="Icon/Arrow-iOS-Downward" stroke="none" stroke-width="1" fill="none" fill-rule="evenodd">
        <polygon id="24pt-Bounding-Box" opacity="0" fill-rule="nonzero" points="0 0 24 0 24 24 0 24"></polygon>
        <path d="M12,16 L12,16 C11.766348,16.0004565 11.539912,15.9190811 11.36,15.77 L5.35999998,10.77 L5.36000003,10.77 C4.93474103,10.416538 4.87653803,9.78525904 5.23000003,9.36000004 C5.58346203,8.93474104 6.21474103,8.87653804 6.64000003,9.23000004 C6.64000003,9.23000004 6.64000004,9.23000005 6.64000004,9.23000005 L12,13.71 L17.36,9.39000005 L17.3600001,9.39 C17.7887241,9.041842 18.4185101,9.107153 18.7666701,9.535877 C18.7677838,9.53724842 18.7688939,9.5386228 18.7700003,9.5400001 L18.7700003,9.54000009 C19.1373283,9.95241809 19.1007763,10.5845301 18.6883579,10.9518501 C18.6695196,10.9686288 18.6500532,10.9846886 18.6300003,10.9999951 L12.6300003,15.8299951 L12.6300003,15.8299951 C12.4449163,15.9555111 12.2231013,16.0153661 12.0000003,15.9999951 L12,16 Z" id="Fill" fill="#2876D3"></path>
    </g>
</svg>
