<?xml version="1.0" encoding="UTF-8"?>
<svg width="24px" height="24px" viewBox="0 0 24 24" version="1.1" xmlns="http://www.w3.org/2000/svg" xmlns:xlink="http://www.w3.org/1999/xlink">
    <g id="Icon/File-Type-JPG/Line" stroke="none" stroke-width="1" fill="none" fill-rule="evenodd">
        <polygon id="24pt-Bounding-Box" opacity="0" fill-rule="nonzero" points="0 0 24 0 24 24 0 24"></polygon>
        <path d="M21.74,8.33 L16.3,2.33 L16.3,2.33000001 C16.110941,2.12052101 15.842178,2.00066701 15.56,1.99981627 L8.56000001,1.99981627 L8.55999996,1.99981627 C7.16281996,1.98333441 6.01666996,3.10246001 5.99999568,4.49964001 C5.99999568,4.49975859 5.99999568,4.49987716 5.99999568,4.49999574 L5.99999568,19.4999957 L5.99999568,19.4999903 C6.01646188,20.8971703 7.16245568,22.0164703 8.55963568,22.0001799 C8.55975423,22.0001799 8.55987279,22.0001799 8.55999134,22.0001799 L19.4399913,22.0001799 L19.4399912,22.0001799 C20.8371712,22.0166647 21.9833212,20.897536 21.9999957,19.500356 C21.9999957,19.5002356 21.9999957,19.5001152 21.9999957,19.4999947 L21.9999957,8.99999473 L21.9999957,8.99999864 C21.9993495,8.75216264 21.906695,8.51339664 21.7399985,8.32999764 L21.74,8.33 Z M19.65,9 L15.71,9 L15.71,9 C15.281099,8.9577648 14.965193,8.579568 15,8.15 L15,4 L15.11,4 L19.65,9 Z M19.44,20 L8.56,20 L8.56000002,20 C8.26778402,20.0170102 8.01710602,19.793912 8.00000005,19.501695 C8.00000005,19.5011299 8.00000005,19.5005648 8.00000005,19.4999996 L8.00000005,4.4999996 L8.00000005,4.49999966 C8.01607385,4.20773066 8.26603505,3.98382966 8.55830505,3.99990366 C8.55887024,3.99993474 8.55943537,3.99996673 8.56000045,3.99999962 L13.0000001,3.99999962 L13.0000001,8.14999962 L13.0000001,8.15000203 C12.9663973,9.68340203 14.1768504,10.956392 15.7100004,11.000002 L20.0000001,11.000002 L20.0000001,19.500002 L20.0000001,19.5000019 C19.9839266,19.7922709 19.7339654,20.0161719 19.4416954,20.0000979 C19.4411302,20.0000669 19.4405651,20.0000349 19.44,20.000002 L19.44,20 Z" id="Fill" fill="#808285"></path>
        <rect id="Rectangle" fill="#4B9EE8" x="1" y="5" width="12" height="7" rx="2"></rect>
        <path d="M4.42,9.984 C4.612,9.984 4.76866667,9.95066667 4.89,9.884 C5.01133333,9.81733333 5.106,9.73266667 5.174,9.63 C5.242,9.52733333 5.28866667,9.41466667 5.314,9.292 C5.33933333,9.16933333 5.352,9.052 5.352,8.94 L5.352,8.94 L5.352,7.076 L4.664,7.076 L4.664,8.944 C4.664,9.06933333 4.646,9.17066667 4.61,9.248 C4.574,9.32533333 4.5,9.364 4.388,9.364 C4.316,9.364 4.25533333,9.34133333 4.206,9.296 C4.15666667,9.25066667 4.12266667,9.19066667 4.104,9.116 L4.104,9.116 L3.5,9.32 C3.55333333,9.51466667 3.66,9.674 3.82,9.798 C3.98,9.922 4.18,9.984 4.42,9.984 Z M6.3373336,9.908 L6.3373336,8.84 L6.6773336,8.84 C6.82400027,8.84 6.9653336,8.824 7.1013336,8.792 C7.2373336,8.76 7.3573336,8.70933333 7.4613336,8.64 C7.5653336,8.57066667 7.64800027,8.47933333 7.7093336,8.366 C7.77066693,8.25266667 7.8013336,8.11333333 7.8013336,7.948 C7.8013336,7.78533333 7.77266693,7.64866667 7.7153336,7.538 C7.65800027,7.42733333 7.5793336,7.338 7.4793336,7.27 C7.3793336,7.202 7.26200027,7.15266667 7.1273336,7.122 C6.99266693,7.09133333 6.84800027,7.076 6.6933336,7.076 L6.6933336,7.076 L5.6533336,7.076 L5.6533336,9.908 L6.3373336,9.908 Z M6.6253336,8.296 L6.3373336,8.296 L6.3373336,7.628 L6.6373336,7.628 C6.69866693,7.628 6.75800027,7.632 6.8153336,7.64 C6.87266693,7.648 6.92400027,7.664 6.9693336,7.688 C7.01466693,7.712 7.05066693,7.74533333 7.0773336,7.788 C7.10400027,7.83066667 7.1173336,7.88533333 7.1173336,7.952 C7.1173336,8.01866667 7.10400027,8.074 7.0773336,8.118 C7.05066693,8.162 7.01400027,8.19733333 6.9673336,8.224 C6.92066693,8.25066667 6.86800027,8.26933333 6.8093336,8.28 C6.75066693,8.29066667 6.6893336,8.296 6.6253336,8.296 L6.6253336,8.296 Z M9.3706672,9.98 C9.58933387,9.98 9.79133387,9.95733333 9.9766672,9.912 C10.1620005,9.86666667 10.3240005,9.808 10.4626672,9.736 L10.4626672,9.736 L10.4626672,8.236 L9.2946672,8.236 L9.2946672,8.788 L9.8346672,8.788 L9.8346672,9.304 C9.77333387,9.33066667 9.7066672,9.35 9.6346672,9.362 C9.5626672,9.374 9.4866672,9.38 9.4066672,9.38 C9.26800053,9.38 9.1446672,9.358 9.0366672,9.314 C8.9286672,9.27 8.83800053,9.20866667 8.7646672,9.13 C8.69133387,9.05133333 8.63600053,8.95733333 8.5986672,8.848 C8.56133387,8.73866667 8.5426672,8.61866667 8.5426672,8.488 C8.5426672,8.36 8.56333387,8.242 8.6046672,8.134 C8.64600053,8.026 8.70400053,7.93266667 8.7786672,7.854 C8.85333387,7.77533333 8.94133387,7.714 9.0426672,7.67 C9.14400053,7.626 9.2546672,7.604 9.3746672,7.604 C9.51333387,7.604 9.63733387,7.62866667 9.7466672,7.678 C9.85600053,7.72733333 9.94400053,7.79066667 10.0106672,7.868 L10.0106672,7.868 L10.4426672,7.376 C10.3226672,7.26133333 10.1666672,7.17 9.9746672,7.102 C9.7826672,7.034 9.5746672,7 9.3506672,7 C9.1346672,7 8.93333387,7.03466667 8.7466672,7.104 C8.56000053,7.17333333 8.39733387,7.27266667 8.2586672,7.402 C8.12000053,7.53133333 8.01133387,7.688 7.9326672,7.872 C7.85400053,8.056 7.8146672,8.26133333 7.8146672,8.488 C7.8146672,8.712 7.85333387,8.91533333 7.9306672,9.098 C8.00800053,9.28066667 8.11533387,9.43733333 8.2526672,9.568 C8.39000053,9.69866667 8.55400053,9.8 8.7446672,9.872 C8.93533387,9.944 9.14400053,9.98 9.3706672,9.98 Z" id="JPG" fill="#FFFFFF" fill-rule="nonzero"></path>
    </g>
</svg>
