<?xml version="1.0" encoding="UTF-8"?>
<svg width="24px" height="24px" viewBox="0 0 24 24" version="1.1" xmlns="http://www.w3.org/2000/svg" xmlns:xlink="http://www.w3.org/1999/xlink">
    <g id="Icon/File-Type-PDF/Line" stroke="none" stroke-width="1" fill="none" fill-rule="evenodd">
        <polygon id="24pt-Bounding-Box" opacity="0" fill-rule="nonzero" points="0 0 24 0 24 24 0 24"></polygon>
        <path d="M21.74,8.33 L16.3,2.33 L16.3,2.33000001 C16.110941,2.12052101 15.842178,2.00066701 15.56,1.99981627 L8.56000001,1.99981627 L8.55999996,1.99981627 C7.16281996,1.98333441 6.01666996,3.10246001 5.99999568,4.49964001 C5.99999568,4.49975859 5.99999568,4.49987716 5.99999568,4.49999574 L5.99999568,19.4999957 L5.99999568,19.4999903 C6.01646188,20.8971703 7.16245568,22.0164703 8.55963568,22.0001799 C8.55975423,22.0001799 8.55987279,22.0001799 8.55999134,22.0001799 L19.4399913,22.0001799 L19.4399912,22.0001799 C20.8371712,22.0166647 21.9833212,20.897536 21.9999957,19.500356 C21.9999957,19.5002356 21.9999957,19.5001152 21.9999957,19.4999947 L21.9999957,8.99999473 L21.9999957,8.99999864 C21.9993495,8.75216264 21.906695,8.51339664 21.7399985,8.32999764 L21.74,8.33 Z M19.65,9 L15.71,9 L15.71,9 C15.281099,8.9577648 14.965193,8.579568 15,8.15 L15,4 L15.11,4 L19.65,9 Z M19.44,20 L8.56,20 L8.56000002,20 C8.26778402,20.0170102 8.01710602,19.793912 8.00000005,19.501695 C8.00000005,19.5011299 8.00000005,19.5005648 8.00000005,19.4999996 L8.00000005,4.4999996 L8.00000005,4.49999966 C8.01607385,4.20773066 8.26603505,3.98382966 8.55830505,3.99990366 C8.55887024,3.99993474 8.55943537,3.99996673 8.56000045,3.99999962 L13.0000001,3.99999962 L13.0000001,8.14999962 L13.0000001,8.15000203 C12.9663973,9.68340203 14.1768504,10.956392 15.7100004,11.000002 L20.0000001,11.000002 L20.0000001,19.500002 L20.0000001,19.5000019 C19.9839266,19.7922709 19.7339654,20.0161719 19.4416954,20.0000979 C19.4411302,20.0000669 19.4405651,20.0000349 19.44,20.000002 L19.44,20 Z" id="Fill" fill="#808285"></path>
        <rect id="Rectangle" fill="#EA523F" x="1" y="5" width="12" height="7" rx="2"></rect>
        <path d="M4.184,9.932 L4.184,8.864 L4.524,8.864 C4.67066667,8.864 4.812,8.848 4.948,8.816 C5.084,8.784 5.204,8.73333333 5.308,8.664 C5.412,8.59466667 5.49466667,8.50333333 5.556,8.39 C5.61733333,8.27666667 5.648,8.13733333 5.648,7.972 C5.648,7.80933333 5.61933333,7.67266667 5.562,7.562 C5.50466667,7.45133333 5.426,7.362 5.326,7.294 C5.226,7.226 5.10866667,7.17666667 4.974,7.146 C4.83933333,7.11533333 4.69466667,7.1 4.54,7.1 L4.54,7.1 L3.5,7.1 L3.5,9.932 L4.184,9.932 Z M4.472,8.32 L4.184,8.32 L4.184,7.652 L4.484,7.652 C4.54533333,7.652 4.60466667,7.656 4.662,7.664 C4.71933333,7.672 4.77066667,7.688 4.816,7.712 C4.86133333,7.736 4.89733333,7.76933333 4.924,7.812 C4.95066667,7.85466667 4.964,7.90933333 4.964,7.976 C4.964,8.04266667 4.95066667,8.098 4.924,8.142 C4.89733333,8.186 4.86066667,8.22133333 4.814,8.248 C4.76733333,8.27466667 4.71466667,8.29333333 4.656,8.304 C4.59733333,8.31466667 4.536,8.32 4.472,8.32 L4.472,8.32 Z M6.8493336,9.932 C7.04400027,9.932 7.23600027,9.90466667 7.4253336,9.85 C7.61466693,9.79533333 7.78466693,9.71 7.9353336,9.594 C8.08600027,9.478 8.2073336,9.33 8.2993336,9.15 C8.3913336,8.97 8.4373336,8.756 8.4373336,8.508 C8.4373336,8.24133333 8.39066693,8.01733333 8.2973336,7.836 C8.20400027,7.65466667 8.0813336,7.51 7.9293336,7.402 C7.7773336,7.294 7.60400027,7.21666667 7.4093336,7.17 C7.21466693,7.12333333 7.0173336,7.1 6.8173336,7.1 L6.8173336,7.1 L5.7933336,7.1 L5.7933336,9.932 L6.8493336,9.932 Z M6.7853336,9.34 L6.4613336,9.34 L6.4613336,7.684 L6.8013336,7.684 C6.91866693,7.684 7.03266693,7.69733333 7.1433336,7.724 C7.25400027,7.75066667 7.35266693,7.79533333 7.4393336,7.858 C7.52600027,7.92066667 7.5953336,8.00466667 7.6473336,8.11 C7.6993336,8.21533333 7.7253336,8.348 7.7253336,8.508 C7.7253336,8.66533333 7.6993336,8.79733333 7.6473336,8.904 C7.5953336,9.01066667 7.52600027,9.096 7.4393336,9.16 C7.35266693,9.224 7.25266693,9.27 7.1393336,9.298 C7.02600027,9.326 6.90800027,9.34 6.7853336,9.34 L6.7853336,9.34 Z M9.2986672,9.932 L9.2986672,8.832 L10.3946672,8.832 L10.3946672,8.268 L9.2986672,8.268 L9.2986672,7.684 L10.4866672,7.684 L10.4866672,7.1 L8.6226672,7.1 L8.6226672,9.932 L9.2986672,9.932 Z" id="PDF" fill="#FFFFFF" fill-rule="nonzero"></path>
    </g>
</svg>
