<?xml version="1.0" encoding="UTF-8"?>
<svg width="24px" height="24px" viewBox="0 0 24 24" version="1.1" xmlns="http://www.w3.org/2000/svg" xmlns:xlink="http://www.w3.org/1999/xlink">
    <g id="Icon/Attach-2" stroke="none" stroke-width="1" fill="none" fill-rule="evenodd">
        <polygon id="24pt-Bounding-Box" opacity="0" fill-rule="nonzero" points="0 0 24 0 24 24 0 24"></polygon>
        <path d="M11.9999999,22 L11.9999999,22 C8.77085992,22.0783477 6.08723992,19.52891 5.99999986,16.3 L5.99999986,6.13 L5.99999986,6.1300021 C6.06002906,3.7959621 7.99572986,1.9496721 10.3299999,2.0000021 L10.3299998,2.0000021 C12.6681298,1.9440717 14.6099898,3.7919721 14.6699998,6.1300021 L14.6699998,16.3100021 L14.6699998,16.3100021 C14.579798,17.7818421 13.3135098,18.9018821 11.8416798,18.8116821 C10.4956898,18.729193 9.42248979,17.6559921 9.33999979,16.3100021 L9.33999979,6.92000208 L9.33999979,6.92000223 C9.33999971,6.36771723 9.78771479,5.92000223 10.3399998,5.92000223 L10.3399998,5.92000223 C10.8922848,5.92000221 11.3399998,6.36771723 11.3399998,6.92000223 L11.3399998,16.3100022 L11.3399997,16.3100022 C11.3851217,16.6772712 11.7194307,16.9384232 12.0867007,16.8933012 C12.3919687,16.8557966 12.6324957,16.6152702 12.6699997,16.3100022 L12.6699997,6.13000217 L12.6699997,6.13000147 C12.6053011,4.89881147 11.5618297,3.94899147 10.3299997,4.00000147 L10.3299997,4.00000147 C9.10198971,3.95460507 8.06469971,4.90285947 7.99999986,6.13000147 L7.99999986,16.3000015 L7.99999986,16.3000012 C8.0866724,18.4245312 9.8751697,20.0788912 11.9999999,20.0000012 L11.9999999,20.0000012 C14.1248297,20.078888 15.9133297,18.4245312 15.9999999,16.3000012 L15.9999999,6.13000121 L15.9999999,6.13000136 C15.9999999,5.57771636 16.4477147,5.13000136 16.9999999,5.13000136 C17.5522847,5.13000128 17.9999999,5.57771636 17.9999999,6.13000136 C17.9999999,6.13000136 17.9999999,6.13000136 17.9999999,6.13000136 L17.9999999,16.3000014 L17.9999999,16.2999919 C17.9127621,19.5289019 15.22915,22.0783419 12.00001,22.0000019 L11.9999999,22 Z" id="Fill" fill="#2876D3"></path>
    </g>
</svg>