<?xml version="1.0" encoding="UTF-8"?>
<svg width="24px" height="24px" viewBox="0 0 24 24" version="1.1" xmlns="http://www.w3.org/2000/svg" xmlns:xlink="http://www.w3.org/1999/xlink">
    <title>Icon/Book/Fill</title>
    <g id="Icon/Book/Fill" stroke="none" stroke-width="1" fill="none" fill-rule="evenodd">
        <polygon id="24pt-Bounding-Box" opacity="0" fill-rule="nonzero" points="0 0 24 0 24 24 0 24"></polygon>
        <path d="M18.9999999,3 L6.99999987,3 L6.99999987,3 C5.34314987,3 3.99999987,4.34315 3.99999987,6 C3.99999987,6 3.99999987,6 3.99999987,6 L3.99999987,18 L3.99999987,18 C3.99999987,19.6568505 5.34314987,21 6.99999987,21 L18.9999999,21 L18.9999999,21 C19.5522848,21 19.9999999,20.5522855 19.9999999,20 L19.9999999,4 L19.9999999,4 C19.9999999,3.44771545 19.5522848,3 18.9999999,3 L18.9999999,3 Z M6.99999996,19 L6.99999996,19 C6.44771496,19 5.99999996,18.552285 5.99999996,18 C5.99999996,17.447715 6.44771496,17 6.99999996,17 L18,17 L18,19 L6.99999996,19 Z" id="Fill" fill="#2876D3"></path>
    </g>
</svg>