<?xml version="1.0" encoding="UTF-8"?>
<svg width="24px" height="24px" viewBox="0 0 24 24" version="1.1" xmlns="http://www.w3.org/2000/svg" xmlns:xlink="http://www.w3.org/1999/xlink">
    <title>Icon/Pin/Line Grey</title>
    <g id="Icon/Pin/Line-Grey" stroke="none" stroke-width="1" fill="none" fill-rule="evenodd">
        <polygon id="24pt-Bounding-Box" opacity="0" fill-rule="nonzero" points="0 0 24 0 24 24 0 24"></polygon>
        <path d="M12.0000002,2 L12.2474317,2.00374294 C16.5206408,2.13340743 19.9569526,5.61576802 20.0000002,9.91999443 L20.0000002,9.91999443 C20.0000002,15.4000001 13.0000002,21.5 12.6500001,21.7600001 C12.2757761,22.0800879 11.7242241,22.0800879 11.3500001,21.7599999 L11.3500001,21.7599999 L11.3280525,21.7409582 C10.8048017,21.2861557 4.00000018,15.3038596 4.00000018,9.92 C4.04387018,5.533 7.61278018,1.99978053 12.0000002,2 L12.0000002,2 Z M12,3.92000091 C8.68629,3.92000091 6,6.60629091 6,9.92000091 L6,9.92000091 L6.00762612,10.1940905 C6.20963712,13.8634444 10.3707317,18.0987805 12,19.6500009 C13.67,18.0600009 18,13.6200009 18,9.92000091 L18,9.92000091 L17.9958615,9.69506254 C17.8775718,6.48557436 15.2383984,3.92000091 12,3.92000091 Z M11.9999998,6 L12.1920354,6.00517885 C14.0357254,6.10487334 15.4999998,7.63143348 15.4999998,9.5 L15.4999998,9.5 L15.494821,9.69203552 C15.3951265,11.5357256 13.8685665,13 11.9999998,13 C10.0669998,13 8.49999985,11.433 8.49999985,9.5 C8.49999985,7.567 10.0669998,6 11.9999998,6 L11.9999998,6 Z M11.9999999,8 C11.1715729,8 10.4999999,8.671573 10.4999999,9.5 C10.4999999,10.328427 11.1715729,11 11.9999999,11 L11.9999999,11 L12.1444599,10.9931334 C12.9051117,10.9204487 13.4999999,10.2796959 13.4999999,9.5 L13.4999999,9.5 L13.4931334,9.35554001 C13.4204486,8.59488819 12.7796959,8 11.9999999,8 Z" id="Fill" fill="#A7A9AC"></path>
    </g>
</svg>