<?xml version="1.0" encoding="UTF-8"?>
<svg width="24px" height="24px" viewBox="0 0 24 24" version="1.1" xmlns="http://www.w3.org/2000/svg" xmlns:xlink="http://www.w3.org/1999/xlink">
    <title>Icon/Folder Add/Fill</title>
    <g id="Icon/Folder-Add/Fill" stroke="none" stroke-width="1" fill="none" fill-rule="evenodd">
        <polygon id="24pt-Bounding-Box" opacity="0" fill-rule="nonzero" points="0 0 24 0 24 24 0 24"></polygon>
        <path d="M19.5,7.05 L12.5,7.05 L9.87,3.87 L9.87,3.87 C9.68158,3.637723 9.399083,3.501978 9.1,3.5 L4.49999999,3.5 L4.49999999,3.5 C3.13967009,3.4832997 2.02193009,4.56974 1.99999999,5.93 L1.99999999,18.07 L1.99999999,18.069994 C2.02192559,19.430254 3.13965999,20.516694 4.49999999,20.500004 L19.5,20.500004 L19.49999,20.500004 C20.86032,20.5167043 21.97806,19.430264 22,18.070004 L22,9.48000399 L22,9.48001023 C21.9780647,8.11975023 20.8603301,7.03331023 19.5,7.05000023 L19.5,7.05 Z M14,15.0000002 L13,15.0000002 L13,16.0000002 L13,16.0000002 C13,16.552285 12.552285,17.0000002 12,17.0000002 C11.447715,17.0000002 11,16.552285 11,16.0000002 L11,15.0000002 L9.99999996,15.0000002 L9.99999996,15.0000002 C9.44771496,15.0000002 8.99999996,14.552285 8.99999996,14.0000002 C8.99999996,13.447715 9.44771496,13.0000002 9.99999996,13.0000002 L11,13.0000002 L11,12.0000002 L11,12.0000002 C11,11.4477152 11.447715,11.0000002 12,11.0000002 C12.552285,11.0000002 13,11.4477152 13,12.0000002 C13,12.0000002 13,12.0000002 13,12.0000002 L13,13.0000002 L14,13.0000002 L14,13.0000002 C14.5522849,13.0000002 15,13.4477152 15,14.0000002 C15,14.5522852 14.5522849,15.0000002 14,15.0000002 L14,15.0000002 Z" id="Fill" fill="#2876D3"></path>
    </g>
</svg>