<?xml version="1.0" encoding="UTF-8"?>
<svg width="24px" height="24px" viewBox="0 0 24 24" version="1.1" xmlns="http://www.w3.org/2000/svg" xmlns:xlink="http://www.w3.org/1999/xlink">
    <title>Icon/Home/Line Grey</title>
    <g id="Icon/Home/Line-Grey" stroke="none" stroke-width="1" fill="none" fill-rule="evenodd">
        <polygon id="24pt-Bounding-Box" opacity="0" fill-rule="nonzero" points="0 0 24 0 24 24 0 24"></polygon>
        <path d="M10.7487925,2.58157158 L2.7432785,9.83503596 C1.97661084,10.5285509 1.8834675,11.7287902 2.5269782,12.5417888 L2.63321651,12.6621981 C2.89080373,12.9234776 3.21456942,13.0488384 3.56868276,13.0762685 L3.629,13.078 L3.62940341,20.3434781 C3.62940341,21.1902505 4.29285397,21.9 5.1432202,21.9 L9.96529061,21.9 L10.0781847,21.8929877 C10.5219539,21.8374518 10.8652906,21.4588212 10.8652906,21 L10.865,14.688 L13.134,14.688 L13.1347094,21 C13.1347094,21.4970563 13.5376531,21.9 14.0347094,21.9 L18.8567798,21.9 L18.9966951,21.8935264 C19.7788151,21.820716 20.3705966,21.1432076 20.3705966,20.3434781 L20.37,13.078 L20.4313257,13.0763012 C20.83606,13.0449357 21.2011865,12.8855928 21.4733164,12.5414164 C22.1165179,11.7286576 22.0233807,10.5285432 21.2561808,9.83454647 L13.251521,2.58192676 L13.1465538,2.50009763 L13.083,2.465 L12.9628804,2.38165202 C12.2728864,1.94835267 11.3748445,2.01500729 10.7487925,2.58157158 Z M11.9973475,3.90177384 L12.1236313,3.99785674 L12.148,4.011 L20.04813,11.1689425 L20.0786376,11.2098475 L20.094,11.254 L19.9975835,11.2277624 L19.7413836,11.1314655 C19.1733205,10.9498496 18.5705966,11.3720601 18.5705966,11.9900493 L18.57,20.099 L14.934,20.099 L14.9347094,13.788302 C14.9347094,13.2912457 14.5317657,12.888302 14.0347094,12.888302 L9.96529061,12.888302 L9.85239652,12.8953143 C9.40862727,12.9508502 9.06529061,13.3294808 9.06529061,13.788302 L9.065,20.099 L5.429,20.099 L5.42940341,11.9900493 C5.42940341,11.3720864 4.82672636,10.949877 4.25867359,11.1314476 L4.05438007,11.2105573 L3.906,11.254 L3.92109488,11.2100965 C3.92904683,11.1943229 3.93917114,11.1804301 3.95133257,11.169429 L11.9569918,3.91583328 C11.9726237,3.90168683 11.9842749,3.89697135 11.9973475,3.90177384 Z" id="Fill" fill="#A7A9AC"></path>
    </g>
</svg>