<?xml version="1.0" standalone="no"?>
<svg version="1.0" xmlns="http://www.w3.org/2000/svg"
 width="42.000000pt" height="42.000000pt" viewBox="0 0 42.000000 42.000000"
 preserveAspectRatio="xMidYMid meet">

<g transform="translate(0.000000,42.000000) scale(0.100000,-0.100000)"
fill="#000000" stroke="none">
<path d="M175 401 c-45 -11 -69 -26 -103 -65 -28 -33 -52 -89 -52 -126 0 -61
54 -146 109 -174 130 -66 281 28 281 174 0 91 -56 165 -145 189 -44 12 -47 12
-90 2z m125 -191 c0 -18 -7 -20 -80 -20 -73 0 -80 2 -80 20 0 18 7 20 80 20
73 0 80 -2 80 -20z"/>
</g>
</svg>
