<?xml version="1.0" encoding="UTF-8"?>
<svg width="24px" height="24px" viewBox="0 0 24 24" version="1.1" xmlns="http://www.w3.org/2000/svg" xmlns:xlink="http://www.w3.org/1999/xlink">
    <g id="Icon/Globe-2/Fill" stroke="none" stroke-width="1" fill="none" fill-rule="evenodd">
        <polygon id="24pt-Bounding-Box" opacity="0" fill-rule="nonzero" points="0 0 24 0 24 24 0 24"></polygon>
        <path d="M11.9999996,2 L11.9999996,2 C6.47714956,2 1.99999956,6.47715 1.99999956,12 C1.99999956,17.52285 6.47714956,22 11.9999996,22 C17.5228496,22 21.9999996,17.52285 21.9999996,12 L21.9999996,12 C21.9999996,6.47715044 17.5228496,2 11.9999996,2 L11.9999996,2 Z M11.9999994,4 L11.9999994,4 C12.6025748,4.00393624 13.2028798,4.0743625 13.79,4.21 L13.79,4.20999971 C13.616171,4.60239271 13.348263,4.94586471 13.01,5.20999971 C12.79,5.37999971 12.55,5.51999971 12.31,5.66999971 L12.3099996,5.66999988 C11.5502226,6.04407788 10.9096296,6.62234388 10.4599996,7.33999988 L10.4599997,7.33999973 C9.9674307,8.36656973 9.7536077,9.50465973 9.8399997,10.6399997 C9.8399997,12 9.8399997,12.7999997 8.8899997,13.5099997 C7.5199997,14.5799997 5.4299997,13.9799997 4.1299997,13.4399997 L4.1299994,13.4399981 C4.0450123,12.9646751 4.0015154,12.4828631 3.9999994,12 L3.9999994,12 C3.9999994,7.5817293 7.5817194,4 11.9999994,4 L11.9999994,4 Z M16.89,18.32 L16.89,18.32 C16.717016,17.92069 16.506046,17.538934 16.26,17.18 C16.15,17.02 16.04,16.86 15.94,16.69 C15.55,16.01 15.69,15.69 16.32,14.69 L16.42,14.52 L16.42,14.52 C16.825783,13.775912 17.025983,12.93714 17,12.09 L16.9999998,12.0899554 C16.9989969,11.7545544 17.029129,11.4197854 17.0900082,11.0899554 C17.2500082,10.3599554 18.8000082,10.1599554 19.7600082,10.0899554 L19.7600083,10.0899554 C20.5531713,13.1737455 19.4273553,16.4331055 16.9000083,18.3699555 L16.89,18.32 Z" id="Fill" fill="#2876D3"></path>
    </g>
</svg>