<?xml version="1.0" encoding="UTF-8"?>
<svg width="24px" height="24px" viewBox="0 0 24 24" version="1.1" xmlns="http://www.w3.org/2000/svg" xmlns:xlink="http://www.w3.org/1999/xlink">
    <title>Icon/Code</title>
    <g id="Icon/Code" stroke="none" stroke-width="1" fill="none" fill-rule="evenodd">
        <polygon id="24pt-Bounding-Box" opacity="0" fill-rule="nonzero" points="0 0 24 0 24 24 0 24"></polygon>
        <path d="M7.23160004,5.35807703 C7.58515004,4.93379003 8.21571304,4.87644803 8.64000004,5.23000003 L8.64000004,5.23000003 C9.06620809,5.58514952 9.12355009,6.21571252 8.76999809,6.63999952 L8.76999809,6.63999952 L4.28999803,11.9999996 L8.61999803,17.3699996 C8.76526603,17.5490666 8.84418821,17.7728346 8.84340203,18.0034146 C8.84152203,18.5556966 8.39228403,19.0018826 7.84000203,19.0000055 L7.84000203,19.0000055 L7.71152338,18.9921636 C7.45743856,18.9601411 7.22339913,18.8314204 7.06000199,18.6299996 L7.06000199,18.6299996 L2.23000207,12.6299997 C1.92668499,12.2609977 1.92668499,11.7290017 2.23000199,11.3599997 L2.23000199,11.3599997 L7.23000203,5.35999963 L7.23000203,5.35999963 Z M15.59412,5.21667002 C16.024686,4.87078902 16.654119,4.93943702 17,5.37000002 L17,5.37000002 L21.7799967,11.3700013 C22.0804207,11.7413873 22.0762317,12.2733923 21.7699967,12.6400013 L21.7699967,12.6400013 L16.7699967,18.6400013 C16.5796397,18.8685413 16.2974287,19.0004843 15.9999967,19.0001008 L15.9999967,19.0001008 L15.8615912,18.9923972 C15.6788591,18.9694541 15.5050215,18.8963901 15.3599967,18.7800013 L15.3599967,18.7800013 L15.359035,18.7792029 C14.9337872,18.4248533 14.8764452,17.7942903 15.2299972,17.3700033 L15.2299972,17.3700033 L19.7099972,12.0000033 L15.4399972,6.63000326 C15.4388835,6.62863184 15.4377734,6.62725747 15.436667,6.62588016 C15.090785,6.19531416 15.159434,5.56588116 15.589997,5.22000016 L15.589997,5.22000016 L15.5920563,5.21833238 Z" id="Fill" fill="#2876D3"></path>
    </g>
</svg>