<?xml version="1.0" encoding="UTF-8"?>
<svg width="24px" height="24px" viewBox="0 0 24 24" version="1.1" xmlns="http://www.w3.org/2000/svg" xmlns:xlink="http://www.w3.org/1999/xlink">
    <title>Icon/Pause Circle/Line</title>
    <g id="Icon/Pause-Circle/Line" stroke="none" stroke-width="1" fill="none" fill-rule="evenodd">
        <polygon id="24pt-Bounding-Box" opacity="0" fill-rule="nonzero" points="0 0 24 0 24 24 0 24"></polygon>
        <path d="M11.9999996,2 L12.2799045,2.0038418 C17.6733312,2.15206821 21.9999996,6.57075806 21.9999996,12 L21.9999996,12 L21.9961578,12.279905 C21.8479314,17.6733316 17.4292419,22 11.9999996,22 C6.47714956,22 1.99999956,17.52285 1.99999956,12 C1.99999956,6.47715 6.47714956,2 11.9999996,2 L11.9999996,2 Z M11.9999997,4 C7.58171965,4 3.99999965,7.58172 3.99999965,12 C3.99999965,16.41828 7.58171965,20 11.9999997,20 L11.9999997,20 L12.2491791,19.9961932 C16.5521638,19.8645429 19.9999997,16.3349162 19.9999997,12 L19.9999997,12 L19.9961928,11.7508206 C19.8645426,7.44783584 16.3349159,4 11.9999997,4 Z M14,8.5 L14.1166212,8.50588676 C14.61396,8.55643122 15,8.92626853 15,9.37500008 L15,9.37500008 L15,14.625 C15,15.1082494 14.552285,15.5 14,15.5 C13.447715,15.5 13,15.1082494 13,14.625 L13,14.625 L13,9.37499999 L13,9.37499999 L13.0067277,9.27295646 C13.0644928,8.83778497 13.4871639,8.5 14,8.5 L14,8.5 Z M10,8.5 L10.1166212,8.50588676 C10.61396,8.55643122 11,8.92626856 11,9.37500012 L11,9.37500012 L11,14.625 C11,15.1082494 10.552285,15.5 10,15.5 C9.447715,15.5 9,15.1082494 9,14.625 L9,14.625 L9,9.37499998 L9,9.37499998 L9.00672773,9.27295646 C9.06449281,8.83778497 9.48716393,8.5 10,8.5 L10,8.5 Z" id="Fill" fill="#2876D3"></path>
    </g>
</svg>