<?xml version="1.0" encoding="UTF-8"?>
<svg width="24px" height="24px" viewBox="0 0 24 24" version="1.1" xmlns="http://www.w3.org/2000/svg" xmlns:xlink="http://www.w3.org/1999/xlink">
    <g id="Icon/Printer/Fill" stroke="none" stroke-width="1" fill="none" fill-rule="evenodd">
        <polygon id="24pt-Bounding-Box" opacity="0" fill-rule="nonzero" points="0 0 24 0 24 24 0 24"></polygon>
        <path d="M19.36,6.99999818 L18,6.99999818 L18,4.99999818 L18.0000001,4.99999818 C18.0451987,3.94300818 17.2268371,3.04862818 16.1700001,2.99999818 L7.83000008,2.99999818 L7.83000011,2.99999818 C6.77316011,3.04862388 5.95480011,3.94300718 6.00000011,4.99999818 L6.00000011,6.99999818 L4.64000011,6.99999818 L4.64000021,6.99999818 C3.17483021,7.01100428 1.99445021,8.20479818 1.99998071,9.66999818 L1.99998071,16.3299982 L1.99998071,16.3300127 C1.99445847,17.7952127 3.17485015,18.9890027 4.64001015,18.9999982 L5.50001015,18.9999982 L5.50001015,18.9999982 C5.50001032,20.104573 6.39544115,20.9999982 7.50001015,20.9999982 L16.5000102,20.9999982 L16.5000101,20.9999982 C17.6045801,20.9999982 18.5000101,20.104573 18.5000101,18.9999982 L19.3600101,18.9999982 L19.3600101,18.9999982 C20.8251701,18.9889887 22.0055401,17.795193 22.0000196,16.330003 L22.0000196,9.67000303 L22.0000196,9.66998865 C22.0055419,8.20478865 20.8251502,7.01099865 19.3599902,6.99999818 L19.36,6.99999818 Z M8,5 L16,5 L16,7 L8,7 L8,5 Z M7.5,19 L7.5,15 L16.5,15 L16.5,19 L7.5,19 Z" id="Fill" fill="#2876D3"></path>
    </g>
</svg>
