<?xml version="1.0" encoding="UTF-8"?>
<svg width="24px" height="24px" viewBox="0 0 24 24" version="1.1" xmlns="http://www.w3.org/2000/svg" xmlns:xlink="http://www.w3.org/1999/xlink">
    <g id="Icon/File-Type-Word/Line" stroke="none" stroke-width="1" fill="none" fill-rule="evenodd">
        <polygon id="24pt-Bounding-Box" opacity="0" fill-rule="nonzero" points="0 0 24 0 24 24 0 24"></polygon>
        <path d="M21.74,8.33 L16.3,2.33 L16.3,2.33000001 C16.110941,2.12052101 15.842178,2.00066701 15.56,1.99981627 L8.56000001,1.99981627 L8.55999996,1.99981627 C7.16281996,1.98333441 6.01666996,3.10246001 5.99999568,4.49964001 C5.99999568,4.49975859 5.99999568,4.49987716 5.99999568,4.49999574 L5.99999568,19.4999957 L5.99999568,19.4999903 C6.01646188,20.8971703 7.16245568,22.0164703 8.55963568,22.0001799 C8.55975423,22.0001799 8.55987279,22.0001799 8.55999134,22.0001799 L19.4399913,22.0001799 L19.4399912,22.0001799 C20.8371712,22.0166647 21.9833212,20.897536 21.9999957,19.500356 C21.9999957,19.5002356 21.9999957,19.5001152 21.9999957,19.4999947 L21.9999957,8.99999473 L21.9999957,8.99999864 C21.9993495,8.75216264 21.906695,8.51339664 21.7399985,8.32999764 L21.74,8.33 Z M19.65,9 L15.71,9 L15.71,9 C15.281099,8.9577648 14.965193,8.579568 15,8.15 L15,4 L15.11,4 L19.65,9 Z M19.44,20 L8.56,20 L8.56000002,20 C8.26778402,20.0170102 8.01710602,19.793912 8.00000005,19.501695 C8.00000005,19.5011299 8.00000005,19.5005648 8.00000005,19.4999996 L8.00000005,4.4999996 L8.00000005,4.49999966 C8.01607385,4.20773066 8.26603505,3.98382966 8.55830505,3.99990366 C8.55887024,3.99993474 8.55943537,3.99996673 8.56000045,3.99999962 L13.0000001,3.99999962 L13.0000001,8.14999962 L13.0000001,8.15000203 C12.9663973,9.68340203 14.1768504,10.956392 15.7100004,11.000002 L20.0000001,11.000002 L20.0000001,19.500002 L20.0000001,19.5000019 C19.9839266,19.7922709 19.7339654,20.0161719 19.4416954,20.0000979 C19.4411302,20.0000669 19.4405651,20.0000349 19.44,20.000002 L19.44,20 Z" id="Fill" fill="#808285"></path>
        <rect id="Rectangle" fill="#2A4D97" x="1" y="5" width="12" height="7" rx="2"></rect>
        <path d="M3.848,9.908 C4.04266667,9.908 4.23466667,9.88066667 4.424,9.826 C4.61333333,9.77133333 4.78333333,9.686 4.934,9.57 C5.08466667,9.454 5.206,9.306 5.298,9.126 C5.39,8.946 5.436,8.732 5.436,8.484 C5.436,8.21733333 5.38933333,7.99333333 5.296,7.812 C5.20266667,7.63066667 5.08,7.486 4.928,7.378 C4.776,7.27 4.60266667,7.19266667 4.408,7.146 C4.21333333,7.09933333 4.016,7.076 3.816,7.076 L3.816,7.076 L2.792,7.076 L2.792,9.908 L3.848,9.908 Z M3.784,9.316 L3.46,9.316 L3.46,7.66 L3.8,7.66 C3.91733333,7.66 4.03133333,7.67333333 4.142,7.7 C4.25266667,7.72666667 4.35133333,7.77133333 4.438,7.834 C4.52466667,7.89666667 4.594,7.98066667 4.646,8.086 C4.698,8.19133333 4.724,8.324 4.724,8.484 C4.724,8.64133333 4.698,8.77333333 4.646,8.88 C4.594,8.98666667 4.52466667,9.072 4.438,9.136 C4.35133333,9.2 4.25133333,9.246 4.138,9.274 C4.02466667,9.302 3.90666667,9.316 3.784,9.316 L3.784,9.316 Z M7.0293336,9.984 C7.25066693,9.984 7.45600027,9.948 7.6453336,9.876 C7.83466693,9.804 7.99800027,9.702 8.1353336,9.57 C8.27266693,9.438 8.38000027,9.27933333 8.4573336,9.094 C8.53466693,8.90866667 8.5733336,8.704 8.5733336,8.48 C8.5733336,8.25333333 8.53466693,8.04866667 8.4573336,7.866 C8.38000027,7.68333333 8.27266693,7.528 8.1353336,7.4 C7.99800027,7.272 7.83466693,7.17333333 7.6453336,7.104 C7.45600027,7.03466667 7.25066693,7 7.0293336,7 C6.80800027,7 6.6033336,7.03466667 6.4153336,7.104 C6.2273336,7.17333333 6.06466693,7.272 5.9273336,7.4 C5.79000027,7.528 5.68266693,7.68333333 5.6053336,7.866 C5.52800027,8.04866667 5.4893336,8.25333333 5.4893336,8.48 C5.4893336,8.704 5.52800027,8.90866667 5.6053336,9.094 C5.68266693,9.27933333 5.79000027,9.438 5.9273336,9.57 C6.06466693,9.702 6.2273336,9.804 6.4153336,9.876 C6.6033336,9.948 6.80800027,9.984 7.0293336,9.984 Z M7.0293336,9.36 C6.9093336,9.36 6.80000027,9.338 6.7013336,9.294 C6.60266693,9.25 6.51800027,9.18933333 6.4473336,9.112 C6.37666693,9.03466667 6.3213336,8.942 6.2813336,8.834 C6.2413336,8.726 6.2213336,8.608 6.2213336,8.48 C6.2213336,8.35733333 6.24066693,8.24266667 6.2793336,8.136 C6.31800027,8.02933333 6.3733336,7.938 6.4453336,7.862 C6.5173336,7.786 6.60266693,7.726 6.7013336,7.682 C6.80000027,7.638 6.9093336,7.616 7.0293336,7.616 C7.1493336,7.616 7.2593336,7.638 7.3593336,7.682 C7.4593336,7.726 7.54466693,7.786 7.6153336,7.862 C7.68600027,7.938 7.7413336,8.02933333 7.7813336,8.136 C7.8213336,8.24266667 7.8413336,8.35733333 7.8413336,8.48 C7.8413336,8.608 7.8213336,8.726 7.7813336,8.834 C7.7413336,8.942 7.6853336,9.03466667 7.6133336,9.112 C7.5413336,9.18933333 7.45600027,9.25 7.3573336,9.294 C7.25866693,9.338 7.1493336,9.36 7.0293336,9.36 Z M10.1506672,9.984 C10.3906672,9.984 10.6026672,9.942 10.7866672,9.858 C10.9706672,9.774 11.1253339,9.66 11.2506672,9.516 L11.2506672,9.516 L10.7746672,9.068 C10.7133339,9.15333333 10.6320005,9.22266667 10.5306672,9.276 C10.4293339,9.32933333 10.3106672,9.356 10.1746672,9.356 C10.0573339,9.356 9.94933387,9.33466667 9.8506672,9.292 C9.75200053,9.24933333 9.66733387,9.19 9.5966672,9.114 C9.52600053,9.038 9.4706672,8.94666667 9.4306672,8.84 C9.3906672,8.73333333 9.3706672,8.616 9.3706672,8.488 C9.3706672,8.36266667 9.3906672,8.24733333 9.4306672,8.142 C9.4706672,8.03666667 9.5266672,7.94533333 9.5986672,7.868 C9.6706672,7.79066667 9.7566672,7.73 9.8566672,7.686 C9.9566672,7.642 10.0666672,7.62 10.1866672,7.62 C10.2960005,7.62 10.4026672,7.64133333 10.5066672,7.684 C10.6106672,7.72666667 10.6946672,7.792 10.7586672,7.88 L10.7586672,7.88 L11.2226672,7.416 C11.1026672,7.28 10.9460005,7.17666667 10.7526672,7.106 C10.5593339,7.03533333 10.3626672,7 10.1626672,7 C9.9466672,7 9.74533387,7.03466667 9.5586672,7.104 C9.37200053,7.17333333 9.20933387,7.27266667 9.0706672,7.402 C8.93200053,7.53133333 8.82333387,7.688 8.7446672,7.872 C8.66600053,8.056 8.6266672,8.26133333 8.6266672,8.488 C8.6266672,8.70933333 8.66533387,8.912 8.7426672,9.096 C8.82000053,9.28 8.9266672,9.438 9.0626672,9.57 C9.1986672,9.702 9.35933387,9.804 9.5446672,9.876 C9.73000053,9.948 9.93200053,9.984 10.1506672,9.984 Z" id="DOC" fill="#FFFFFF" fill-rule="nonzero"></path>
    </g>
</svg>
