<?xml version="1.0" encoding="UTF-8"?>
<svg width="24px" height="24px" viewBox="0 0 24 24" version="1.1" xmlns="http://www.w3.org/2000/svg" xmlns:xlink="http://www.w3.org/1999/xlink">
    <title>Icon/Staff Pool/Light</title>
    <g id="Icon/Staff-Pool/Light" stroke="none" stroke-width="1" fill="none" fill-rule="evenodd">
        <polygon id="24pt-Bounding-Box" points="0 0 24 0 24 24 0 24"></polygon>
        <path d="M17.9205705,13.9338462 C20.0540104,13.9338462 21.7801628,15.6789673 21.7801628,17.8276098 C21.7801628,19.9762523 20.0540104,21.7213734 17.9205705,21.7213734 C15.7871307,21.7213734 14.0609783,19.9762523 14.0609783,17.8276098 C14.0609783,15.6789673 15.7871307,13.9338462 17.9205705,13.9338462 Z M17.9205705,15.4338462 C16.6192496,15.4338462 15.5609783,16.5037469 15.5609783,17.8276098 C15.5609783,19.1514727 16.6192496,20.2213734 17.9205705,20.2213734 C19.2218915,20.2213734 20.2801628,19.1514727 20.2801628,17.8276098 C20.2801628,16.5037469 19.2218915,15.4338462 17.9205705,15.4338462 Z M19.5982602,16.5975047 C19.8746416,16.8532567 19.9149703,17.2686699 19.7086534,17.5705003 L19.6393483,17.6573687 L18.1670629,19.2484113 C17.9731176,19.4580005 17.687356,19.531843 17.4289384,19.4653193 L17.3202095,19.4282019 C17.2157046,19.4018427 17.1158255,19.3538863 17.028402,19.2836117 L16.9471583,19.2077911 L16.2634061,18.468915 C15.982073,18.1649009 16.0004596,17.6903833 16.3044736,17.4090502 C16.5808501,17.1532928 16.9981385,17.1452376 17.2830948,17.374297 L17.3643385,17.4501177 L17.5749783,17.6778462 L18.5383962,16.6385928 C18.8197234,16.3345733 19.2942407,16.3161775 19.5982602,16.5975047 Z M11.2899806,2 C14.1003158,2 15.7353756,3.59656338 15.8265134,6.1446239 L15.8305389,6.37190564 L15.83,8.015 L15.8871894,8.1214198 C16.3286579,9.0143918 16.1794426,10.094955 15.5255478,10.8229698 L15.449,10.901 C15.2032013,11.6880295 14.8472481,12.3938838 14.3997433,12.9781708 L14.32,13.076 L14.32,13.285 L14.5168071,13.4349117 L14.5971507,13.4932119 C15.0480439,13.8121378 15.1550245,14.4361996 14.8360985,14.8870928 C14.5171726,15.337986 13.8931108,15.4449666 13.4422176,15.1260406 C12.936426,14.7682839 12.5923558,14.4294024 12.4196591,14.0185591 L12.3629498,13.8609422 L12.3203914,13.7197664 L12.3203914,12.3084224 L12.5935282,12.0193452 C12.9828553,11.6072969 13.3079901,11.0301589 13.5268069,10.3465372 L13.6037972,10.0853021 L13.6958478,9.74448221 L13.9814691,9.53699255 C14.1354304,9.42514726 14.1852703,9.19257497 14.0927322,9.00561772 L14.0442444,8.92877091 L13.8305389,8.65680368 L13.8305389,6.37190564 C13.8305389,4.78472912 13.0663544,4 11.2899806,4 C9.62062487,4 8.81390781,4.7491198 8.75204142,6.18840469 L8.74817903,6.37190564 L8.74817903,8.65731889 L8.53473716,8.92918937 C8.40130472,9.09914825 8.41530944,9.3391357 8.53885506,9.48238833 L8.59839928,9.53737357 L8.88325445,9.74483703 L8.97510947,10.085052 C9.16661096,10.7943401 9.46988694,11.404477 9.84279222,11.8569538 L9.98581326,12.019128 L10.2591554,12.3082494 L10.2591554,13.7195998 L10.2166911,13.86063 C9.88179229,14.9728778 8.08001803,15.9553369 4.47163168,17.4270177 L3.999,17.617 L4,18.2788217 C4,18.7916576 3.61395981,19.2143289 3.11662113,19.272094 L3,19.2788217 C2.48716416,19.2788217 2.06449284,18.8927816 2.00672773,18.3954429 L2,18.2788217 L2,17.3662956 C2,16.7073742 2.39367482,16.1077203 3.00659795,15.8616636 L3.85266353,15.5162575 C6.04630889,14.6024515 7.71162122,13.764067 8.17426928,13.4140793 L8.259,13.342 L8.259,13.077 L8.17971982,12.9782898 C7.79584119,12.4773571 7.47932145,11.887098 7.24251832,11.2349945 L7.129,10.901 L7.05307889,10.8218602 C6.40041489,10.0939004 6.25111558,9.01435419 6.69174481,8.12215133 L6.748,8.016 L6.74817903,6.37190564 C6.74817903,3.78970521 8.34559551,2.09869997 11.0486216,2.00417901 L11.2899806,2 Z" id="Fill" fill="#58595B"></path>
    </g>
</svg>