<?xml version="1.0" encoding="UTF-8"?>
<svg width="24px" height="24px" viewBox="0 0 24 24" version="1.1" xmlns="http://www.w3.org/2000/svg" xmlns:xlink="http://www.w3.org/1999/xlink">
    <title>Icon/Calendar/Line</title>
    <g id="Icon/Calendar/Line" stroke="none" stroke-width="1" fill="none" fill-rule="evenodd">
        <polygon id="24pt-Bounding-Box" opacity="0" fill-rule="nonzero" points="0 0 24 0 24 24 0 24"></polygon>
        <path d="M18.9920854,2 C20.4917787,2 21.7075099,3.21562528 21.7075099,4.71526798 L21.7075099,4.71526798 L21.7075099,18.9922419 C21.7075099,20.4918846 20.4917787,21.7075099 18.9920854,21.7075099 L18.9920854,21.7075099 L4.71542451,21.7075099 C3.21574884,21.7075099 2,20.4919023 2,18.9923202 L2,18.9923202 L2,4.71526798 C2,3.21562528 3.21573119,2 4.71542451,2 L4.71542451,2 Z M20,8.707 L3.707,8.707 L3.70750988,18.9923202 C3.70750988,19.5117258 4.10057806,19.9393753 4.60559544,19.9940868 L4.71542451,20 L18.9920854,20 C19.5487803,20 20,19.5488196 20,18.9922419 L20,18.9922419 L20,8.707 Z M13.5274521,10 L10.9347549,13.5087549 L11.051232,13.5498162 C12.1235511,13.9588057 12.7813837,14.8492756 12.7012163,16.1722313 L12.6836157,16.3739121 C12.512414,17.8849169 11.3986142,18.7300937 9.98639178,18.7070614 C8.85058039,18.6885371 7.70455364,18.1077629 7.17441252,17.2156877 L7.08737892,17.0550823 L8.62013096,16.302579 C8.79600101,16.6608036 9.41080067,16.9899369 10.0142363,16.9997785 C10.595437,17.0092575 10.9212023,16.7620594 10.9869612,16.181679 C11.0592545,15.543606 10.858269,15.277625 10.3608591,15.1164105 C10.1296769,15.0414825 9.87472751,15.0089132 9.6493784,15.0051236 L9.46754292,15.0084468 L7.5850234,15.1702764 L10.1417549,11.7067549 L8.07884094,11.7075099 L8.07884094,10 L13.5274521,10 Z M16.7075099,9.70658786 L16.7075099,17.8537549 L15,17.8537549 L14.9997549,12.0007549 L14.0988709,12.2710101 L13.608639,10.635387 L16.7075099,9.70658786 Z M18.9920854,3.70750988 L4.71542451,3.70750988 C4.15872956,3.70750988 3.70750988,4.15869025 3.70750988,4.71526798 L3.70750988,4.71526798 L3.707,7 L20,7 L20,4.71526798 C20,4.19579543 19.6069375,3.7681357 19.1019156,3.71342317 L18.9920854,3.70750988 Z" id="Fill" fill="#2876D3"></path>
    </g>
</svg>